<?xml version="1.0" encoding="utf-8" standalone="no"?>
<!DOCTYPE svg PUBLIC "-//W3C//DTD SVG 1.1//EN"
  "http://www.w3.org/Graphics/SVG/1.1/DTD/svg11.dtd">
<svg height="210.4pt" version="1.1" viewBox="0 0 714.4 210.4" width="714.4pt" xmlns="http://www.w3.org/2000/svg" xmlns:xlink="http://www.w3.org/1999/xlink">
 <metadata>
  <rdf:RDF xmlns:cc="http://creativecommons.org/ns#" xmlns:dc="http://purl.org/dc/elements/1.1/" xmlns:rdf="http://www.w3.org/1999/02/22-rdf-syntax-ns#">
   <cc:Work>
    <dc:type rdf:resource="http://purl.org/dc/dcmitype/StillImage"/>
    <dc:date>2023-08-28T13:37:17.509358</dc:date>
    <dc:format>image/svg+xml</dc:format>
    <dc:creator>
     <cc:Agent>
      <dc:title>Matplotlib v3.4.3, https://matplotlib.org/</dc:title>
     </cc:Agent>
    </dc:creator>
   </cc:Work>
  </rdf:RDF>
 </metadata>
 <defs>
  <style type="text/css">*{stroke-linecap:butt;stroke-linejoin:round;}</style>
 </defs>
 <g id="figure_1">
  <g id="patch_1">
   <path d="M 0 210.4 
L 714.4 210.4 
L 714.4 0 
L 0 0 
z
" style="fill:none;"/>
  </g>
  <g id="axes_1">
   <g id="patch_2">
    <path d="M 56.758698 158.692672 
L 364.124866 158.692672 
L 364.124866 27.172597 
L 56.758698 27.172597 
z
" style="fill:none;"/>
   </g>
   <g id="matplotlib.axis_1">
    <g id="xtick_1">
     <g id="line2d_1">
      <defs>
       <path d="M 0 0 
L 0 3.5 
" id="mfc653982f1" style="stroke:#002147;stroke-width:0.8;"/>
      </defs>
      <g>
       <use style="fill:#002147;stroke:#002147;stroke-width:0.8;" x="56.758698" xlink:href="#mfc653982f1" y="158.692672"/>
      </g>
     </g>
     <g id="text_1">
      <!-- $\mathdefault{−4}$ -->
      <g style="fill:#002147;" transform="translate(46.657706 176.870756)scale(0.16 -0.16)">
       <defs>
        <path d="M 4218 1472 
C 4326 1472 4442 1472 4442 1600 
C 4442 1728 4326 1728 4218 1728 
L 755 1728 
C 646 1728 531 1728 531 1600 
C 531 1472 646 1472 755 1472 
L 4218 1472 
z
" id="CMSY10-0" transform="scale(0.015625)"/>
        <path d="M 2150 4122 
C 2150 4256 2144 4256 2029 4256 
L 128 1254 
L 128 1088 
L 1779 1088 
L 1779 457 
C 1779 224 1766 160 1318 160 
L 1197 160 
L 1197 0 
C 1402 0 1747 0 1965 0 
C 2182 0 2528 0 2733 0 
L 2733 160 
L 2611 160 
C 2163 160 2150 224 2150 457 
L 2150 1088 
L 2803 1088 
L 2803 1254 
L 2150 1254 
L 2150 4122 
z
M 1798 3703 
L 1798 1254 
L 256 1254 
L 1798 3703 
z
" id="CMR17-34" transform="scale(0.015625)"/>
       </defs>
       <use transform="scale(0.996264)" xlink:href="#CMSY10-0"/>
       <use transform="translate(77.487468 0)scale(0.996264)" xlink:href="#CMR17-34"/>
      </g>
     </g>
    </g>
    <g id="xtick_2">
     <g id="line2d_2">
      <g>
       <use style="fill:#002147;stroke:#002147;stroke-width:0.8;" x="133.60024" xlink:href="#mfc653982f1" y="158.692672"/>
      </g>
     </g>
     <g id="text_2">
      <!-- $\mathdefault{0}$ -->
      <g style="fill:#002147;" transform="translate(129.698246 176.870756)scale(0.16 -0.16)">
       <defs>
        <path d="M 2688 2025 
C 2688 2416 2682 3080 2413 3591 
C 2176 4039 1798 4198 1466 4198 
C 1158 4198 768 4058 525 3597 
C 269 3118 243 2524 243 2025 
C 243 1661 250 1106 448 619 
C 723 -39 1216 -128 1466 -128 
C 1760 -128 2208 -7 2470 600 
C 2662 1042 2688 1559 2688 2025 
z
M 1466 -26 
C 1056 -26 813 325 723 812 
C 653 1188 653 1738 653 2096 
C 653 2588 653 2997 736 3387 
C 858 3929 1216 4096 1466 4096 
C 1728 4096 2067 3923 2189 3400 
C 2272 3036 2278 2607 2278 2096 
C 2278 1680 2278 1169 2202 792 
C 2067 95 1690 -26 1466 -26 
z
" id="CMR17-30" transform="scale(0.015625)"/>
       </defs>
       <use transform="scale(0.996264)" xlink:href="#CMR17-30"/>
      </g>
     </g>
    </g>
    <g id="xtick_3">
     <g id="line2d_3">
      <g>
       <use style="fill:#002147;stroke:#002147;stroke-width:0.8;" x="210.441782" xlink:href="#mfc653982f1" y="158.692672"/>
      </g>
     </g>
     <g id="text_3">
      <!-- $\mathdefault{4}$ -->
      <g style="fill:#002147;" transform="translate(206.539788 176.870756)scale(0.16 -0.16)">
       <use transform="scale(0.996264)" xlink:href="#CMR17-34"/>
      </g>
     </g>
    </g>
    <g id="xtick_4">
     <g id="line2d_4">
      <g>
       <use style="fill:#002147;stroke:#002147;stroke-width:0.8;" x="287.283324" xlink:href="#mfc653982f1" y="158.692672"/>
      </g>
     </g>
     <g id="text_4">
      <!-- $\mathdefault{8}$ -->
      <g style="fill:#002147;" transform="translate(283.381331 176.870756)scale(0.16 -0.16)">
       <defs>
        <path d="M 1741 2264 
C 2144 2467 2554 2773 2554 3263 
C 2554 3841 1990 4179 1472 4179 
C 890 4179 378 3759 378 3180 
C 378 3021 416 2747 666 2505 
C 730 2442 998 2251 1171 2130 
C 883 1983 211 1634 211 934 
C 211 279 838 -128 1459 -128 
C 2144 -128 2720 362 2720 1010 
C 2720 1590 2330 1857 2074 2029 
L 1741 2264 
z
M 902 2822 
C 851 2854 595 3051 595 3351 
C 595 3739 998 4032 1459 4032 
C 1965 4032 2336 3676 2336 3262 
C 2336 2669 1670 2331 1638 2331 
C 1632 2331 1626 2331 1574 2370 
L 902 2822 
z
M 2080 1519 
C 2176 1449 2483 1240 2483 851 
C 2483 381 2010 25 1472 25 
C 890 25 448 438 448 940 
C 448 1443 838 1862 1280 2060 
L 2080 1519 
z
" id="CMR17-38" transform="scale(0.015625)"/>
       </defs>
       <use transform="scale(0.996264)" xlink:href="#CMR17-38"/>
      </g>
     </g>
    </g>
    <g id="xtick_5">
     <g id="line2d_5">
      <g>
       <use style="fill:#002147;stroke:#002147;stroke-width:0.8;" x="364.124866" xlink:href="#mfc653982f1" y="158.692672"/>
      </g>
     </g>
     <g id="text_5">
      <!-- $\mathdefault{12}$ -->
      <g style="fill:#002147;" transform="translate(356.320879 176.870756)scale(0.16 -0.16)">
       <defs>
        <path d="M 1702 4058 
C 1702 4192 1696 4192 1606 4192 
C 1357 3916 979 3827 621 3827 
C 602 3827 570 3827 563 3808 
C 557 3795 557 3782 557 3648 
C 755 3648 1088 3686 1344 3839 
L 1344 461 
C 1344 236 1331 160 781 160 
L 589 160 
L 589 0 
C 896 0 1216 0 1523 0 
C 1830 0 2150 0 2458 0 
L 2458 160 
L 2266 160 
C 1715 160 1702 230 1702 458 
L 1702 4058 
z
" id="CMR17-31" transform="scale(0.015625)"/>
        <path d="M 2669 989 
L 2554 989 
C 2490 536 2438 459 2413 420 
C 2381 369 1920 369 1830 369 
L 602 369 
C 832 619 1280 1072 1824 1597 
C 2214 1967 2669 2402 2669 3035 
C 2669 3790 2067 4224 1395 4224 
C 691 4224 262 3604 262 3030 
C 262 2780 448 2748 525 2748 
C 589 2748 781 2787 781 3010 
C 781 3207 614 3264 525 3264 
C 486 3264 448 3258 422 3245 
C 544 3790 915 4058 1306 4058 
C 1862 4058 2227 3617 2227 3035 
C 2227 2479 1901 2000 1536 1584 
L 262 146 
L 262 0 
L 2515 0 
L 2669 989 
z
" id="CMR17-32" transform="scale(0.015625)"/>
       </defs>
       <use transform="scale(0.996264)" xlink:href="#CMR17-31"/>
       <use transform="translate(45.690477 0)scale(0.996264)" xlink:href="#CMR17-32"/>
      </g>
     </g>
    </g>
    <g id="text_6">
     <!-- $x$ -->
     <g style="fill:#002147;" transform="translate(204.898376 198.557421)scale(0.2 -0.2)">
      <defs>
       <path d="M 3034 2606 
C 2829 2567 2752 2414 2752 2293 
C 2752 2139 2874 2088 2963 2088 
C 3155 2088 3290 2254 3290 2427 
C 3290 2695 2982 2816 2714 2816 
C 2323 2816 2106 2433 2048 2312 
C 1901 2816 1504 2816 1389 2816 
C 736 2816 390 1980 390 1839 
C 390 1814 416 1782 461 1782 
C 512 1782 525 1820 538 1846 
C 755 2555 1184 2689 1370 2689 
C 1658 2689 1715 2420 1715 2267 
C 1715 2127 1677 1980 1600 1673 
L 1382 798 
C 1286 415 1101 64 762 64 
C 730 64 570 64 435 147 
C 666 192 717 383 717 460 
C 717 588 621 664 499 664 
C 346 664 179 530 179 326 
C 179 57 480 -64 755 -64 
C 1062 -64 1280 179 1414 441 
C 1517 64 1837 -64 2074 -64 
C 2726 -64 3072 773 3072 913 
C 3072 945 3046 971 3008 971 
C 2950 971 2944 939 2925 888 
C 2752 326 2381 64 2093 64 
C 1869 64 1747 230 1747 492 
C 1747 632 1773 734 1875 1156 
L 2099 2024 
C 2195 2408 2413 2689 2707 2689 
C 2720 2689 2899 2689 3034 2606 
z
" id="CMMI12-78" transform="scale(0.015625)"/>
      </defs>
      <use transform="scale(0.996264)" xlink:href="#CMMI12-78"/>
     </g>
    </g>
   </g>
   <g id="matplotlib.axis_2">
    <g id="ytick_1">
     <g id="line2d_6">
      <defs>
       <path d="M 0 0 
L -3.5 0 
" id="m86c1921d55" style="stroke:#002147;stroke-width:0.8;"/>
      </defs>
      <g>
       <use style="fill:#002147;stroke:#002147;stroke-width:0.8;" x="56.758698" xlink:href="#m86c1921d55" y="152.714487"/>
      </g>
     </g>
     <g id="text_7">
      <!-- $\mathdefault{0.0}$ -->
      <g style="fill:#002147;" transform="translate(29.815175 158.303529)scale(0.16 -0.16)">
       <defs>
        <path d="M 1178 307 
C 1178 492 1024 619 870 619 
C 685 619 557 466 557 313 
C 557 128 710 0 864 0 
C 1050 0 1178 153 1178 307 
z
" id="CMMI12-3a" transform="scale(0.015625)"/>
       </defs>
       <use transform="scale(0.996264)" xlink:href="#CMR17-30"/>
       <use transform="translate(45.690477 0)scale(0.996264)" xlink:href="#CMMI12-3a"/>
       <use transform="translate(72.787654 0)scale(0.996264)" xlink:href="#CMR17-30"/>
      </g>
     </g>
    </g>
    <g id="ytick_2">
     <g id="line2d_7">
      <g>
       <use style="fill:#002147;stroke:#002147;stroke-width:0.8;" x="56.758698" xlink:href="#m86c1921d55" y="92.72519"/>
      </g>
     </g>
     <g id="text_8">
      <!-- $\mathdefault{0.2}$ -->
      <g style="fill:#002147;" transform="translate(29.815175 98.314232)scale(0.16 -0.16)">
       <use transform="scale(0.996264)" xlink:href="#CMR17-30"/>
       <use transform="translate(45.690477 0)scale(0.996264)" xlink:href="#CMMI12-3a"/>
       <use transform="translate(72.787654 0)scale(0.996264)" xlink:href="#CMR17-32"/>
      </g>
     </g>
    </g>
    <g id="ytick_3">
     <g id="line2d_8">
      <g>
       <use style="fill:#002147;stroke:#002147;stroke-width:0.8;" x="56.758698" xlink:href="#m86c1921d55" y="32.735893"/>
      </g>
     </g>
     <g id="text_9">
      <!-- $\mathdefault{0.4}$ -->
      <g style="fill:#002147;" transform="translate(29.815175 38.324935)scale(0.16 -0.16)">
       <use transform="scale(0.996264)" xlink:href="#CMR17-30"/>
       <use transform="translate(45.690477 0)scale(0.996264)" xlink:href="#CMMI12-3a"/>
       <use transform="translate(72.787654 0)scale(0.996264)" xlink:href="#CMR17-34"/>
      </g>
     </g>
    </g>
    <g id="text_10">
     <!-- Probability density -->
     <g style="fill:#002147;" transform="translate(21.172597 169.903941)rotate(-90)scale(0.2 -0.2)">
      <defs>
       <path d="M 1210 3559 
C 1210 3744 1306 3968 1766 3968 
C 2208 3968 2650 3821 2650 3014 
C 2650 2328 2317 2048 1696 2048 
C 1536 2048 1280 2048 1210 2074 
L 1210 3559 
z
M 666 3372 
L 666 780 
C 666 243 557 211 109 211 
C 70 172 70 39 109 0 
C 397 0 710 0 941 0 
C 1165 0 1542 0 1862 0 
C 1901 39 1901 172 1862 211 
C 1363 211 1210 237 1210 778 
L 1210 1888 
C 1350 1843 1504 1824 1728 1824 
C 2893 1824 3245 2583 3245 3126 
C 3245 3502 2995 4186 1811 4186 
C 1568 4186 1190 4160 934 4160 
C 698 4160 365 4160 109 4160 
C 70 4120 70 3981 109 3942 
C 557 3942 666 3910 666 3372 
z
" id="LinLibertineT-50" transform="scale(0.015625)"/>
       <path d="M 1126 2296 
C 1114 2553 1107 2719 1075 2784 
C 1062 2816 1050 2835 998 2835 
C 819 2764 653 2707 211 2649 
C 198 2610 211 2508 224 2469 
C 570 2436 640 2404 640 2031 
L 640 777 
C 640 244 563 218 166 218 
C 128 178 128 40 166 0 
C 390 0 640 0 896 0 
C 1152 0 1446 0 1670 0 
C 1709 39 1709 172 1670 211 
C 1222 243 1146 262 1146 791 
L 1146 1678 
C 1146 1844 1222 1990 1299 2106 
C 1370 2207 1517 2418 1594 2418 
C 1651 2418 1709 2405 1760 2335 
C 1805 2271 1882 2188 1990 2188 
C 2144 2188 2291 2348 2291 2508 
C 2291 2630 2176 2816 1907 2816 
C 1606 2816 1344 2533 1197 2283 
C 1158 2213 1126 2264 1126 2296 
z
" id="LinLibertineT-72" transform="scale(0.015625)"/>
       <path d="M 262 1315 
C 262 661 698 -64 1606 -64 
C 2016 -64 2330 83 2547 295 
C 2835 577 2963 981 2963 1373 
C 2963 2040 2598 2816 1619 2816 
C 1197 2816 851 2642 614 2367 
C 384 2091 262 1719 262 1315 
z
M 1523 2591 
C 2074 2591 2413 2091 2413 1167 
C 2413 359 1997 160 1696 160 
C 1030 160 813 968 813 1462 
C 813 2020 947 2591 1523 2591 
z
" id="LinLibertineT-6f" transform="scale(0.015625)"/>
       <path d="M 1114 2328 
C 1280 2476 1472 2533 1658 2533 
C 2048 2533 2368 2059 2368 1437 
C 2368 706 2074 154 1466 154 
C 1267 154 1133 295 1005 455 
L 1005 2059 
C 1005 2193 1030 2258 1114 2328 
z
M 1069 2527 
C 1030 2489 1005 2501 1005 2559 
L 1005 3741 
C 1005 4159 1030 4416 1030 4416 
C 1030 4460 1005 4480 947 4480 
C 787 4414 307 4320 51 4300 
C 38 4246 51 4140 90 4100 
C 422 4100 499 4132 499 3592 
L 499 456 
C 499 205 493 90 474 0 
C 506 -42 538 -64 614 -64 
C 653 -38 717 19 768 77 
C 832 154 870 154 941 96 
C 1088 -26 1280 -64 1504 -64 
C 2157 -64 2918 532 2918 1552 
C 2918 2335 2342 2816 1786 2816 
C 1510 2816 1267 2707 1069 2527 
z
" id="LinLibertineT-62" transform="scale(0.015625)"/>
       <path d="M 1875 1495 
L 1875 648 
C 1875 564 1837 520 1786 481 
C 1619 346 1402 199 1222 199 
C 902 199 762 455 762 654 
C 762 944 896 1239 1370 1361 
L 1875 1495 
z
M 1875 308 
C 1914 109 1984 -64 2304 -64 
C 2547 -64 2778 45 2912 173 
C 2899 250 2874 309 2803 347 
C 2758 309 2650 244 2566 244 
C 2381 244 2374 494 2374 789 
L 2374 1732 
C 2374 2642 1875 2816 1408 2816 
C 883 2816 352 2469 352 2104 
C 352 1950 429 1873 576 1873 
C 762 1873 877 2007 877 2091 
C 877 2136 870 2181 858 2206 
C 851 2226 845 2264 845 2335 
C 845 2533 1114 2604 1357 2604 
C 1574 2604 1875 2495 1875 1770 
C 1875 1725 1856 1700 1837 1693 
L 1286 1559 
C 672 1405 230 1065 230 629 
C 230 103 589 -64 1037 -64 
C 1261 -64 1453 -13 1734 205 
L 1862 308 
L 1875 308 
z
" id="LinLibertineT-61" transform="scale(0.015625)"/>
       <path d="M 576 3852 
C 576 3685 730 3518 883 3518 
C 1062 3518 1216 3691 1216 3826 
C 1216 3980 1082 4160 909 4160 
C 755 4160 576 4006 576 3852 
z
M 1158 779 
L 1158 2064 
C 1158 2386 1184 2799 1184 2799 
C 1184 2825 1152 2844 1101 2844 
C 922 2773 666 2716 224 2658 
C 211 2619 224 2517 237 2478 
C 589 2446 653 2408 653 2043 
L 653 794 
C 653 263 582 244 192 212 
C 154 173 154 39 192 0 
C 403 0 653 0 909 0 
C 1165 0 1408 0 1619 0 
C 1658 40 1658 178 1619 218 
C 1229 218 1158 244 1158 779 
z
" id="LinLibertineT-69" transform="scale(0.015625)"/>
       <path d="M 608 778 
C 608 243 538 211 147 211 
C 109 172 109 39 147 0 
C 371 0 608 0 864 0 
C 1120 0 1363 0 1574 0 
C 1613 39 1613 172 1574 211 
C 1184 211 1114 243 1114 776 
L 1114 3740 
C 1114 4158 1139 4416 1139 4416 
C 1139 4460 1114 4480 1056 4480 
C 896 4414 416 4321 160 4301 
C 147 4247 160 4141 198 4101 
C 570 4101 608 4081 608 3597 
L 608 778 
z
" id="LinLibertineT-6c" transform="scale(0.015625)"/>
       <path d="M 275 2752 
C 186 2752 160 2675 160 2623 
L 160 2540 
C 160 2509 166 2502 192 2502 
L 570 2502 
L 570 571 
C 570 115 768 -64 1062 -64 
C 1357 -64 1677 77 1926 360 
C 1914 424 1875 463 1811 469 
C 1645 340 1453 289 1286 289 
C 1114 289 1075 481 1075 879 
L 1075 2502 
L 1741 2502 
C 1805 2502 1894 2528 1894 2586 
L 1894 2714 
C 1894 2740 1875 2752 1843 2752 
L 1075 2752 
L 1075 3006 
C 1075 3426 1101 3685 1101 3685 
C 1101 3725 1082 3744 1050 3744 
C 1024 3744 966 3718 909 3685 
C 838 3647 774 3614 691 3594 
C 614 3569 550 3549 550 3504 
C 550 3426 570 3471 570 2752 
L 275 2752 
z
" id="LinLibertineT-74" transform="scale(0.015625)"/>
       <path d="M 1306 -1010 
C 1408 -830 1491 -650 1568 -458 
C 2080 781 2368 1443 2701 2161 
C 2829 2432 2918 2534 3219 2573 
C 3258 2611 3258 2746 3219 2784 
C 3091 2784 2944 2784 2765 2784 
C 2573 2784 2374 2784 2182 2784 
C 2144 2746 2144 2611 2182 2573 
C 2387 2553 2592 2515 2490 2284 
L 1856 815 
C 1811 713 1754 693 1702 822 
L 1133 2156 
C 1018 2425 986 2547 1344 2573 
C 1382 2611 1382 2746 1344 2784 
C 1107 2784 851 2784 621 2784 
C 403 2784 230 2784 102 2784 
C 64 2746 64 2611 102 2573 
C 358 2541 442 2483 608 2091 
L 1331 402 
C 1389 274 1485 -21 1421 -201 
C 1344 -413 1267 -593 1171 -792 
C 1101 -920 1011 -978 851 -978 
C 762 -978 736 -959 666 -959 
C 480 -959 384 -1151 384 -1235 
C 384 -1369 512 -1472 685 -1472 
C 819 -1472 1075 -1421 1306 -1010 
z
" id="LinLibertineT-79" transform="scale(0.015625)"/>
       <path d="M 2208 795 
C 2208 673 2195 622 2106 545 
C 1869 340 1664 237 1504 237 
C 1158 237 800 616 800 1417 
C 800 1879 890 2136 986 2270 
C 1184 2572 1453 2591 1581 2591 
C 1811 2591 1971 2508 2099 2360 
C 2189 2258 2208 2213 2208 2014 
L 2208 795 
z
M 2138 321 
C 2170 346 2227 359 2234 314 
C 2253 160 2304 -64 2304 -64 
C 2355 -83 2387 -77 2426 -64 
C 2566 51 2790 148 3181 192 
C 3219 231 3219 327 3181 366 
C 2771 398 2714 520 2714 835 
L 2714 3741 
C 2714 4159 2739 4416 2739 4416 
C 2739 4460 2714 4480 2656 4480 
C 2496 4414 2016 4320 1760 4300 
C 1747 4246 1760 4140 1798 4100 
C 2131 4100 2208 4132 2208 3590 
L 2208 2765 
C 2208 2719 2195 2707 2150 2707 
C 2125 2707 1862 2816 1651 2816 
C 1229 2816 947 2674 691 2431 
C 416 2155 250 1777 250 1302 
C 250 513 646 -64 1338 -64 
C 1587 -64 1824 64 2138 321 
z
" id="LinLibertineT-64" transform="scale(0.015625)"/>
       <path d="M 794 1831 
C 915 2547 1363 2604 1517 2604 
C 1760 2604 2048 2467 2048 1922 
C 2048 1863 2022 1831 1952 1831 
L 794 1831 
z
M 2470 600 
C 2234 354 2048 250 1677 250 
C 1446 250 1178 386 979 715 
C 851 929 774 1226 774 1600 
L 2477 1600 
C 2554 1600 2598 1638 2598 1708 
C 2598 2243 2406 2816 1517 2816 
C 960 2816 237 2281 237 1302 
C 237 941 326 593 538 348 
C 755 91 1056 -64 1517 -64 
C 2003 -64 2349 161 2605 497 
C 2586 562 2547 594 2470 600 
z
" id="LinLibertineT-65" transform="scale(0.015625)"/>
       <path d="M 1178 2309 
C 1139 2264 1101 2251 1101 2309 
C 1094 2482 1082 2733 1050 2798 
C 1037 2830 1024 2849 973 2849 
C 794 2778 627 2721 186 2663 
C 173 2624 186 2522 198 2483 
C 544 2451 614 2419 614 2047 
L 614 795 
C 614 270 550 244 166 212 
C 128 173 128 39 166 0 
C 358 0 614 0 870 0 
C 1126 0 1318 0 1510 0 
C 1549 39 1549 173 1510 212 
C 1184 244 1120 270 1120 795 
L 1120 1848 
C 1120 1983 1178 2060 1229 2118 
C 1472 2355 1760 2496 2010 2496 
C 2138 2496 2272 2413 2349 2265 
C 2413 2137 2426 1964 2426 1771 
L 2426 795 
C 2426 270 2362 244 2029 212 
C 1997 173 1997 39 2029 0 
C 2221 0 2426 0 2682 0 
C 2938 0 3168 0 3360 0 
C 3392 39 3392 173 3360 212 
C 3002 244 2931 270 2931 795 
L 2931 1752 
C 2931 2105 2906 2413 2758 2612 
C 2650 2753 2451 2830 2227 2830 
C 1914 2830 1555 2746 1178 2309 
z
" id="LinLibertineT-6e" transform="scale(0.015625)"/>
       <path d="M 307 886 
C 333 572 352 269 352 0 
C 416 13 480 19 512 19 
C 557 19 595 19 640 6 
C 813 -38 986 -64 1222 -64 
C 1581 -64 2240 109 2240 744 
C 2240 1180 1926 1437 1491 1597 
C 1107 1745 851 1841 851 2193 
C 851 2456 1082 2604 1299 2604 
C 1440 2604 1811 2553 1894 2007 
C 1933 1969 2061 1969 2099 2008 
C 2118 2241 2131 2480 2138 2694 
C 1939 2726 1632 2816 1299 2816 
C 826 2816 397 2508 397 2097 
C 397 1629 608 1430 1101 1225 
C 1632 1007 1754 872 1754 596 
C 1754 282 1446 148 1210 148 
C 960 148 819 230 755 300 
C 614 447 544 727 506 885 
C 467 924 346 924 307 886 
z
" id="LinLibertineT-73" transform="scale(0.015625)"/>
      </defs>
      <use transform="scale(0.996264)" xlink:href="#LinLibertineT-50"/>
      <use transform="translate(53.897919 0)scale(0.996264)" xlink:href="#LinLibertineT-72"/>
      <use transform="translate(90.161847 0)scale(0.996264)" xlink:href="#LinLibertineT-6f"/>
      <use transform="translate(140.373517 0)scale(0.996264)" xlink:href="#LinLibertineT-62"/>
      <use transform="translate(189.489336 0)scale(0.996264)" xlink:href="#LinLibertineT-61"/>
      <use transform="translate(235.018567 0)scale(0.996264)" xlink:href="#LinLibertineT-62"/>
      <use transform="translate(284.134386 0)scale(0.996264)" xlink:href="#LinLibertineT-69"/>
      <use transform="translate(311.133132 0)scale(0.996264)" xlink:href="#LinLibertineT-6c"/>
      <use transform="translate(337.434496 0)scale(0.996264)" xlink:href="#LinLibertineT-69"/>
      <use transform="translate(364.433241 0)scale(0.996264)" xlink:href="#LinLibertineT-74"/>
      <use transform="translate(395.915175 0)scale(0.996264)" xlink:href="#LinLibertineT-79"/>
      <use transform="translate(472.129402 0)scale(0.996264)" xlink:href="#LinLibertineT-64"/>
      <use transform="translate(522.540306 0)scale(0.996264)" xlink:href="#LinLibertineT-65"/>
      <use transform="translate(567.073259 0)scale(0.996264)" xlink:href="#LinLibertineT-6e"/>
      <use transform="translate(621.07075 0)scale(0.996264)" xlink:href="#LinLibertineT-73"/>
      <use transform="translate(659.925076 0)scale(0.996264)" xlink:href="#LinLibertineT-69"/>
      <use transform="translate(686.923822 0)scale(0.996264)" xlink:href="#LinLibertineT-74"/>
      <use transform="translate(718.405756 0)scale(0.996264)" xlink:href="#LinLibertineT-79"/>
     </g>
    </g>
   </g>
   <g id="line2d_9">
    <path clip-path="url(#pee2758b814)" d="M 56.758698 152.714487 
L 59.86341 152.714487 
L 62.968117 152.714487 
L 66.072824 152.714487 
L 69.177532 152.714487 
L 72.282239 152.714487 
L 75.386951 152.714487 
L 78.491663 152.714487 
L 81.59637 152.714487 
L 84.701078 152.714487 
L 87.805785 152.714487 
L 90.910492 152.714487 
L 94.015204 152.714487 
L 97.119914 152.714487 
L 100.224623 152.714487 
L 103.329328 152.714487 
L 106.434038 152.714487 
L 109.538745 152.714487 
L 112.643457 152.714487 
L 115.748169 152.714487 
L 118.852877 152.714487 
L 121.957579 152.714487 
L 125.062291 152.714487 
L 128.167003 152.714487 
L 131.27171 152.714487 
L 134.376418 152.714487 
L 137.48113 152.714487 
L 140.585837 152.714487 
L 143.690544 152.714487 
L 146.795252 152.714487 
L 149.899964 152.714487 
L 153.004676 152.714487 
L 156.109378 152.714487 
L 159.214086 152.714487 
L 162.318793 152.714487 
L 165.423509 152.714487 
L 168.528217 152.714486 
L 171.632924 152.714485 
L 174.737636 152.714483 
L 177.842343 152.714476 
L 180.947051 152.71446 
L 184.051758 152.714423 
L 187.156465 152.714336 
L 190.261182 152.714141 
L 193.365885 152.713714 
L 196.470592 152.712807 
L 199.575309 152.710927 
L 202.680016 152.707137 
L 205.784723 152.699706 
L 208.889431 152.685527 
L 211.994138 152.659208 
L 215.09885 152.611692 
L 218.203553 152.528262 
L 221.308264 152.385814 
L 224.412976 152.14936 
L 227.517688 151.76785 
L 230.622391 151.16967 
L 233.727094 150.258495 
L 236.831806 148.910545 
L 239.936518 146.974683 
L 243.04123 144.276939 
L 246.145932 140.631018 
L 249.250653 135.85579 
L 252.355356 129.799904 
L 255.460059 122.37164 
L 258.564771 113.571206 
L 261.669474 103.52025 
L 264.774186 92.482417 
L 267.878888 80.86933 
L 270.983619 69.226485 
L 274.088321 58.198252 
L 277.193024 48.471929 
L 280.297736 40.708757 
L 283.402439 35.47022 
L 286.507151 33.150782 
L 289.611853 33.928984 
L 292.716584 37.744703 
L 295.821277 44.306683 
L 298.925989 53.129576 
L 302.030701 63.592929 
L 305.135413 75.013168 
L 308.240107 86.71649 
L 311.344818 98.102376 
L 314.44953 108.689066 
L 317.554224 118.13847 
L 320.658954 126.259868 
L 323.763666 132.995481 
L 326.86836 138.39506 
L 329.973072 142.584199 
L 333.077784 145.73258 
L 336.182495 148.026538 
L 339.287189 149.647945 
L 342.391919 150.760287 
L 345.496631 151.501247 
L 348.601325 151.98068 
L 351.706037 152.2821 
L 354.810749 152.466277 
L 357.915461 152.575677 
L 361.020154 152.638859 
L 364.124866 152.674345 
" style="fill:none;stroke:#c8e020;stroke-linecap:square;stroke-opacity:0.5;stroke-width:3;"/>
   </g>
   <g id="line2d_10">
    <path clip-path="url(#pee2758b814)" d="M 56.758698 152.710473 
L 59.86341 152.706924 
L 62.968117 152.700606 
L 66.072824 152.689666 
L 69.177532 152.671248 
L 72.282239 152.641106 
L 75.386951 152.593163 
L 78.491663 152.519066 
L 81.59637 152.407833 
L 84.701078 152.245692 
L 87.805785 152.016296 
L 90.910492 151.701458 
L 94.015204 151.282544 
L 97.119914 150.742583 
L 100.224623 150.069022 
L 103.329328 149.256888 
L 106.434038 148.311943 
L 109.538745 147.253276 
L 112.643457 146.114687 
L 115.748169 144.944347 
L 118.852877 143.802326 
L 121.957579 142.755994 
L 125.062291 141.873705 
L 128.167003 141.217504 
L 131.27171 140.835937 
L 134.376418 140.758116 
L 137.48113 140.99006 
L 140.585837 141.513915 
L 143.690544 142.290232 
L 146.795252 143.262867 
L 149.899964 144.365693 
L 153.004676 145.529971 
L 156.109378 146.69128 
L 159.214086 147.795061 
L 162.318793 148.800159 
L 165.423509 149.680203 
L 168.528217 150.42303 
L 171.632924 151.028618 
L 174.737636 151.506137 
L 177.842343 151.870723 
L 180.947051 152.140483 
L 184.051758 152.334035 
L 187.156465 152.468752 
L 190.261182 152.559694 
L 193.365885 152.619128 
L 196.470592 152.656462 
L 199.575309 152.678415 
L 202.680016 152.68925 
L 205.784723 152.690905 
L 208.889431 152.682895 
L 211.994138 152.66184 
L 215.09885 152.620494 
L 218.203553 152.546149 
L 221.308264 152.418325 
L 224.412976 152.205705 
L 227.517688 151.862436 
L 230.622391 151.324117 
L 233.727094 150.504079 
L 236.831806 149.290932 
L 239.936518 147.548661 
L 243.04123 145.120693 
L 246.145932 141.839366 
L 249.250653 137.54166 
L 252.355356 132.091362 
L 255.460059 125.405926 
L 258.564771 117.485536 
L 261.669474 108.439674 
L 264.774186 98.505624 
L 267.878888 88.053847 
L 270.983619 77.575284 
L 274.088321 67.649878 
L 277.193024 58.896191 
L 280.297736 51.909335 
L 283.402439 47.194647 
L 286.507151 45.107152 
L 289.611853 45.80754 
L 292.716584 49.241684 
L 295.821277 55.147462 
L 298.925989 63.088066 
L 302.030701 72.505088 
L 305.135413 82.783303 
L 308.240107 93.316292 
L 311.344818 103.563586 
L 314.44953 113.09161 
L 317.554224 121.596072 
L 320.658954 128.90533 
L 323.763666 134.967382 
L 326.86836 139.827004 
L 329.973072 143.597228 
L 333.077784 146.430771 
L 336.182495 148.495333 
L 339.287189 149.954599 
L 342.391919 150.955707 
L 345.496631 151.622571 
L 348.601325 152.05406 
L 351.706037 152.325339 
L 354.810749 152.491098 
L 357.915461 152.589558 
L 361.020154 152.646422 
L 364.124866 152.678359 
" style="fill:none;stroke:#90d743;stroke-linecap:square;stroke-opacity:0.5;stroke-width:3;"/>
   </g>
   <g id="line2d_11">
    <path clip-path="url(#pee2758b814)" d="M 56.758698 152.706459 
L 59.86341 152.699361 
L 62.968117 152.686725 
L 66.072824 152.664845 
L 69.177532 152.628009 
L 72.282239 152.567725 
L 75.386951 152.471838 
L 78.491663 152.323646 
L 81.59637 152.101179 
L 84.701078 151.776896 
L 87.805785 151.318104 
L 90.910492 150.688429 
L 94.015204 149.850601 
L 97.119914 148.77068 
L 100.224623 147.423557 
L 103.329328 145.79929 
L 106.434038 143.909399 
L 109.538745 141.792064 
L 112.643457 139.514887 
L 115.748169 137.174208 
L 118.852877 134.890165 
L 121.957579 132.797502 
L 125.062291 131.032923 
L 128.167003 129.72052 
L 131.27171 128.957387 
L 134.376418 128.801746 
L 137.48113 129.265634 
L 140.585837 130.313344 
L 143.690544 131.865976 
L 146.795252 133.811248 
L 149.899964 136.016898 
L 153.004676 138.345455 
L 156.109378 140.668073 
L 159.214086 142.875635 
L 162.318793 144.88583 
L 165.423509 146.64592 
L 168.528217 148.131573 
L 171.632924 149.342751 
L 174.737636 150.297791 
L 177.842343 151.02697 
L 180.947051 151.566506 
L 184.051758 151.953647 
L 187.156465 152.223167 
L 190.261182 152.405247 
L 193.365885 152.524542 
L 196.470592 152.600118 
L 199.575309 152.645904 
L 202.680016 152.671362 
L 205.784723 152.682103 
L 208.889431 152.680263 
L 211.994138 152.664472 
L 215.09885 152.629295 
L 218.203553 152.564037 
L 221.308264 152.450836 
L 224.412976 152.26205 
L 227.517688 151.957023 
L 230.622391 151.478564 
L 233.727094 150.749663 
L 236.831806 149.67132 
L 239.936518 148.122639 
L 243.04123 145.964447 
L 246.145932 143.047711 
L 249.250653 139.227529 
L 252.355356 134.38282 
L 255.460059 128.440208 
L 258.564771 121.399861 
L 261.669474 113.359094 
L 264.774186 104.528831 
L 267.878888 95.23836 
L 270.983619 85.924084 
L 274.088321 77.101494 
L 277.193024 69.320435 
L 280.297736 63.109905 
L 283.402439 58.919075 
L 286.507151 57.063523 
L 289.611853 57.686087 
L 292.716584 60.738656 
L 295.821277 65.988242 
L 298.925989 73.046557 
L 302.030701 81.417239 
L 305.135413 90.55343 
L 308.240107 99.916089 
L 311.344818 109.024797 
L 314.44953 117.494151 
L 317.554224 125.053672 
L 320.658954 131.55079 
L 323.763666 136.939282 
L 326.86836 141.258945 
L 329.973072 144.610257 
L 333.077784 147.128961 
L 336.182495 148.964128 
L 339.287189 150.261253 
L 342.391919 151.151127 
L 345.496631 151.743895 
L 348.601325 152.127441 
L 351.706037 152.368578 
L 354.810749 152.515919 
L 357.915461 152.603439 
L 361.020154 152.653984 
L 364.124866 152.682373 
" style="fill:none;stroke:#5cc863;stroke-linecap:square;stroke-opacity:0.5;stroke-width:3;"/>
   </g>
   <g id="line2d_12">
    <path clip-path="url(#pee2758b814)" d="M 56.758698 152.702444 
L 59.86341 152.691798 
L 62.968117 152.672844 
L 66.072824 152.640024 
L 69.177532 152.584771 
L 72.282239 152.494345 
L 75.386951 152.350514 
L 78.491663 152.128225 
L 81.59637 151.794525 
L 84.701078 151.308101 
L 87.805785 150.619913 
L 90.910492 149.675401 
L 94.015204 148.418659 
L 97.119914 146.798776 
L 100.224623 144.778091 
L 103.329328 142.341692 
L 106.434038 139.506854 
L 109.538745 136.330853 
L 112.643457 132.915087 
L 115.748169 129.404069 
L 118.852877 125.978002 
L 121.957579 122.83901 
L 125.062291 120.192142 
L 128.167003 118.223537 
L 131.27171 117.078836 
L 134.376418 116.845373 
L 137.48113 117.541208 
L 140.585837 119.112772 
L 143.690544 121.441721 
L 146.795252 124.359627 
L 149.899964 127.668105 
L 153.004676 131.160938 
L 156.109378 134.644865 
L 159.214086 137.95621 
L 162.318793 140.971502 
L 165.423509 143.611636 
L 168.528217 145.840116 
L 171.632924 147.656884 
L 174.737636 149.089445 
L 177.842343 150.183217 
L 180.947051 150.992529 
L 184.051758 151.573259 
L 187.156465 151.977583 
L 190.261182 152.2508 
L 193.365885 152.429955 
L 196.470592 152.543773 
L 199.575309 152.613393 
L 202.680016 152.653475 
L 205.784723 152.673302 
L 208.889431 152.677631 
L 211.994138 152.667104 
L 215.09885 152.638096 
L 218.203553 152.581924 
L 221.308264 152.483348 
L 224.412976 152.318394 
L 227.517688 152.051609 
L 230.622391 151.633011 
L 233.727094 150.995247 
L 236.831806 150.051708 
L 239.936518 148.696616 
L 243.04123 146.8082 
L 246.145932 144.256058 
L 249.250653 140.9134 
L 252.355356 136.674279 
L 255.460059 131.474495 
L 258.564771 125.314191 
L 261.669474 118.278521 
L 264.774186 110.552038 
L 267.878888 102.422877 
L 270.983619 94.272887 
L 274.088321 86.553124 
L 277.193024 79.744697 
L 280.297736 74.310474 
L 283.402439 70.643502 
L 286.507151 69.019893 
L 289.611853 69.564633 
L 292.716584 72.235637 
L 295.821277 76.829021 
L 298.925989 83.005051 
L 302.030701 90.329398 
L 305.135413 98.323565 
L 308.240107 106.51589 
L 311.344818 114.486011 
L 314.44953 121.896692 
L 317.554224 128.511276 
L 320.658954 134.196254 
L 323.763666 138.911183 
L 326.86836 142.690889 
L 329.973072 145.623286 
L 333.077784 147.827153 
L 336.182495 149.432923 
L 339.287189 150.567908 
L 342.391919 151.346547 
L 345.496631 151.865219 
L 348.601325 152.200822 
L 351.706037 152.411816 
L 354.810749 152.54074 
L 357.915461 152.61732 
L 361.020154 152.661547 
L 364.124866 152.686388 
" style="fill:none;stroke:#35b779;stroke-linecap:square;stroke-opacity:0.5;stroke-width:3;"/>
   </g>
   <g id="line2d_13">
    <path clip-path="url(#pee2758b814)" d="M 56.758698 152.69843 
L 59.86341 152.684236 
L 62.968117 152.658963 
L 66.072824 152.615203 
L 69.177532 152.541532 
L 72.282239 152.420964 
L 75.386951 152.22919 
L 78.491663 151.932805 
L 81.59637 151.487871 
L 84.701078 150.839306 
L 87.805785 149.921722 
L 90.910492 148.662372 
L 94.015204 146.986716 
L 97.119914 144.826873 
L 100.224623 142.132626 
L 103.329328 138.884093 
L 106.434038 135.104311 
L 109.538745 130.869642 
L 112.643457 126.315288 
L 115.748169 121.633929 
L 118.852877 117.065843 
L 121.957579 112.880517 
L 125.062291 109.35136 
L 128.167003 106.726553 
L 131.27171 105.200287 
L 134.376418 104.889005 
L 137.48113 105.816781 
L 140.585837 107.9122 
L 143.690544 111.017465 
L 146.795252 114.908008 
L 149.899964 119.31931 
L 153.004676 123.976423 
L 156.109378 128.621659 
L 159.214086 133.036784 
L 162.318793 137.057174 
L 165.423509 140.577353 
L 168.528217 143.548659 
L 171.632924 145.971017 
L 174.737636 147.881099 
L 177.842343 149.339464 
L 180.947051 150.418552 
L 184.051758 151.192871 
L 187.156465 151.731999 
L 190.261182 152.096353 
L 193.365885 152.335369 
L 196.470592 152.487428 
L 199.575309 152.580882 
L 202.680016 152.635587 
L 205.784723 152.6645 
L 208.889431 152.674999 
L 211.994138 152.669736 
L 215.09885 152.646898 
L 218.203553 152.599812 
L 221.308264 152.515859 
L 224.412976 152.374739 
L 227.517688 152.146195 
L 230.622391 151.787458 
L 233.727094 151.240831 
L 236.831806 150.432096 
L 239.936518 149.270594 
L 243.04123 147.651953 
L 246.145932 145.464404 
L 249.250653 142.599267 
L 252.355356 138.965737 
L 255.460059 134.508778 
L 258.564771 129.228516 
L 261.669474 123.197944 
L 264.774186 116.575242 
L 267.878888 109.607389 
L 270.983619 102.621682 
L 274.088321 96.004744 
L 277.193024 90.16895 
L 280.297736 85.511048 
L 283.402439 82.367926 
L 286.507151 80.976259 
L 289.611853 81.443184 
L 292.716584 83.732614 
L 295.821277 87.669801 
L 298.925989 92.963537 
L 302.030701 99.241549 
L 305.135413 106.093692 
L 308.240107 113.115687 
L 311.344818 119.947219 
L 314.44953 126.299233 
L 317.554224 131.968876 
L 320.658954 136.841715 
L 323.763666 140.883083 
L 326.86836 144.122831 
L 329.973072 146.636314 
L 333.077784 148.525343 
L 336.182495 149.901717 
L 339.287189 150.874562 
L 342.391919 151.541967 
L 345.496631 151.986543 
L 348.601325 152.274203 
L 351.706037 152.455055 
L 354.810749 152.565561 
L 357.915461 152.631201 
L 361.020154 152.66911 
L 364.124866 152.690402 
" style="fill:none;stroke:#20a486;stroke-linecap:square;stroke-opacity:0.5;stroke-width:3;"/>
   </g>
   <g id="line2d_14">
    <path clip-path="url(#pee2758b814)" d="M 56.758698 152.694416 
L 59.86341 152.676673 
L 62.968117 152.645082 
L 66.072824 152.590382 
L 69.177532 152.498293 
L 72.282239 152.347583 
L 75.386951 152.107865 
L 78.491663 151.737384 
L 81.59637 151.181217 
L 84.701078 150.37051 
L 87.805785 149.22353 
L 90.910492 147.649343 
L 94.015204 145.554774 
L 97.119914 142.854969 
L 100.224623 139.487162 
L 103.329328 135.426495 
L 106.434038 130.701768 
L 109.538745 125.408432 
L 112.643457 119.715489 
L 115.748169 113.863792 
L 118.852877 108.153681 
L 121.957579 102.922027 
L 125.062291 98.51058 
L 128.167003 95.229572 
L 131.27171 93.321736 
L 134.376418 92.932634 
L 137.48113 94.092358 
L 140.585837 96.711631 
L 143.690544 100.593212 
L 146.795252 105.456388 
L 149.899964 110.970517 
L 153.004676 116.791908 
L 156.109378 122.598452 
L 159.214086 128.117359 
L 162.318793 133.142846 
L 165.423509 137.54307 
L 168.528217 141.257203 
L 171.632924 144.28515 
L 174.737636 146.672753 
L 177.842343 148.495712 
L 180.947051 149.844575 
L 184.051758 150.812484 
L 187.156465 151.486414 
L 190.261182 151.941907 
L 193.365885 152.240783 
L 196.470592 152.431084 
L 199.575309 152.548371 
L 202.680016 152.617699 
L 205.784723 152.655699 
L 208.889431 152.672367 
L 211.994138 152.672367 
L 215.09885 152.655699 
L 218.203553 152.617699 
L 221.308264 152.54837 
L 224.412976 152.431084 
L 227.517688 152.240782 
L 230.622391 151.941905 
L 233.727094 151.486415 
L 236.831806 150.812484 
L 239.936518 149.844572 
L 243.04123 148.495708 
L 246.145932 146.67275 
L 249.250653 144.285138 
L 252.355356 141.257195 
L 255.460059 137.543063 
L 258.564771 133.142846 
L 261.669474 128.117368 
L 264.774186 122.598452 
L 267.878888 116.791908 
L 270.983619 110.970486 
L 274.088321 105.45637 
L 277.193024 100.593208 
L 280.297736 96.711622 
L 283.402439 94.092353 
L 286.507151 92.932634 
L 289.611853 93.321736 
L 292.716584 95.229595 
L 295.821277 98.510585 
L 298.925989 102.922032 
L 302.030701 108.153708 
L 305.135413 113.863827 
L 308.240107 119.715489 
L 311.344818 125.408432 
L 314.44953 130.701777 
L 317.554224 135.426478 
L 320.658954 139.487177 
L 323.763666 142.854984 
L 326.86836 145.554774 
L 329.973072 147.649343 
L 333.077784 149.223534 
L 336.182495 150.370512 
L 339.287189 151.181216 
L 342.391919 151.737387 
L 345.496631 152.107867 
L 348.601325 152.347583 
L 351.706037 152.498294 
L 354.810749 152.590382 
L 357.915461 152.645082 
L 361.020154 152.676673 
L 364.124866 152.694416 
" style="fill:none;stroke:#21908d;stroke-linecap:square;stroke-opacity:0.5;stroke-width:3;"/>
   </g>
   <g id="line2d_15">
    <path clip-path="url(#pee2758b814)" d="M 56.758698 152.690402 
L 59.86341 152.66911 
L 62.968117 152.6312 
L 66.072824 152.565561 
L 69.177532 152.455055 
L 72.282239 152.274203 
L 75.386951 151.986541 
L 78.491663 151.541963 
L 81.59637 150.874563 
L 84.701078 149.901715 
L 87.805785 148.525339 
L 90.910492 146.636314 
L 94.015204 144.122831 
L 97.119914 140.883065 
L 100.224623 136.841696 
L 103.329328 131.968896 
L 106.434038 126.299222 
L 109.538745 119.947219 
L 112.643457 113.115687 
L 115.748169 106.093652 
L 118.852877 99.241517 
L 121.957579 92.963532 
L 125.062291 87.669796 
L 128.167003 83.732587 
L 131.27171 81.443184 
L 134.376418 80.976259 
L 137.48113 82.36793 
L 140.585837 85.511057 
L 143.690544 90.168955 
L 146.795252 96.004767 
L 149.899964 102.621722 
L 153.004676 109.607389 
L 156.109378 116.575242 
L 159.214086 123.197932 
L 162.318793 129.228516 
L 165.423509 134.508786 
L 168.528217 138.965746 
L 171.632924 142.599282 
L 174.737636 145.464407 
L 177.842343 147.651958 
L 180.947051 149.270597 
L 184.051758 150.432096 
L 187.156465 151.24083 
L 190.261182 151.78746 
L 193.365885 152.146196 
L 196.470592 152.374739 
L 199.575309 152.515859 
L 202.680016 152.599812 
L 205.784723 152.646898 
L 208.889431 152.669736 
L 211.994138 152.674999 
L 215.09885 152.6645 
L 218.203553 152.635587 
L 221.308264 152.580882 
L 224.412976 152.487428 
L 227.517688 152.335369 
L 230.622391 152.096353 
L 233.727094 151.731999 
L 236.831806 151.192871 
L 239.936518 150.41855 
L 243.04123 149.339462 
L 246.145932 147.881097 
L 249.250653 145.971007 
L 252.355356 143.548654 
L 255.460059 140.577349 
L 258.564771 137.057175 
L 261.669474 133.036793 
L 264.774186 128.621661 
L 267.878888 123.976425 
L 270.983619 119.319287 
L 274.088321 114.907995 
L 277.193024 111.017465 
L 280.297736 107.912196 
L 283.402439 105.816781 
L 286.507151 104.889009 
L 289.611853 105.200287 
L 292.716584 106.726576 
L 295.821277 109.351369 
L 298.925989 112.880526 
L 302.030701 117.065865 
L 305.135413 121.633961 
L 308.240107 126.31529 
L 311.344818 130.869644 
L 314.44953 135.10432 
L 317.554224 138.884081 
L 320.658954 142.13264 
L 323.763666 144.826885 
L 326.86836 146.986717 
L 329.973072 148.662372 
L 333.077784 149.921724 
L 336.182495 150.839307 
L 339.287189 151.48787 
L 342.391919 151.932807 
L 345.496631 152.229191 
L 348.601325 152.420964 
L 351.706037 152.541532 
L 354.810749 152.615203 
L 357.915461 152.658963 
L 361.020154 152.684236 
L 364.124866 152.69843 
" style="fill:none;stroke:#287c8e;stroke-linecap:square;stroke-opacity:0.5;stroke-width:3;"/>
   </g>
   <g id="line2d_16">
    <path clip-path="url(#pee2758b814)" d="M 56.758698 152.686388 
L 59.86341 152.661547 
L 62.968117 152.617319 
L 66.072824 152.54074 
L 69.177532 152.411816 
L 72.282239 152.200822 
L 75.386951 151.865217 
L 78.491663 151.346543 
L 81.59637 150.567909 
L 84.701078 149.43292 
L 87.805785 147.827147 
L 90.910492 145.623286 
L 94.015204 142.690889 
L 97.119914 138.911163 
L 100.224623 134.196231 
L 103.329328 128.511299 
L 106.434038 121.896681 
L 109.538745 114.486011 
L 112.643457 106.51589 
L 115.748169 98.323516 
L 118.852877 90.329358 
L 121.957579 83.005042 
L 125.062291 76.829021 
L 128.167003 72.23561 
L 131.27171 69.564633 
L 134.376418 69.019893 
L 137.48113 70.643511 
L 140.585837 74.310492 
L 143.690544 79.744701 
L 146.795252 86.553151 
L 149.899964 94.272932 
L 153.004676 102.422877 
L 156.109378 110.552038 
L 159.214086 118.278508 
L 162.318793 125.314191 
L 165.423509 131.474504 
L 168.528217 136.67429 
L 171.632924 140.913417 
L 174.737636 144.256062 
L 177.842343 146.808206 
L 180.947051 148.69662 
L 184.051758 150.051708 
L 187.156465 150.995245 
L 190.261182 151.633013 
L 193.365885 152.05161 
L 196.470592 152.318395 
L 199.575309 152.483348 
L 202.680016 152.581924 
L 205.784723 152.638096 
L 208.889431 152.667104 
L 211.994138 152.677631 
L 215.09885 152.673302 
L 218.203553 152.653475 
L 221.308264 152.613393 
L 224.412976 152.543773 
L 227.517688 152.429955 
L 230.622391 152.2508 
L 233.727094 151.977584 
L 236.831806 151.573259 
L 239.936518 150.992527 
L 243.04123 150.183215 
L 246.145932 149.089443 
L 249.250653 147.656877 
L 252.355356 145.840111 
L 255.460059 143.611632 
L 258.564771 140.971502 
L 261.669474 137.956215 
L 264.774186 134.644865 
L 267.878888 131.160938 
L 270.983619 127.668085 
L 274.088321 124.359616 
L 277.193024 121.441719 
L 280.297736 119.112767 
L 283.402439 117.541206 
L 286.507151 116.845373 
L 289.611853 117.078836 
L 292.716584 118.22355 
L 295.821277 120.192144 
L 298.925989 122.839012 
L 302.030701 125.978018 
L 305.135413 129.404089 
L 308.240107 132.915087 
L 311.344818 136.330853 
L 314.44953 139.50686 
L 317.554224 142.341682 
L 320.658954 144.778101 
L 323.763666 146.798785 
L 326.86836 148.418659 
L 329.973072 149.675401 
L 333.077784 150.619915 
L 336.182495 151.308102 
L 339.287189 151.794524 
L 342.391919 152.128227 
L 345.496631 152.350515 
L 348.601325 152.494345 
L 351.706037 152.584771 
L 354.810749 152.640024 
L 357.915461 152.672844 
L 361.020154 152.691798 
L 364.124866 152.702444 
" style="fill:none;stroke:#31688e;stroke-linecap:square;stroke-opacity:0.5;stroke-width:3;"/>
   </g>
   <g id="line2d_17">
    <path clip-path="url(#pee2758b814)" d="M 56.758698 152.682373 
L 59.86341 152.653984 
L 62.968117 152.603438 
L 66.072824 152.515919 
L 69.177532 152.368577 
L 72.282239 152.127441 
L 75.386951 151.743892 
L 78.491663 151.151122 
L 81.59637 150.261255 
L 84.701078 148.964124 
L 87.805785 147.128956 
L 90.910492 144.610257 
L 94.015204 141.258945 
L 97.119914 136.939258 
L 100.224623 131.550766 
L 103.329328 125.053699 
L 106.434038 117.494135 
L 109.538745 109.024797 
L 112.643457 99.916089 
L 115.748169 90.553372 
L 118.852877 81.417199 
L 121.957579 73.046548 
L 125.062291 65.988233 
L 128.167003 60.73862 
L 131.27171 57.686087 
L 134.376418 57.063523 
L 137.48113 58.919075 
L 140.585837 63.109913 
L 143.690544 69.320444 
L 146.795252 77.10153 
L 149.899964 85.924133 
L 153.004676 95.23836 
L 156.109378 104.528831 
L 159.214086 113.359081 
L 162.318793 121.399861 
L 165.423509 128.44022 
L 168.528217 134.382833 
L 171.632924 139.227549 
L 174.737636 143.047715 
L 177.842343 145.964453 
L 180.947051 148.122643 
L 184.051758 149.67132 
L 187.156465 150.749661 
L 190.261182 151.478566 
L 193.365885 151.957024 
L 196.470592 152.26205 
L 199.575309 152.450837 
L 202.680016 152.564037 
L 205.784723 152.629295 
L 208.889431 152.664472 
L 211.994138 152.680263 
L 215.09885 152.682103 
L 218.203553 152.671362 
L 221.308264 152.645904 
L 224.412976 152.600117 
L 227.517688 152.524541 
L 230.622391 152.405247 
L 233.727094 152.223168 
L 236.831806 151.953647 
L 239.936518 151.566505 
L 243.04123 151.026969 
L 246.145932 150.29779 
L 249.250653 149.342746 
L 252.355356 148.13157 
L 255.460059 146.645918 
L 258.564771 144.885831 
L 261.669474 142.87564 
L 264.774186 140.668074 
L 267.878888 138.345456 
L 270.983619 136.016887 
L 274.088321 133.811241 
L 277.193024 131.865976 
L 280.297736 130.313341 
L 283.402439 129.265634 
L 286.507151 128.801748 
L 289.611853 128.957387 
L 292.716584 129.720531 
L 295.821277 131.032928 
L 298.925989 132.797507 
L 302.030701 134.890176 
L 305.135413 137.174224 
L 308.240107 139.514888 
L 311.344818 141.792065 
L 314.44953 143.909403 
L 317.554224 145.799284 
L 320.658954 147.423563 
L 323.763666 148.770686 
L 326.86836 149.850602 
L 329.973072 150.68843 
L 333.077784 151.318106 
L 336.182495 151.776897 
L 339.287189 152.101179 
L 342.391919 152.323647 
L 345.496631 152.471839 
L 348.601325 152.567725 
L 351.706037 152.62801 
L 354.810749 152.664845 
L 357.915461 152.686725 
L 361.020154 152.699361 
L 364.124866 152.706459 
" style="fill:none;stroke:#3b518b;stroke-linecap:square;stroke-opacity:0.5;stroke-width:3;"/>
   </g>
   <g id="line2d_18">
    <path clip-path="url(#pee2758b814)" d="M 56.758698 152.678359 
L 59.86341 152.646422 
L 62.968117 152.589557 
L 66.072824 152.491098 
L 69.177532 152.325339 
L 72.282239 152.05406 
L 75.386951 151.622568 
L 78.491663 150.955702 
L 81.59637 149.9546 
L 84.701078 148.495329 
L 87.805785 146.430765 
L 90.910492 143.597228 
L 94.015204 139.827003 
L 97.119914 134.967355 
L 100.224623 128.905301 
L 103.329328 121.596101 
L 106.434038 113.091592 
L 109.538745 103.563586 
L 112.643457 93.316287 
L 115.748169 82.783232 
L 118.852877 72.505035 
L 121.957579 63.088057 
L 125.062291 55.147453 
L 128.167003 49.241639 
L 131.27171 45.807531 
L 134.376418 45.107152 
L 137.48113 47.194647 
L 140.585837 51.909344 
L 143.690544 58.896191 
L 146.795252 67.649905 
L 149.899964 77.575338 
L 153.004676 88.053842 
L 156.109378 98.505624 
L 159.214086 108.439656 
L 162.318793 117.485534 
L 165.423509 125.405935 
L 168.528217 132.091376 
L 171.632924 137.541681 
L 174.737636 141.83937 
L 177.842343 145.120699 
L 180.947051 147.548666 
L 184.051758 149.290932 
L 187.156465 150.504077 
L 190.261182 151.324119 
L 193.365885 151.862437 
L 196.470592 152.205705 
L 199.575309 152.418326 
L 202.680016 152.546149 
L 205.784723 152.620494 
L 208.889431 152.66184 
L 211.994138 152.682895 
L 215.09885 152.690905 
L 218.203553 152.68925 
L 221.308264 152.678415 
L 224.412976 152.656462 
L 227.517688 152.619128 
L 230.622391 152.559694 
L 233.727094 152.468752 
L 236.831806 152.334035 
L 239.936518 152.140483 
L 243.04123 151.870723 
L 246.145932 151.506137 
L 249.250653 151.028616 
L 252.355356 150.423029 
L 255.460059 149.680203 
L 258.564771 148.80016 
L 261.669474 147.795065 
L 264.774186 146.691282 
L 267.878888 145.529974 
L 270.983619 144.36569 
L 274.088321 143.262867 
L 277.193024 142.290235 
L 280.297736 141.513917 
L 283.402439 140.990065 
L 286.507151 140.758121 
L 289.611853 140.835941 
L 292.716584 141.217512 
L 295.821277 141.873711 
L 298.925989 142.755999 
L 302.030701 143.802334 
L 305.135413 144.944358 
L 308.240107 146.114689 
L 311.344818 147.253278 
L 314.44953 148.311946 
L 317.554224 149.256886 
L 320.658954 150.069026 
L 323.763666 150.742587 
L 326.86836 151.282545 
L 329.973072 151.701458 
L 333.077784 152.016296 
L 336.182495 152.245692 
L 339.287189 152.407833 
L 342.391919 152.519067 
L 345.496631 152.593163 
L 348.601325 152.641106 
L 351.706037 152.671248 
L 354.810749 152.689666 
L 357.915461 152.700606 
L 361.020154 152.706924 
L 364.124866 152.710473 
" style="fill:none;stroke:#443983;stroke-linecap:square;stroke-opacity:0.5;stroke-width:3;"/>
   </g>
   <g id="line2d_19">
    <path clip-path="url(#pee2758b814)" d="M 56.758698 152.674345 
L 59.86341 152.638859 
L 62.968117 152.575676 
L 66.072824 152.466277 
L 69.177532 152.2821 
L 72.282239 151.98068 
L 75.386951 151.501243 
L 78.491663 150.760281 
L 81.59637 149.647946 
L 84.701078 148.026534 
L 87.805785 145.732573 
L 90.910492 142.584199 
L 94.015204 138.39506 
L 97.119914 132.995452 
L 100.224623 126.259836 
L 103.329328 118.138504 
L 106.434038 108.689048 
L 109.538745 98.102376 
L 112.643457 86.71649 
L 115.748169 75.013096 
L 118.852877 63.592875 
L 121.957579 53.129567 
L 125.062291 44.306674 
L 128.167003 37.744658 
L 131.27171 33.928984 
L 134.376418 33.150782 
L 137.48113 35.470229 
L 140.585837 40.708775 
L 143.690544 48.471938 
L 146.795252 58.198288 
L 149.899964 69.226548 
L 153.004676 80.86933 
L 156.109378 92.482417 
L 159.214086 103.520232 
L 162.318793 113.571206 
L 165.423509 122.371653 
L 168.528217 129.79992 
L 171.632924 135.855815 
L 174.737636 140.631024 
L 177.842343 144.276947 
L 180.947051 146.974689 
L 184.051758 148.910545 
L 187.156465 150.258492 
L 190.261182 151.169672 
L 193.365885 151.767851 
L 196.470592 152.149361 
L 199.575309 152.385814 
L 202.680016 152.528262 
L 205.784723 152.611692 
L 208.889431 152.659208 
L 211.994138 152.685527 
L 215.09885 152.699706 
L 218.203553 152.707137 
L 221.308264 152.710927 
L 224.412976 152.712807 
L 227.517688 152.713714 
L 230.622391 152.714141 
L 233.727094 152.714336 
L 236.831806 152.714423 
L 239.936518 152.71446 
L 243.04123 152.714476 
L 246.145932 152.714483 
L 249.250653 152.714485 
L 252.355356 152.714486 
L 255.460059 152.714487 
L 258.564771 152.714487 
L 261.669474 152.714487 
L 264.774186 152.714487 
L 267.878888 152.714487 
L 270.983619 152.714487 
L 274.088321 152.714487 
L 277.193024 152.714487 
L 280.297736 152.714487 
L 283.402439 152.714487 
L 286.507151 152.714487 
L 289.611853 152.714487 
L 292.716584 152.714487 
L 295.821277 152.714487 
L 298.925989 152.714487 
L 302.030701 152.714487 
L 305.135413 152.714487 
L 308.240107 152.714487 
L 311.344818 152.714487 
L 314.44953 152.714487 
L 317.554224 152.714487 
L 320.658954 152.714487 
L 323.763666 152.714487 
L 326.86836 152.714487 
L 329.973072 152.714487 
L 333.077784 152.714487 
L 336.182495 152.714487 
L 339.287189 152.714487 
L 342.391919 152.714487 
L 345.496631 152.714487 
L 348.601325 152.714487 
L 351.706037 152.714487 
L 354.810749 152.714487 
L 357.915461 152.714487 
L 361.020154 152.714487 
L 364.124866 152.714487 
" style="fill:none;stroke:#481f70;stroke-linecap:square;stroke-opacity:0.5;stroke-width:3;"/>
   </g>
   <g id="patch_3">
    <path d="M 56.758698 158.692672 
L 56.758698 27.172597 
" style="fill:none;stroke:#002147;stroke-linecap:square;stroke-linejoin:miter;stroke-width:0.8;"/>
   </g>
   <g id="patch_4">
    <path d="M 364.124866 158.692672 
L 364.124866 27.172597 
" style="fill:none;stroke:#002147;stroke-linecap:square;stroke-linejoin:miter;stroke-width:0.8;"/>
   </g>
   <g id="patch_5">
    <path d="M 56.758698 158.692672 
L 364.124866 158.692672 
" style="fill:none;stroke:#002147;stroke-linecap:square;stroke-linejoin:miter;stroke-width:0.8;"/>
   </g>
   <g id="patch_6">
    <path d="M 56.758698 27.172597 
L 364.124866 27.172597 
" style="fill:none;stroke:#002147;stroke-linecap:square;stroke-linejoin:miter;stroke-width:0.8;"/>
   </g>
   <g id="text_11">
    <!-- Moser flow -->
    <g style="fill:#002147;" transform="translate(164.753159 21.172597)scale(0.2 -0.2)">
     <defs>
      <path d="M 4243 741 
C 4275 218 4250 218 3834 218 
C 3795 178 3795 40 3834 0 
C 4070 0 4326 0 4518 0 
C 4710 0 5005 0 5216 0 
C 5254 40 5254 178 5216 218 
C 4781 218 4762 244 4723 784 
L 4531 3492 
C 4506 3850 4538 3942 4973 3942 
C 5011 3981 5011 4120 4973 4160 
L 4134 4160 
L 2778 893 
C 2752 829 2733 803 2720 803 
C 2707 803 2688 835 2669 887 
L 1357 4160 
L 429 4160 
C 390 4120 390 3981 429 3942 
C 870 3942 909 3930 864 3434 
L 608 790 
C 570 404 493 244 128 212 
C 90 173 90 39 128 0 
C 320 0 525 0 678 0 
C 832 0 1088 0 1280 0 
C 1318 39 1318 173 1280 212 
C 858 244 826 443 858 802 
L 1101 3376 
L 1114 3376 
L 2438 32 
C 2458 -13 2496 -64 2534 -64 
C 2573 -64 2598 -19 2624 32 
L 4064 3440 
L 4077 3440 
L 4243 741 
z
" id="LinLibertineT-4d" transform="scale(0.015625)"/>
      <path d="M 2892 782 
L 2892 3734 
C 2892 4151 2898 4407 2898 4407 
C 2898 4452 2872 4471 2815 4471 
C 2732 4420 2572 4350 2469 4324 
C 2329 4420 2034 4471 1811 4471 
C 1273 4471 614 4003 614 2938 
L 614 2746 
L 288 2746 
C 173 2746 141 2669 141 2618 
L 141 2534 
C 141 2502 147 2496 173 2496 
L 602 2496 
L 602 781 
C 602 250 531 224 186 198 
C 147 160 147 26 186 -13 
C 403 -6 640 0 858 0 
C 1088 0 1325 -6 1549 -13 
C 1587 26 1587 160 1549 198 
C 1190 230 1107 250 1107 781 
L 1107 2496 
L 1702 2496 
C 1760 2496 1850 2522 1850 2579 
L 1850 2708 
C 1850 2733 1830 2746 1798 2746 
L 1094 2746 
L 1094 3047 
C 1094 4035 1497 4254 1708 4254 
C 1900 4254 2130 4151 2213 3939 
C 2252 3856 2316 3792 2392 3766 
C 2392 3734 2386 3664 2386 3606 
L 2386 781 
C 2386 250 2328 218 2008 198 
C 1970 160 1970 26 2008 -13 
C 2200 -6 2392 0 2642 0 
C 2917 0 3135 -6 3340 -13 
C 3378 26 3378 160 3339 198 
C 2981 224 2892 250 2892 782 
z
" id="LinLibertineT-83" transform="scale(0.015625)"/>
      <path d="M 1299 2560 
C 1338 2599 1338 2739 1299 2778 
C 1107 2778 883 2778 653 2778 
C 410 2778 237 2778 70 2778 
C 32 2740 32 2605 70 2567 
C 371 2535 442 2470 576 2137 
L 1414 64 
C 1453 -25 1504 -64 1568 -64 
C 1626 -64 1677 -25 1722 77 
L 2368 1660 
L 3027 64 
C 3066 -25 3117 -64 3181 -64 
C 3238 -64 3290 -25 3328 72 
L 4166 2116 
C 4269 2380 4378 2560 4704 2560 
C 4742 2599 4742 2739 4704 2778 
C 4576 2778 4435 2778 4243 2778 
C 4051 2778 3782 2778 3590 2778 
C 3552 2739 3552 2599 3590 2560 
C 4070 2560 4006 2374 3917 2150 
L 3379 815 
C 3315 655 3290 655 3238 790 
L 2688 2194 
C 2566 2496 2579 2560 2918 2584 
C 2957 2619 2957 2743 2918 2778 
C 2726 2778 2470 2778 2278 2778 
C 2118 2778 1907 2778 1715 2778 
C 1677 2740 1677 2606 1715 2568 
C 2016 2542 2093 2357 2208 2069 
L 2246 1968 
L 1798 833 
C 1715 621 1702 614 1619 820 
L 1107 2144 
C 986 2456 992 2560 1299 2560 
z
" id="LinLibertineT-77" transform="scale(0.015625)"/>
     </defs>
     <use transform="scale(0.996264)" xlink:href="#LinLibertineT-4d"/>
     <use transform="translate(83.586514 0)scale(0.996264)" xlink:href="#LinLibertineT-6f"/>
     <use transform="translate(133.798184 0)scale(0.996264)" xlink:href="#LinLibertineT-73"/>
     <use transform="translate(172.65251 0)scale(0.996264)" xlink:href="#LinLibertineT-65"/>
     <use transform="translate(217.185463 0)scale(0.996264)" xlink:href="#LinLibertineT-72"/>
     <use transform="translate(279.153051 0)scale(0.996264)" xlink:href="#LinLibertineT-83"/>
     <use transform="translate(332.951292 0)scale(0.996264)" xlink:href="#LinLibertineT-6f"/>
     <use transform="translate(382.46558 0)scale(0.996264)" xlink:href="#LinLibertineT-77"/>
    </g>
   </g>
  </g>
  <g id="axes_2">
   <g id="patch_7">
    <path d="M 392.029845 158.692672 
L 699.396013 158.692672 
L 699.396013 27.172597 
L 392.029845 27.172597 
z
" style="fill:none;"/>
   </g>
   <g id="matplotlib.axis_3">
    <g id="xtick_6">
     <g id="line2d_20">
      <g>
       <use style="fill:#002147;stroke:#002147;stroke-width:0.8;" x="392.029845" xlink:href="#mfc653982f1" y="158.692672"/>
      </g>
     </g>
     <g id="text_12">
      <!-- $\mathdefault{−4}$ -->
      <g style="fill:#002147;" transform="translate(381.928853 176.870756)scale(0.16 -0.16)">
       <use transform="scale(0.996264)" xlink:href="#CMSY10-0"/>
       <use transform="translate(77.487468 0)scale(0.996264)" xlink:href="#CMR17-34"/>
      </g>
     </g>
    </g>
    <g id="xtick_7">
     <g id="line2d_21">
      <g>
       <use style="fill:#002147;stroke:#002147;stroke-width:0.8;" x="468.871387" xlink:href="#mfc653982f1" y="158.692672"/>
      </g>
     </g>
     <g id="text_13">
      <!-- $\mathdefault{0}$ -->
      <g style="fill:#002147;" transform="translate(464.969393 176.870756)scale(0.16 -0.16)">
       <use transform="scale(0.996264)" xlink:href="#CMR17-30"/>
      </g>
     </g>
    </g>
    <g id="xtick_8">
     <g id="line2d_22">
      <g>
       <use style="fill:#002147;stroke:#002147;stroke-width:0.8;" x="545.712929" xlink:href="#mfc653982f1" y="158.692672"/>
      </g>
     </g>
     <g id="text_14">
      <!-- $\mathdefault{4}$ -->
      <g style="fill:#002147;" transform="translate(541.810935 176.870756)scale(0.16 -0.16)">
       <use transform="scale(0.996264)" xlink:href="#CMR17-34"/>
      </g>
     </g>
    </g>
    <g id="xtick_9">
     <g id="line2d_23">
      <g>
       <use style="fill:#002147;stroke:#002147;stroke-width:0.8;" x="622.554471" xlink:href="#mfc653982f1" y="158.692672"/>
      </g>
     </g>
     <g id="text_15">
      <!-- $\mathdefault{8}$ -->
      <g style="fill:#002147;" transform="translate(618.652477 176.870756)scale(0.16 -0.16)">
       <use transform="scale(0.996264)" xlink:href="#CMR17-38"/>
      </g>
     </g>
    </g>
    <g id="xtick_10">
     <g id="line2d_24">
      <g>
       <use style="fill:#002147;stroke:#002147;stroke-width:0.8;" x="699.396013" xlink:href="#mfc653982f1" y="158.692672"/>
      </g>
     </g>
     <g id="text_16">
      <!-- $\mathdefault{12}$ -->
      <g style="fill:#002147;" transform="translate(691.592026 176.870756)scale(0.16 -0.16)">
       <use transform="scale(0.996264)" xlink:href="#CMR17-31"/>
       <use transform="translate(45.690477 0)scale(0.996264)" xlink:href="#CMR17-32"/>
      </g>
     </g>
    </g>
    <g id="text_17">
     <!-- $x$ -->
     <g style="fill:#002147;" transform="translate(540.169523 198.557421)scale(0.2 -0.2)">
      <use transform="scale(0.996264)" xlink:href="#CMMI12-78"/>
     </g>
    </g>
   </g>
   <g id="matplotlib.axis_4">
    <g id="ytick_4">
     <g id="line2d_25">
      <g>
       <use style="fill:#002147;stroke:#002147;stroke-width:0.8;" x="392.029845" xlink:href="#m86c1921d55" y="152.714487"/>
      </g>
     </g>
    </g>
    <g id="ytick_5">
     <g id="line2d_26">
      <g>
       <use style="fill:#002147;stroke:#002147;stroke-width:0.8;" x="392.029845" xlink:href="#m86c1921d55" y="92.72519"/>
      </g>
     </g>
    </g>
    <g id="ytick_6">
     <g id="line2d_27">
      <g>
       <use style="fill:#002147;stroke:#002147;stroke-width:0.8;" x="392.029845" xlink:href="#m86c1921d55" y="32.735893"/>
      </g>
     </g>
    </g>
   </g>
   <g id="line2d_28">
    <path clip-path="url(#pbc2fdef403)" d="M 392.029845 152.714487 
L 395.134557 152.714487 
L 398.239264 152.714487 
L 401.343971 152.714487 
L 404.448679 152.714487 
L 407.553386 152.714487 
L 410.658098 152.714487 
L 413.76281 152.714487 
L 416.867517 152.714487 
L 419.972224 152.714487 
L 423.076932 152.714487 
L 426.181639 152.714487 
L 429.286351 152.714487 
L 432.391061 152.714487 
L 435.49577 152.714487 
L 438.600475 152.714487 
L 441.705185 152.714487 
L 444.809892 152.714487 
L 447.914604 152.714487 
L 451.019316 152.714487 
L 454.124023 152.714487 
L 457.228726 152.714487 
L 460.333438 152.714487 
L 463.43815 152.714487 
L 466.542857 152.714487 
L 469.647565 152.714487 
L 472.752277 152.714487 
L 475.856984 152.714487 
L 478.961691 152.714487 
L 482.066399 152.714487 
L 485.171111 152.714487 
L 488.275822 152.714487 
L 491.380525 152.714487 
L 494.485233 152.714487 
L 497.58994 152.714487 
L 500.694656 152.714487 
L 503.799364 152.714486 
L 506.904071 152.714485 
L 510.008783 152.714483 
L 513.11349 152.714476 
L 516.218198 152.71446 
L 519.322905 152.714423 
L 522.427612 152.714336 
L 525.532329 152.714141 
L 528.637032 152.713714 
L 531.741739 152.712807 
L 534.846455 152.710927 
L 537.951163 152.707137 
L 541.05587 152.699706 
L 544.160577 152.685527 
L 547.265285 152.659208 
L 550.369997 152.611692 
L 553.474699 152.528262 
L 556.579411 152.385814 
L 559.684123 152.14936 
L 562.788835 151.76785 
L 565.893538 151.16967 
L 568.998241 150.258495 
L 572.102953 148.910545 
L 575.207665 146.974683 
L 578.312376 144.276939 
L 581.417079 140.631018 
L 584.5218 135.85579 
L 587.626503 129.799904 
L 590.731206 122.37164 
L 593.835918 113.571206 
L 596.94062 103.52025 
L 600.045332 92.482417 
L 603.150035 80.86933 
L 606.254765 69.226485 
L 609.359468 58.198252 
L 612.464171 48.471929 
L 615.568883 40.708757 
L 618.673586 35.47022 
L 621.778298 33.150782 
L 624.883 33.928984 
L 627.987731 37.744703 
L 631.092424 44.306683 
L 634.197136 53.129576 
L 637.301848 63.592929 
L 640.40656 75.013168 
L 643.511253 86.71649 
L 646.615965 98.102376 
L 649.720677 108.689066 
L 652.825371 118.13847 
L 655.930101 126.259868 
L 659.034813 132.995481 
L 662.139507 138.39506 
L 665.244219 142.584199 
L 668.34893 145.73258 
L 671.453642 148.026538 
L 674.558336 149.647945 
L 677.663066 150.760287 
L 680.767778 151.501247 
L 683.872472 151.98068 
L 686.977184 152.2821 
L 690.081896 152.466277 
L 693.186607 152.575677 
L 696.291301 152.638859 
L 699.396013 152.674345 
" style="fill:none;stroke:#c8e020;stroke-linecap:square;stroke-opacity:0.5;stroke-width:3;"/>
   </g>
   <g id="line2d_29">
    <path clip-path="url(#pbc2fdef403)" d="M 392.029845 152.714487 
L 395.134557 152.714487 
L 398.239264 152.714487 
L 401.343971 152.714487 
L 404.448679 152.714487 
L 407.553386 152.714487 
L 410.658098 152.714487 
L 413.76281 152.714487 
L 416.867517 152.714487 
L 419.972224 152.714487 
L 423.076932 152.714487 
L 426.181639 152.714487 
L 429.286351 152.714487 
L 432.391061 152.714487 
L 435.49577 152.714487 
L 438.600475 152.714487 
L 441.705185 152.714487 
L 444.809892 152.714487 
L 447.914604 152.714487 
L 451.019316 152.714487 
L 454.124023 152.714487 
L 457.228726 152.714487 
L 460.333438 152.714487 
L 463.43815 152.714487 
L 466.542857 152.714487 
L 469.647565 152.714487 
L 472.752277 152.714487 
L 475.856984 152.714487 
L 478.961691 152.714487 
L 482.066399 152.714487 
L 485.171111 152.714487 
L 488.275822 152.714486 
L 491.380525 152.714485 
L 494.485233 152.714483 
L 497.58994 152.714477 
L 500.694656 152.714461 
L 503.799364 152.714425 
L 506.904071 152.714342 
L 510.008783 152.714155 
L 513.11349 152.713744 
L 516.218198 152.71287 
L 519.322905 152.711056 
L 522.427612 152.707395 
L 525.532329 152.700205 
L 528.637032 152.686467 
L 531.741739 152.660933 
L 534.846455 152.61477 
L 537.951163 152.533601 
L 541.05587 152.39482 
L 544.160577 152.164128 
L 547.265285 151.791383 
L 550.369997 151.206102 
L 553.474699 150.313282 
L 556.579411 148.990543 
L 559.684123 147.08805 
L 562.788835 144.432774 
L 565.893538 140.838696 
L 568.998241 136.123918 
L 572.102953 130.134859 
L 575.207665 122.776081 
L 578.312376 114.042475 
L 581.417079 104.049015 
L 584.5218 93.051913 
L 587.626503 81.455646 
L 590.731206 69.799705 
L 593.835918 58.72448 
L 596.94062 48.916828 
L 600.045332 41.041059 
L 603.150035 35.665298 
L 606.254765 33.193707 
L 609.359468 33.816477 
L 612.464171 37.485388 
L 615.568883 43.920218 
L 618.673586 52.643933 
L 621.778298 63.041261 
L 624.883 74.42999 
L 627.987731 86.134389 
L 631.092424 97.548635 
L 634.197136 108.184557 
L 637.301848 117.696592 
L 640.40656 125.886727 
L 643.511253 132.691187 
L 646.615965 138.155115 
L 649.720677 142.400989 
L 652.825371 145.597003 
L 655.930101 147.929271 
L 659.034813 149.580238 
L 662.139507 150.714518 
L 665.244219 151.47121 
L 668.34893 151.961531 
L 671.453642 152.270238 
L 674.558336 152.459133 
L 677.663066 152.571495 
L 680.767778 152.636479 
L 683.872472 152.673028 
L 686.977184 152.69302 
L 690.081896 152.703659 
L 693.186607 152.709166 
L 696.291301 152.711939 
L 699.396013 152.713299 
" style="fill:none;stroke:#90d743;stroke-linecap:square;stroke-opacity:0.5;stroke-width:3;"/>
   </g>
   <g id="line2d_30">
    <path clip-path="url(#pbc2fdef403)" d="M 392.029845 152.714487 
L 395.134557 152.714487 
L 398.239264 152.714487 
L 401.343971 152.714487 
L 404.448679 152.714487 
L 407.553386 152.714487 
L 410.658098 152.714487 
L 413.76281 152.714487 
L 416.867517 152.714487 
L 419.972224 152.714487 
L 423.076932 152.714487 
L 426.181639 152.714487 
L 429.286351 152.714487 
L 432.391061 152.714487 
L 435.49577 152.714487 
L 438.600475 152.714487 
L 441.705185 152.714487 
L 444.809892 152.714487 
L 447.914604 152.714487 
L 451.019316 152.714487 
L 454.124023 152.714487 
L 457.228726 152.714487 
L 460.333438 152.714487 
L 463.43815 152.714487 
L 466.542857 152.714487 
L 469.647565 152.714487 
L 472.752277 152.714486 
L 475.856984 152.714485 
L 478.961691 152.714483 
L 482.066399 152.714477 
L 485.171111 152.714463 
L 488.275822 152.714428 
L 491.380525 152.714348 
L 494.485233 152.714168 
L 497.58994 152.713773 
L 500.694656 152.712931 
L 503.799364 152.71118 
L 506.904071 152.707643 
L 510.008783 152.700687 
L 513.11349 152.687379 
L 516.218198 152.662608 
L 519.322905 152.617762 
L 522.427612 152.538799 
L 525.532329 152.4036 
L 528.637032 152.178545 
L 531.741739 151.81439 
L 534.846455 151.241773 
L 537.951163 150.367001 
L 541.05587 149.069098 
L 544.160577 147.199544 
L 547.265285 144.586282 
L 550.369997 141.043579 
L 553.474699 136.388832 
L 556.579411 130.466365 
L 559.684123 123.177075 
L 562.788835 114.510589 
L 565.893538 104.575269 
L 568.998241 93.620025 
L 572.102953 82.04189 
L 575.207665 70.374337 
L 578.312376 59.253889 
L 581.417079 49.366599 
L 584.5218 41.379618 
L 587.626503 35.867661 
L 590.731206 33.244437 
L 593.835918 33.711603 
L 596.94062 37.233019 
L 600.045332 43.539448 
L 603.150035 52.162446 
L 606.254765 62.492114 
L 609.359468 73.847652 
L 612.464171 85.551363 
L 615.568883 96.992895 
L 618.673586 107.677151 
L 621.778298 117.251284 
L 624.883 125.510042 
L 627.987731 132.383575 
L 631.092424 137.912095 
L 634.197136 142.215136 
L 637.301848 145.459291 
L 640.40656 147.830301 
L 643.511253 149.511223 
L 646.615965 150.667814 
L 649.720677 151.440514 
L 652.825371 151.941931 
L 655.930101 152.258079 
L 659.034813 152.451803 
L 662.139507 152.567197 
L 665.244219 152.634029 
L 668.34893 152.67167 
L 671.453642 152.692288 
L 674.558336 152.703275 
L 677.663066 152.70897 
L 680.767778 152.711842 
L 683.872472 152.713252 
L 686.977184 152.713925 
L 690.081896 152.714238 
L 693.186607 152.714379 
L 696.291301 152.714442 
L 699.396013 152.714468 
" style="fill:none;stroke:#5cc863;stroke-linecap:square;stroke-opacity:0.5;stroke-width:3;"/>
   </g>
   <g id="line2d_31">
    <path clip-path="url(#pbc2fdef403)" d="M 392.029845 152.714487 
L 395.134557 152.714487 
L 398.239264 152.714487 
L 401.343971 152.714487 
L 404.448679 152.714487 
L 407.553386 152.714487 
L 410.658098 152.714487 
L 413.76281 152.714487 
L 416.867517 152.714487 
L 419.972224 152.714487 
L 423.076932 152.714487 
L 426.181639 152.714487 
L 429.286351 152.714487 
L 432.391061 152.714487 
L 435.49577 152.714487 
L 438.600475 152.714487 
L 441.705185 152.714487 
L 444.809892 152.714487 
L 447.914604 152.714487 
L 451.019316 152.714487 
L 454.124023 152.714487 
L 457.228726 152.714486 
L 460.333438 152.714485 
L 463.43815 152.714483 
L 466.542857 152.714478 
L 469.647565 152.714464 
L 472.752277 152.714431 
L 475.856984 152.714354 
L 478.961691 152.714181 
L 482.066399 152.713801 
L 485.171111 152.712989 
L 488.275822 152.711301 
L 491.380525 152.707884 
L 494.485233 152.701154 
L 497.58994 152.688262 
L 500.694656 152.664233 
L 503.799364 152.62067 
L 506.904071 152.543858 
L 510.008783 152.412158 
L 513.11349 152.192618 
L 516.218198 151.836879 
L 519.322905 151.276694 
L 522.427612 150.41967 
L 525.532329 149.146226 
L 528.637032 147.309175 
L 531.741739 144.737454 
L 534.846455 141.245664 
L 537.951163 136.650542 
L 541.05587 130.794417 
L 544.160577 123.574595 
L 547.265285 114.975499 
L 550.369997 105.098908 
L 553.474699 94.186451 
L 556.579411 82.627821 
L 559.684123 70.950292 
L 562.788835 59.786364 
L 565.893538 49.821107 
L 568.998241 41.724435 
L 572.102953 36.077301 
L 575.207665 33.302925 
L 578.312376 33.614435 
L 581.417079 36.987686 
L 584.5218 43.16456 
L 587.626503 51.68533 
L 590.731206 61.945452 
L 593.835918 73.266137 
L 596.94062 84.967716 
L 600.045332 96.435225 
L 603.150035 107.166965 
L 606.254765 116.802736 
L 609.359468 125.129956 
L 612.464171 132.072525 
L 615.568883 137.666016 
L 618.673586 142.026638 
L 621.778298 145.319384 
L 624.883 147.729602 
L 627.987731 149.440925 
L 631.092424 150.62016 
L 634.197136 151.409147 
L 637.301848 151.921877 
L 640.40656 152.245618 
L 643.511253 152.444277 
L 646.615965 152.56278 
L 649.720677 152.631508 
L 652.825371 152.67027 
L 655.930101 152.691533 
L 659.034813 152.702878 
L 662.139507 152.708767 
L 665.244219 152.711741 
L 668.34893 152.713203 
L 671.453642 152.713902 
L 674.558336 152.714227 
L 677.663066 152.714375 
L 680.767778 152.71444 
L 683.872472 152.714467 
L 686.977184 152.714479 
L 690.081896 152.714484 
L 693.186607 152.714486 
L 696.291301 152.714486 
L 699.396013 152.714487 
" style="fill:none;stroke:#35b779;stroke-linecap:square;stroke-opacity:0.5;stroke-width:3;"/>
   </g>
   <g id="line2d_32">
    <path clip-path="url(#pbc2fdef403)" d="M 392.029845 152.714487 
L 395.134557 152.714487 
L 398.239264 152.714487 
L 401.343971 152.714487 
L 404.448679 152.714487 
L 407.553386 152.714487 
L 410.658098 152.714487 
L 413.76281 152.714487 
L 416.867517 152.714487 
L 419.972224 152.714487 
L 423.076932 152.714487 
L 426.181639 152.714487 
L 429.286351 152.714487 
L 432.391061 152.714487 
L 435.49577 152.714487 
L 438.600475 152.714487 
L 441.705185 152.714486 
L 444.809892 152.714486 
L 447.914604 152.714483 
L 451.019316 152.714478 
L 454.124023 152.714465 
L 457.228726 152.714433 
L 460.333438 152.714359 
L 463.43815 152.714193 
L 466.542857 152.713828 
L 469.647565 152.713046 
L 472.752277 152.711417 
L 475.856984 152.708116 
L 478.961691 152.701607 
L 482.066399 152.689119 
L 485.171111 152.665811 
L 488.275822 152.623496 
L 491.380525 152.548783 
L 494.485233 152.420501 
L 497.58994 152.206355 
L 500.694656 151.858863 
L 503.799364 151.31088 
L 506.904071 150.471305 
L 510.008783 149.221957 
L 513.11349 147.416978 
L 516.218198 144.886329 
L 519.322905 141.445009 
L 522.427612 136.909127 
L 525.532329 131.119063 
L 528.637032 123.968664 
L 531.741739 115.437201 
L 534.846455 105.619951 
L 537.951163 94.751245 
L 541.05587 83.213466 
L 544.160577 71.527571 
L 547.265285 60.321879 
L 550.369997 50.280327 
L 553.474699 42.075402 
L 556.579411 36.294163 
L 559.684123 33.369191 
L 562.788835 33.524955 
L 565.893538 36.749396 
L 568.998241 42.795483 
L 572.102953 51.212496 
L 575.207665 61.40149 
L 578.312376 72.68556 
L 581.417079 84.38347 
L 584.5218 95.875722 
L 587.626503 106.654035 
L 590.731206 116.350786 
L 593.835918 124.746321 
L 596.94062 131.758088 
L 600.045332 137.416823 
L 603.150035 141.835449 
L 606.254765 145.177274 
L 609.359468 147.627171 
L 612.464171 149.36928 
L 615.568883 150.571532 
L 618.673586 151.377091 
L 621.778298 151.901352 
L 624.883 152.232847 
L 627.987731 152.436556 
L 631.092424 152.558241 
L 634.197136 152.628914 
L 637.301848 152.668828 
L 640.40656 152.690753 
L 643.511253 152.702468 
L 646.615965 152.708557 
L 649.720677 152.711637 
L 652.825371 152.713152 
L 655.930101 152.713878 
L 659.034813 152.714216 
L 662.139507 152.71437 
L 665.244219 152.714437 
L 668.34893 152.714467 
L 671.453642 152.714479 
L 674.558336 152.714484 
L 677.663066 152.714486 
L 680.767778 152.714486 
L 683.872472 152.714487 
L 686.977184 152.714487 
L 690.081896 152.714487 
L 693.186607 152.714487 
L 696.291301 152.714487 
L 699.396013 152.714487 
" style="fill:none;stroke:#20a486;stroke-linecap:square;stroke-opacity:0.5;stroke-width:3;"/>
   </g>
   <g id="line2d_33">
    <path clip-path="url(#pbc2fdef403)" d="M 392.029845 152.714487 
L 395.134557 152.714487 
L 398.239264 152.714487 
L 401.343971 152.714487 
L 404.448679 152.714487 
L 407.553386 152.714487 
L 410.658098 152.714487 
L 413.76281 152.714487 
L 416.867517 152.714487 
L 419.972224 152.714487 
L 423.076932 152.714487 
L 426.181639 152.714486 
L 429.286351 152.714486 
L 432.391061 152.714484 
L 435.49577 152.714478 
L 438.600475 152.714466 
L 441.705185 152.714435 
L 444.809892 152.714365 
L 447.914604 152.714205 
L 451.019316 152.713853 
L 454.124023 152.7131 
L 457.228726 152.711529 
L 460.333438 152.70834 
L 463.43815 152.702044 
L 466.542857 152.689949 
L 469.647565 152.667342 
L 472.752277 152.626244 
L 475.856984 152.553576 
L 478.961691 152.428632 
L 482.066399 152.219762 
L 485.171111 151.88035 
L 488.275822 151.344339 
L 491.380525 150.521919 
L 494.485233 149.296302 
L 497.58994 147.522968 
L 500.694656 145.032917 
L 503.799364 141.641586 
L 506.904071 137.164536 
L 510.008783 131.440278 
L 513.11349 124.359222 
L 516.218198 115.895616 
L 519.322905 106.138347 
L 522.427612 95.31436 
L 525.532329 83.798687 
L 528.637032 72.106002 
L 531.741739 60.860272 
L 534.846455 50.744141 
L 537.951163 42.432412 
L 541.05587 36.518195 
L 544.160577 33.443207 
L 547.265285 33.443207 
L 550.369997 36.518213 
L 553.474699 42.43243 
L 556.579411 50.744168 
L 559.684123 60.86029 
L 562.788835 72.106038 
L 565.893538 83.798723 
L 568.998241 95.314337 
L 572.102953 106.138347 
L 575.207665 115.895625 
L 578.312376 124.359242 
L 581.417079 131.440289 
L 584.5218 137.164558 
L 587.626503 141.641601 
L 590.731206 145.032921 
L 593.835918 147.522968 
L 596.94062 149.296299 
L 600.045332 150.521919 
L 603.150035 151.344339 
L 606.254765 151.880353 
L 609.359468 152.219763 
L 612.464171 152.428632 
L 615.568883 152.553576 
L 618.673586 152.626244 
L 621.778298 152.667342 
L 624.883 152.689949 
L 627.987731 152.702045 
L 631.092424 152.70834 
L 634.197136 152.711529 
L 637.301848 152.7131 
L 640.40656 152.713853 
L 643.511253 152.714205 
L 646.615965 152.714365 
L 649.720677 152.714435 
L 652.825371 152.714466 
L 655.930101 152.714478 
L 659.034813 152.714484 
L 662.139507 152.714486 
L 665.244219 152.714486 
L 668.34893 152.714487 
L 671.453642 152.714487 
L 674.558336 152.714487 
L 677.663066 152.714487 
L 680.767778 152.714487 
L 683.872472 152.714487 
L 686.977184 152.714487 
L 690.081896 152.714487 
L 693.186607 152.714487 
L 696.291301 152.714487 
L 699.396013 152.714487 
" style="fill:none;stroke:#21908d;stroke-linecap:square;stroke-opacity:0.5;stroke-width:3;"/>
   </g>
   <g id="line2d_34">
    <path clip-path="url(#pbc2fdef403)" d="M 392.029845 152.714487 
L 395.134557 152.714487 
L 398.239264 152.714487 
L 401.343971 152.714487 
L 404.448679 152.714487 
L 407.553386 152.714487 
L 410.658098 152.714486 
L 413.76281 152.714486 
L 416.867517 152.714484 
L 419.972224 152.714479 
L 423.076932 152.714467 
L 426.181639 152.714437 
L 429.286351 152.71437 
L 432.391061 152.714216 
L 435.49577 152.713878 
L 438.600475 152.713152 
L 441.705185 152.711637 
L 444.809892 152.708557 
L 447.914604 152.702468 
L 451.019316 152.690753 
L 454.124023 152.668828 
L 457.228726 152.628914 
L 460.333438 152.558241 
L 463.43815 152.436555 
L 466.542857 152.232847 
L 469.647565 151.901351 
L 472.752277 151.37709 
L 475.856984 150.571529 
L 478.961691 149.369277 
L 482.066399 147.627166 
L 485.171111 145.17726 
L 488.275822 141.835449 
L 491.380525 137.416823 
L 494.485233 131.758097 
L 497.58994 124.746321 
L 500.694656 116.350768 
L 503.799364 106.654008 
L 506.904071 95.875673 
L 510.008783 84.383456 
L 513.11349 72.685524 
L 516.218198 61.401463 
L 519.322905 51.212496 
L 522.427612 42.795483 
L 525.532329 36.749378 
L 528.637032 33.524955 
L 531.741739 33.3692 
L 534.846455 36.294181 
L 537.951163 42.075411 
L 541.05587 50.280354 
L 544.160577 60.321888 
L 547.265285 71.527589 
L 550.369997 83.213498 
L 553.474699 94.751259 
L 556.579411 105.619987 
L 559.684123 115.437217 
L 562.788835 123.968684 
L 565.893538 131.119083 
L 568.998241 136.909119 
L 572.102953 141.445009 
L 575.207665 144.886333 
L 578.312376 147.416983 
L 581.417079 149.221959 
L 584.5218 150.471309 
L 587.626503 151.310882 
L 590.731206 151.858864 
L 593.835918 152.206355 
L 596.94062 152.420501 
L 600.045332 152.548783 
L 603.150035 152.623496 
L 606.254765 152.665811 
L 609.359468 152.689119 
L 612.464171 152.701607 
L 615.568883 152.708116 
L 618.673586 152.711417 
L 621.778298 152.713046 
L 624.883 152.713828 
L 627.987731 152.714193 
L 631.092424 152.714359 
L 634.197136 152.714433 
L 637.301848 152.714465 
L 640.40656 152.714478 
L 643.511253 152.714483 
L 646.615965 152.714486 
L 649.720677 152.714486 
L 652.825371 152.714487 
L 655.930101 152.714487 
L 659.034813 152.714487 
L 662.139507 152.714487 
L 665.244219 152.714487 
L 668.34893 152.714487 
L 671.453642 152.714487 
L 674.558336 152.714487 
L 677.663066 152.714487 
L 680.767778 152.714487 
L 683.872472 152.714487 
L 686.977184 152.714487 
L 690.081896 152.714487 
L 693.186607 152.714487 
L 696.291301 152.714487 
L 699.396013 152.714487 
" style="fill:none;stroke:#287c8e;stroke-linecap:square;stroke-opacity:0.5;stroke-width:3;"/>
   </g>
   <g id="line2d_35">
    <path clip-path="url(#pbc2fdef403)" d="M 392.029845 152.714487 
L 395.134557 152.714486 
L 398.239264 152.714486 
L 401.343971 152.714484 
L 404.448679 152.714479 
L 407.553386 152.714467 
L 410.658098 152.71444 
L 413.76281 152.714375 
L 416.867517 152.714227 
L 419.972224 152.713902 
L 423.076932 152.713203 
L 426.181639 152.711741 
L 429.286351 152.708767 
L 432.391061 152.702878 
L 435.49577 152.691533 
L 438.600475 152.67027 
L 441.705185 152.631508 
L 444.809892 152.56278 
L 447.914604 152.444277 
L 451.019316 152.245617 
L 454.124023 151.921876 
L 457.228726 151.409146 
L 460.333438 150.620158 
L 463.43815 149.440914 
L 466.542857 147.729602 
L 469.647565 145.319376 
L 472.752277 142.026632 
L 475.856984 137.666002 
L 478.961691 132.072516 
L 482.066399 125.129938 
L 485.171111 116.802684 
L 488.275822 107.166965 
L 491.380525 96.435225 
L 494.485233 84.967734 
L 497.58994 73.266137 
L 500.694656 61.945435 
L 503.799364 51.685294 
L 506.904071 43.164525 
L 510.008783 36.987677 
L 513.11349 33.614426 
L 516.218198 33.302925 
L 519.322905 36.077301 
L 522.427612 41.724435 
L 525.532329 49.821134 
L 528.637032 59.786382 
L 531.741739 70.95031 
L 534.846455 82.627852 
L 537.951163 94.186469 
L 541.05587 105.098935 
L 544.160577 114.975516 
L 547.265285 123.574602 
L 550.369997 130.794437 
L 553.474699 136.65055 
L 556.579411 141.245675 
L 559.684123 144.737458 
L 562.788835 147.309183 
L 565.893538 149.146231 
L 568.998241 150.419669 
L 572.102953 151.276694 
L 575.207665 151.836879 
L 578.312376 152.192618 
L 581.417079 152.412159 
L 584.5218 152.543859 
L 587.626503 152.62067 
L 590.731206 152.664233 
L 593.835918 152.688262 
L 596.94062 152.701154 
L 600.045332 152.707884 
L 603.150035 152.711301 
L 606.254765 152.712989 
L 609.359468 152.713801 
L 612.464171 152.714181 
L 615.568883 152.714354 
L 618.673586 152.714431 
L 621.778298 152.714464 
L 624.883 152.714478 
L 627.987731 152.714483 
L 631.092424 152.714485 
L 634.197136 152.714486 
L 637.301848 152.714487 
L 640.40656 152.714487 
L 643.511253 152.714487 
L 646.615965 152.714487 
L 649.720677 152.714487 
L 652.825371 152.714487 
L 655.930101 152.714487 
L 659.034813 152.714487 
L 662.139507 152.714487 
L 665.244219 152.714487 
L 668.34893 152.714487 
L 671.453642 152.714487 
L 674.558336 152.714487 
L 677.663066 152.714487 
L 680.767778 152.714487 
L 683.872472 152.714487 
L 686.977184 152.714487 
L 690.081896 152.714487 
L 693.186607 152.714487 
L 696.291301 152.714487 
L 699.396013 152.714487 
" style="fill:none;stroke:#31688e;stroke-linecap:square;stroke-opacity:0.5;stroke-width:3;"/>
   </g>
   <g id="line2d_36">
    <path clip-path="url(#pbc2fdef403)" d="M 392.029845 152.714468 
L 395.134557 152.714442 
L 398.239264 152.714379 
L 401.343971 152.714238 
L 404.448679 152.713925 
L 407.553386 152.713252 
L 410.658098 152.711842 
L 413.76281 152.70897 
L 416.867517 152.703275 
L 419.972224 152.692288 
L 423.076932 152.67167 
L 426.181639 152.634029 
L 429.286351 152.567197 
L 432.391061 152.451802 
L 435.49577 152.258078 
L 438.600475 151.941932 
L 441.705185 151.440512 
L 444.809892 150.667814 
L 447.914604 149.511223 
L 451.019316 147.830289 
L 454.124023 145.459281 
L 457.228726 142.215131 
L 460.333438 137.912087 
L 463.43815 132.383526 
L 466.542857 125.510042 
L 469.647565 117.251269 
L 472.752277 107.677133 
L 475.856984 96.992864 
L 478.961691 85.55135 
L 482.066399 73.847616 
L 485.171111 62.492043 
L 488.275822 52.162446 
L 491.380525 43.539448 
L 494.485233 37.233019 
L 497.58994 33.711603 
L 500.694656 33.244437 
L 503.799364 35.867661 
L 506.904071 41.379654 
L 510.008783 49.366617 
L 513.11349 59.253925 
L 516.218198 70.374355 
L 519.322905 82.04189 
L 522.427612 93.620016 
L 525.532329 104.575296 
L 528.637032 114.510607 
L 531.741739 123.177089 
L 534.846455 130.466388 
L 537.951163 136.38884 
L 541.05587 141.04359 
L 544.160577 144.586286 
L 547.265285 147.199547 
L 550.369997 149.069103 
L 553.474699 150.367002 
L 556.579411 151.241775 
L 559.684123 151.81439 
L 562.788835 152.178546 
L 565.893538 152.403601 
L 568.998241 152.538799 
L 572.102953 152.617762 
L 575.207665 152.662608 
L 578.312376 152.687379 
L 581.417079 152.700687 
L 584.5218 152.707643 
L 587.626503 152.71118 
L 590.731206 152.712931 
L 593.835918 152.713773 
L 596.94062 152.714168 
L 600.045332 152.714348 
L 603.150035 152.714428 
L 606.254765 152.714463 
L 609.359468 152.714477 
L 612.464171 152.714483 
L 615.568883 152.714485 
L 618.673586 152.714486 
L 621.778298 152.714487 
L 624.883 152.714487 
L 627.987731 152.714487 
L 631.092424 152.714487 
L 634.197136 152.714487 
L 637.301848 152.714487 
L 640.40656 152.714487 
L 643.511253 152.714487 
L 646.615965 152.714487 
L 649.720677 152.714487 
L 652.825371 152.714487 
L 655.930101 152.714487 
L 659.034813 152.714487 
L 662.139507 152.714487 
L 665.244219 152.714487 
L 668.34893 152.714487 
L 671.453642 152.714487 
L 674.558336 152.714487 
L 677.663066 152.714487 
L 680.767778 152.714487 
L 683.872472 152.714487 
L 686.977184 152.714487 
L 690.081896 152.714487 
L 693.186607 152.714487 
L 696.291301 152.714487 
L 699.396013 152.714487 
" style="fill:none;stroke:#3b518b;stroke-linecap:square;stroke-opacity:0.5;stroke-width:3;"/>
   </g>
   <g id="line2d_37">
    <path clip-path="url(#pbc2fdef403)" d="M 392.029845 152.713299 
L 395.134557 152.711939 
L 398.239264 152.709166 
L 401.343971 152.703659 
L 404.448679 152.69302 
L 407.553386 152.673028 
L 410.658098 152.636479 
L 413.76281 152.571495 
L 416.867517 152.459133 
L 419.972224 152.270236 
L 423.076932 151.96153 
L 426.181639 151.471208 
L 429.286351 150.714516 
L 432.391061 149.580224 
L 435.49577 147.929258 
L 438.600475 145.597003 
L 441.705185 142.400975 
L 444.809892 138.155101 
L 447.914604 132.691167 
L 451.019316 125.886665 
L 454.124023 117.696525 
L 457.228726 108.184512 
L 460.333438 97.54859 
L 463.43815 86.134269 
L 466.542857 74.429963 
L 469.647565 63.041217 
L 472.752277 52.643888 
L 475.856984 43.920165 
L 478.961691 37.485352 
L 482.066399 33.816459 
L 485.171111 33.193716 
L 488.275822 35.665307 
L 491.380525 41.041077 
L 494.485233 48.916846 
L 497.58994 58.724515 
L 500.694656 69.799759 
L 503.799364 81.455713 
L 506.904071 93.051998 
L 510.008783 104.04906 
L 513.11349 114.042529 
L 516.218198 122.776116 
L 519.322905 130.134874 
L 522.427612 136.123926 
L 525.532329 140.838719 
L 528.637032 144.432794 
L 531.741739 147.088058 
L 534.846455 148.990551 
L 537.951163 150.313287 
L 541.05587 151.206106 
L 544.160577 151.791384 
L 547.265285 152.164129 
L 550.369997 152.394821 
L 553.474699 152.533601 
L 556.579411 152.61477 
L 559.684123 152.660933 
L 562.788835 152.686467 
L 565.893538 152.700205 
L 568.998241 152.707395 
L 572.102953 152.711056 
L 575.207665 152.71287 
L 578.312376 152.713744 
L 581.417079 152.714155 
L 584.5218 152.714342 
L 587.626503 152.714425 
L 590.731206 152.714461 
L 593.835918 152.714477 
L 596.94062 152.714483 
L 600.045332 152.714485 
L 603.150035 152.714486 
L 606.254765 152.714487 
L 609.359468 152.714487 
L 612.464171 152.714487 
L 615.568883 152.714487 
L 618.673586 152.714487 
L 621.778298 152.714487 
L 624.883 152.714487 
L 627.987731 152.714487 
L 631.092424 152.714487 
L 634.197136 152.714487 
L 637.301848 152.714487 
L 640.40656 152.714487 
L 643.511253 152.714487 
L 646.615965 152.714487 
L 649.720677 152.714487 
L 652.825371 152.714487 
L 655.930101 152.714487 
L 659.034813 152.714487 
L 662.139507 152.714487 
L 665.244219 152.714487 
L 668.34893 152.714487 
L 671.453642 152.714487 
L 674.558336 152.714487 
L 677.663066 152.714487 
L 680.767778 152.714487 
L 683.872472 152.714487 
L 686.977184 152.714487 
L 690.081896 152.714487 
L 693.186607 152.714487 
L 696.291301 152.714487 
L 699.396013 152.714487 
" style="fill:none;stroke:#443983;stroke-linecap:square;stroke-opacity:0.5;stroke-width:3;"/>
   </g>
   <g id="line2d_38">
    <path clip-path="url(#pbc2fdef403)" d="M 392.029845 152.674345 
L 395.134557 152.638859 
L 398.239264 152.575676 
L 401.343971 152.466277 
L 404.448679 152.2821 
L 407.553386 151.98068 
L 410.658098 151.501243 
L 413.76281 150.760281 
L 416.867517 149.647946 
L 419.972224 148.026534 
L 423.076932 145.732573 
L 426.181639 142.584199 
L 429.286351 138.39506 
L 432.391061 132.995452 
L 435.49577 126.259836 
L 438.600475 118.138504 
L 441.705185 108.689048 
L 444.809892 98.102376 
L 447.914604 86.71649 
L 451.019316 75.013096 
L 454.124023 63.592875 
L 457.228726 53.129567 
L 460.333438 44.306674 
L 463.43815 37.744658 
L 466.542857 33.928984 
L 469.647565 33.150782 
L 472.752277 35.470229 
L 475.856984 40.708775 
L 478.961691 48.471938 
L 482.066399 58.198288 
L 485.171111 69.226548 
L 488.275822 80.86933 
L 491.380525 92.482417 
L 494.485233 103.520232 
L 497.58994 113.571206 
L 500.694656 122.371653 
L 503.799364 129.79992 
L 506.904071 135.855815 
L 510.008783 140.631024 
L 513.11349 144.276947 
L 516.218198 146.974689 
L 519.322905 148.910545 
L 522.427612 150.258492 
L 525.532329 151.169672 
L 528.637032 151.767851 
L 531.741739 152.149361 
L 534.846455 152.385814 
L 537.951163 152.528262 
L 541.05587 152.611692 
L 544.160577 152.659208 
L 547.265285 152.685527 
L 550.369997 152.699706 
L 553.474699 152.707137 
L 556.579411 152.710927 
L 559.684123 152.712807 
L 562.788835 152.713714 
L 565.893538 152.714141 
L 568.998241 152.714336 
L 572.102953 152.714423 
L 575.207665 152.71446 
L 578.312376 152.714476 
L 581.417079 152.714483 
L 584.5218 152.714485 
L 587.626503 152.714486 
L 590.731206 152.714487 
L 593.835918 152.714487 
L 596.94062 152.714487 
L 600.045332 152.714487 
L 603.150035 152.714487 
L 606.254765 152.714487 
L 609.359468 152.714487 
L 612.464171 152.714487 
L 615.568883 152.714487 
L 618.673586 152.714487 
L 621.778298 152.714487 
L 624.883 152.714487 
L 627.987731 152.714487 
L 631.092424 152.714487 
L 634.197136 152.714487 
L 637.301848 152.714487 
L 640.40656 152.714487 
L 643.511253 152.714487 
L 646.615965 152.714487 
L 649.720677 152.714487 
L 652.825371 152.714487 
L 655.930101 152.714487 
L 659.034813 152.714487 
L 662.139507 152.714487 
L 665.244219 152.714487 
L 668.34893 152.714487 
L 671.453642 152.714487 
L 674.558336 152.714487 
L 677.663066 152.714487 
L 680.767778 152.714487 
L 683.872472 152.714487 
L 686.977184 152.714487 
L 690.081896 152.714487 
L 693.186607 152.714487 
L 696.291301 152.714487 
L 699.396013 152.714487 
" style="fill:none;stroke:#481f70;stroke-linecap:square;stroke-opacity:0.5;stroke-width:3;"/>
   </g>
   <g id="patch_8">
    <path d="M 392.029845 158.692672 
L 392.029845 27.172597 
" style="fill:none;stroke:#002147;stroke-linecap:square;stroke-linejoin:miter;stroke-width:0.8;"/>
   </g>
   <g id="patch_9">
    <path d="M 699.396013 158.692672 
L 699.396013 27.172597 
" style="fill:none;stroke:#002147;stroke-linecap:square;stroke-linejoin:miter;stroke-width:0.8;"/>
   </g>
   <g id="patch_10">
    <path d="M 392.029845 158.692672 
L 699.396013 158.692672 
" style="fill:none;stroke:#002147;stroke-linecap:square;stroke-linejoin:miter;stroke-width:0.8;"/>
   </g>
   <g id="patch_11">
    <path d="M 392.029845 27.172597 
L 699.396013 27.172597 
" style="fill:none;stroke:#002147;stroke-linecap:square;stroke-linejoin:miter;stroke-width:0.8;"/>
   </g>
   <g id="text_18">
    <!-- Score-based generative model -->
    <g style="fill:#002147;" transform="translate(424.447824 21.172597)scale(0.2 -0.2)">
     <defs>
      <path d="M 2528 4051 
C 2157 4102 2170 4224 1542 4224 
C 896 4224 326 3794 326 3114 
C 326 2439 883 2131 1446 1913 
C 1830 1766 2304 1585 2304 957 
C 2304 436 2016 167 1504 167 
C 909 167 525 443 384 1078 
C 301 1104 237 1091 173 1059 
C 198 564 224 398 301 83 
C 704 83 883 -64 1453 -64 
C 1741 -64 2016 6 2240 148 
C 2611 378 2842 771 2842 1181 
C 2842 1862 2330 2163 1805 2362 
C 1421 2504 781 2748 781 3287 
C 781 3647 1107 4006 1485 4006 
C 2106 4006 2304 3607 2432 3184 
C 2502 3171 2586 3178 2643 3223 
C 2618 3531 2592 3710 2528 4051 
z
" id="LinLibertineT-53" transform="scale(0.015625)"/>
      <path d="M 2547 584 
C 2522 641 2470 667 2413 673 
C 2195 391 1920 250 1645 250 
C 1178 250 787 725 787 1475 
C 787 2181 1094 2604 1517 2604 
C 1894 2604 1946 2379 1971 2155 
C 1990 1982 2080 1924 2214 1924 
C 2349 1924 2528 2007 2528 2206 
C 2528 2559 2163 2816 1549 2816 
C 915 2816 237 2245 237 1334 
C 237 507 698 -64 1504 -64 
C 1888 -64 2227 58 2547 584 
z
" id="LinLibertineT-63" transform="scale(0.015625)"/>
      <path d="M 1734 1408 
C 1818 1408 1907 1588 1907 1665 
C 1907 1729 1882 1793 1818 1793 
L 416 1793 
C 339 1793 256 1646 256 1530 
C 256 1466 294 1408 352 1408 
L 1734 1408 
z
" id="LinLibertineT-2d" transform="scale(0.015625)"/>
      <path d="M 2042 1798 
C 2042 1209 1741 1088 1504 1088 
C 966 1088 909 1538 909 1944 
C 909 2389 1069 2617 1421 2617 
C 1824 2617 2042 2325 2042 1798 
z
M 845 -84 
C 915 -103 1018 -116 1101 -116 
C 1299 -116 1478 -71 1568 -71 
C 1888 -71 2157 -71 2342 -176 
C 2592 -319 2669 -411 2669 -581 
C 2669 -1051 1990 -1299 1414 -1299 
C 1184 -1299 646 -1115 646 -682 
C 646 -466 659 -307 845 -84 
z
M 2842 2463 
C 2963 2463 3078 2579 3078 2707 
C 3078 2841 2957 2944 2784 2944 
C 2618 2944 2310 2841 2144 2636 
C 2067 2687 1856 2816 1478 2816 
C 909 2816 384 2435 384 1850 
C 384 1506 538 1310 717 1138 
C 538 983 435 705 435 485 
C 435 252 563 71 730 -13 
C 384 -220 205 -519 205 -797 
C 205 -1361 730 -1536 1222 -1536 
C 2086 -1536 3021 -1115 3021 -414 
C 3021 -206 2925 -43 2739 113 
C 2490 320 2042 320 1805 320 
C 1690 320 1530 294 1376 256 
C 1280 256 1216 256 1184 256 
C 998 256 774 350 774 637 
C 774 770 813 911 890 1024 
C 1043 934 1222 889 1472 889 
C 2035 889 2554 1235 2554 1853 
C 2554 2148 2464 2318 2278 2507 
C 2323 2577 2451 2674 2534 2674 
C 2579 2674 2624 2653 2662 2590 
C 2688 2533 2771 2463 2842 2463 
z
" id="LinLibertineT-67" transform="scale(0.015625)"/>
      <path d="M 2080 2573 
C 2426 2547 2464 2470 2330 2143 
L 1811 886 
C 1709 636 1677 636 1574 905 
L 1114 2143 
C 998 2451 973 2528 1312 2573 
C 1350 2611 1350 2746 1312 2784 
C 1101 2784 877 2784 666 2784 
C 454 2784 262 2784 70 2784 
C 32 2746 32 2611 70 2572 
C 410 2533 454 2431 582 2102 
L 1402 71 
C 1440 -25 1478 -64 1562 -64 
C 1626 -64 1670 -25 1715 84 
L 2566 2096 
C 2688 2379 2758 2540 3117 2572 
C 3155 2611 3155 2746 3117 2784 
C 2989 2784 2835 2784 2669 2784 
C 2458 2784 2240 2784 2080 2784 
C 2042 2746 2042 2611 2080 2573 
z
" id="LinLibertineT-76" transform="scale(0.015625)"/>
      <path d="M 1088 2309 
C 1082 2503 1069 2733 1037 2798 
C 1024 2830 1011 2849 960 2849 
C 781 2778 614 2721 173 2663 
C 160 2624 173 2522 186 2483 
C 531 2451 602 2419 602 2047 
L 602 795 
C 602 270 518 237 166 212 
C 128 173 128 39 166 0 
C 358 0 602 0 858 0 
C 1114 0 1312 0 1504 0 
C 1542 39 1542 173 1504 212 
C 1178 244 1107 270 1107 795 
L 1107 1848 
C 1107 1983 1165 2060 1216 2118 
C 1472 2368 1709 2496 1907 2496 
C 2150 2496 2330 2342 2330 1912 
L 2330 795 
C 2330 270 2278 237 1933 212 
C 1901 173 1901 39 1933 0 
C 2093 0 2330 0 2586 0 
C 2842 0 3053 0 3213 0 
C 3245 39 3245 173 3213 212 
C 2893 237 2835 270 2835 795 
L 2835 1814 
C 2835 1904 2835 1994 2829 2071 
C 3136 2413 3424 2496 3674 2496 
C 3917 2496 4058 2355 4058 1925 
L 4058 795 
C 4058 270 3994 237 3661 212 
C 3629 173 3629 39 3661 0 
C 3821 0 4058 0 4314 0 
C 4570 0 4794 0 4973 0 
C 5005 39 5005 173 4973 212 
C 4621 237 4563 270 4563 795 
L 4563 1810 
C 4563 2381 4467 2830 3904 2830 
C 3578 2830 3181 2708 2848 2355 
C 2829 2336 2790 2304 2778 2361 
C 2720 2624 2470 2830 2138 2830 
C 1766 2830 1434 2612 1165 2309 
C 1133 2277 1094 2232 1088 2309 
z
" id="LinLibertineT-6d" transform="scale(0.015625)"/>
     </defs>
     <use transform="scale(0.996264)" xlink:href="#LinLibertineT-53"/>
     <use transform="translate(48.318759 0)scale(0.996264)" xlink:href="#LinLibertineT-63"/>
     <use transform="translate(90.958892 0)scale(0.996264)" xlink:href="#LinLibertineT-6f"/>
     <use transform="translate(141.170562 0)scale(0.996264)" xlink:href="#LinLibertineT-72"/>
     <use transform="translate(177.434489 0)scale(0.996264)" xlink:href="#LinLibertineT-65"/>
     <use transform="translate(221.967442 0)scale(0.996264)" xlink:href="#LinLibertineT-2d"/>
     <use transform="translate(255.641184 0)scale(0.996264)" xlink:href="#LinLibertineT-62"/>
     <use transform="translate(304.757003 0)scale(0.996264)" xlink:href="#LinLibertineT-61"/>
     <use transform="translate(350.286234 0)scale(0.996264)" xlink:href="#LinLibertineT-73"/>
     <use transform="translate(389.140561 0)scale(0.996264)" xlink:href="#LinLibertineT-65"/>
     <use transform="translate(434.370896 0)scale(0.996264)" xlink:href="#LinLibertineT-64"/>
     <use transform="translate(509.6884 0)scale(0.996264)" xlink:href="#LinLibertineT-67"/>
     <use transform="translate(559.5016 0)scale(0.996264)" xlink:href="#LinLibertineT-65"/>
     <use transform="translate(604.034553 0)scale(0.996264)" xlink:href="#LinLibertineT-6e"/>
     <use transform="translate(658.032044 0)scale(0.996264)" xlink:href="#LinLibertineT-65"/>
     <use transform="translate(702.564997 0)scale(0.996264)" xlink:href="#LinLibertineT-72"/>
     <use transform="translate(739.625984 0)scale(0.996264)" xlink:href="#LinLibertineT-61"/>
     <use transform="translate(785.155216 0)scale(0.996264)" xlink:href="#LinLibertineT-74"/>
     <use transform="translate(816.63715 0)scale(0.996264)" xlink:href="#LinLibertineT-69"/>
     <use transform="translate(843.635895 0)scale(0.996264)" xlink:href="#LinLibertineT-76"/>
     <use transform="translate(892.353123 0)scale(0.996264)" xlink:href="#LinLibertineT-65"/>
     <use transform="translate(961.792676 0)scale(0.996264)" xlink:href="#LinLibertineT-6d"/>
     <use transform="translate(1040.497518 0)scale(0.996264)" xlink:href="#LinLibertineT-6f"/>
     <use transform="translate(1091.406569 0)scale(0.996264)" xlink:href="#LinLibertineT-64"/>
     <use transform="translate(1141.817473 0)scale(0.996264)" xlink:href="#LinLibertineT-65"/>
     <use transform="translate(1186.350426 0)scale(0.996264)" xlink:href="#LinLibertineT-6c"/>
    </g>
   </g>
  </g>
 </g>
 <defs>
  <clipPath id="pee2758b814">
   <rect height="131.520075" width="307.366168" x="56.758698" y="27.172597"/>
  </clipPath>
  <clipPath id="pbc2fdef403">
   <rect height="131.520075" width="307.366168" x="392.029845" y="27.172597"/>
  </clipPath>
 </defs>
</svg>
