<?xml version="1.0" encoding="UTF-8" standalone="no"?>
<!-- Generator: Adobe Illustrator 17.0.2, SVG Export Plug-In . SVG Version: 6.00 Build 0)  -->

<svg
   version="1.1"
   id="Layer_1"
   x="0px"
   y="0px"
   width="4.8499999in"
   height="1.524in"
   viewBox="0 0 465.6 146.304"
   enable-background="new 0 0 465.619 146.268"
   xml:space="preserve"
   sodipodi:docname="oxweb-logo-rect.svg"
   inkscape:version="1.3 (1:1.3+202307231459+0e150ed6c4)"
   xmlns:inkscape="http://www.inkscape.org/namespaces/inkscape"
   xmlns:sodipodi="http://sodipodi.sourceforge.net/DTD/sodipodi-0.dtd"
   xmlns="http://www.w3.org/2000/svg"
   xmlns:svg="http://www.w3.org/2000/svg"><defs
   id="defs53" /><sodipodi:namedview
   id="namedview53"
   pagecolor="#002147"
   bordercolor="#666666"
   borderopacity="1.0"
   inkscape:showpageshadow="2"
   inkscape:pageopacity="0.0"
   inkscape:pagecheckerboard="0"
   inkscape:deskcolor="#d1d1d1"
   inkscape:zoom="1.9935434"
   inkscape:cx="220.71252"
   inkscape:cy="-341.60279"
   inkscape:window-width="1848"
   inkscape:window-height="1016"
   inkscape:window-x="72"
   inkscape:window-y="27"
   inkscape:window-maximized="1"
   inkscape:current-layer="Layer_1"
   inkscape:document-units="in" />&#10;&#10;<rect
   style="fill:#002147;fill-opacity:1;stroke:none;stroke-width:218.822"
   id="rect55"
   width="465.60001"
   height="146.304"
   x="-7.6293945e-06"
   y="1.9073486e-06" /><g
   id="g20">&#10;	<path
   fill="#ffffff"
   d="m 161.328,48.737 c -1.14,1.14 -2.925,2.033 -5.605,2.033 -2.186,0 -4.282,-0.678 -5.697,-2.094 -1.849,-1.849 -1.787,-4.189 -1.787,-6.222 V 29.826 h 2.772 v 12.937 c 0,1.571 -0.062,3.11 1.171,4.342 0.831,0.832 2.124,1.294 3.633,1.294 1.51,0 2.649,-0.524 3.389,-1.263 1.386,-1.386 1.264,-2.957 1.264,-6.437 V 29.826 h 2.711 v 10.441 c -0.001,3.819 0.122,6.499 -1.851,8.47 z"
   id="path2" />&#10;	<path
   fill="#ffffff"
   d="m 182.976,50.37 -9.701,-16.355 0.062,16.355 h -2.526 V 29.826 h 2.74 l 9.704,16.417 -0.062,-16.417 h 2.523 V 50.37 Z"
   id="path3" />&#10;	<path
   fill="#ffffff"
   d="M 194.005,50.37 V 29.826 h 2.771 V 50.37 Z"
   id="path4" />&#10;	<path
   fill="#ffffff"
   d="m 212.181,50.37 h -3.049 l -7.084,-20.544 h 2.864 l 5.82,17.71 5.977,-17.71 h 2.679 z"
   id="path5" />&#10;	<path
   fill="#ffffff"
   d="M 224.772,50.37 V 29.826 h 11.367 v 2.279 h -8.656 v 6.468 h 8.132 v 2.218 h -8.132 v 7.238 h 8.901 v 2.341 z"
   id="path6" />&#10;	<path
   fill="#ffffff"
   d="m 253.956,50.37 -2.372,-5.359 c -1.417,-3.172 -2.096,-3.45 -4.867,-3.45 h -1.294 v 8.809 h -2.71 V 29.826 h 4.558 c 2.742,0 4.867,-0.03 6.53,1.633 1.017,1.016 1.603,2.372 1.603,4.096 0,1.417 -0.401,2.618 -1.263,3.542 -0.739,0.801 -1.942,1.479 -3.296,1.632 0.678,0.031 1.354,0.431 1.756,0.832 0.615,0.617 1.047,1.602 1.601,2.865 l 2.65,5.944 z m -2.187,-17.279 c -1.108,-1.109 -2.556,-1.078 -4.22,-1.078 h -2.126 v 7.361 h 0.957 c 1.969,0 3.972,0.062 5.266,-1.232 0.646,-0.646 1.017,-1.601 1.017,-2.587 -0.001,-1.11 -0.433,-2.002 -0.894,-2.464 z"
   id="path7" />&#10;	<path
   fill="#ffffff"
   d="m 267.435,50.801 c -3.636,0 -6.068,-1.971 -6.314,-2.218 l 1.324,-1.91 c 0.369,0.247 2.371,1.756 4.867,1.756 2.524,0 4.004,-1.509 4.004,-3.388 0,-2.248 -2.516,-3.357 -4.733,-4.435 -2.618,-1.263 -4.876,-2.618 -4.876,-5.637 0,-3.265 2.647,-5.544 6.435,-5.544 3.79,0 5.669,1.879 5.854,2.094 l -1.388,1.787 c -0.245,-0.215 -1.878,-1.54 -4.28,-1.54 -2.248,0 -3.85,1.109 -3.85,2.957 0,1.94 1.817,2.659 3.85,3.707 1.817,0.923 5.852,2.33 5.852,6.365 -0.001,3.388 -2.495,6.006 -6.745,6.006 z"
   id="path8" />&#10;	<path
   fill="#ffffff"
   d="M 280.674,50.37 V 29.826 h 2.772 V 50.37 Z"
   id="path9" />&#10;	<path
   fill="#ffffff"
   d="M 297.601,32.105 V 50.37 h -2.772 V 32.105 h -6.038 v -2.279 h 14.815 v 2.279 z"
   id="path10" />&#10;	<path
   fill="#ffffff"
   d="m 315.567,42.238 v 8.131 h -2.741 v -8.131 l -6.499,-12.413 h 3.029 l 5.011,9.667 4.914,-9.667 h 2.786 z"
   id="path11" />&#10;	<path
   fill="#ffffff"
   d="m 345.052,50.77 c -5.42,0 -9.331,-4.405 -9.331,-10.626 0,-6.345 3.881,-10.719 9.487,-10.719 5.482,0 9.301,4.374 9.301,10.565 0,6.406 -3.85,10.78 -9.457,10.78 z m -0.031,-19.004 c -3.911,0 -6.467,3.296 -6.467,8.316 0,4.99 2.865,8.316 6.622,8.316 4.28,0 6.499,-3.666 6.499,-8.501 0,-4.897 -2.741,-8.131 -6.654,-8.131 z"
   id="path12" />&#10;	<path
   fill="#ffffff"
   d="m 363.821,32.105 v 6.468 h 7.885 v 2.218 h -7.885 V 50.37 H 361.08 V 29.826 h 11.119 v 2.279 z"
   id="path13" />&#10;	<g
   id="g19">&#10;		<path
   fill="#ffffff"
   d="m 189.873,90.748 c 0,13.157 -10.133,22.687 -22.806,22.687 -12.902,0 -22.806,-9.651 -22.806,-22.201 0,-13.146 10.146,-22.684 22.806,-22.684 12.919,-10e-4 22.806,9.643 22.806,22.198 z m -7.342,0.241 c 0,-11.945 -5.676,-20.018 -15.464,-20.018 -10.613,0 -15.438,9.768 -15.438,20.018 0,11.951 5.672,20.066 15.438,20.066 10.631,0 15.464,-9.791 15.464,-20.066 z"
   id="path14" />&#10;		<path
   fill="#ffffff"
   d="m 329.138,90.748 c 0,13.157 -10.137,22.687 -22.807,22.687 -12.901,0 -22.807,-9.651 -22.807,-22.201 0,-13.146 10.142,-22.684 22.807,-22.684 12.908,-10e-4 22.807,9.643 22.807,22.198 z m -7.355,0.241 c 0,-11.945 -5.672,-20.018 -15.452,-20.018 -10.622,0 -15.445,9.768 -15.445,20.018 0,11.951 5.671,20.066 15.445,20.066 10.618,0 15.452,-9.791 15.452,-20.066 z"
   id="path15" />&#10;		<path
   fill="#ffffff"
   d="m 346.757,91.11 h 5.428 c 8.207,0 9.902,-5.041 9.902,-10 0,-3.714 -1.574,-6.746 -5.43,-8.439 -2.06,-0.848 -3.989,-0.966 -6.64,-0.966 h -3.261 V 91.11 Z m 9.9,7.15 c -2.536,-3.635 -3.503,-4.729 -6.64,-4.729 h -3.261 v 14.501 c 0,1.213 0.362,1.81 1.81,2.058 l 4.95,0.965 v 1.704 h -19.543 v -1.704 l 4.459,-0.965 c 1.453,-0.369 1.803,-0.845 1.803,-2.058 V 74.007 c 0,-1.214 -0.47,-1.824 -1.803,-2.064 l -4.459,-0.972 v -1.689 h 19.059 c 3.988,0 6.761,0.358 9.054,1.209 4.701,1.811 7.353,6.295 7.353,10.494 0,5.322 -3.975,9.763 -10.615,11.338 v 0.246 c 1.333,0.598 2.052,1.459 6.761,7.621 l 6.034,7.843 c 0.84,1.213 1.811,2.058 3.372,2.303 l 4.109,0.72 v 1.704 h -10.494 c -1.212,0 -1.818,-0.369 -2.901,-1.829 z"
   id="path16" />&#10;		<path
   fill="#ffffff"
   d="m 271.578,84.254 h 2.052 V 98.63 h -2.052 l -0.849,-4.13 c -0.35,-1.566 -1.317,-2.178 -2.772,-2.178 h -10.494 v 15.71 c 0,1.213 0.363,1.81 1.803,2.058 l 4.958,0.965 v 1.704 h -19.557 v -1.704 l 4.458,-0.965 c 1.456,-0.369 1.819,-0.845 1.819,-2.058 V 74.007 c 0,-1.214 -0.486,-1.824 -1.819,-2.064 l -4.458,-0.972 v -1.689 h 32.945 v 10.854 h -2.046 l -1.695,-6.128 c -0.482,-1.706 -1.454,-2.303 -2.899,-2.303 h -13.509 v 18.192 h 10.494 c 1.454,0 2.422,-0.568 2.772,-2.131 z"
   id="path17" />&#10;		<path
   fill="#ffffff"
   d="m 382.599,112.759 v -1.704 l 4.461,-0.965 c 1.451,-0.369 1.815,-0.845 1.815,-2.058 V 74.007 c 0,-1.214 -0.484,-1.824 -1.815,-2.064 l -4.461,-0.972 v -1.689 h 20.397 c 5.548,0 9.533,0.716 12.781,2.178 8.214,3.759 11.949,11.828 11.949,19.773 0,7.749 -2.886,14.973 -10.253,18.857 -3.378,1.807 -8.082,2.669 -14.235,2.669 z m 12.675,-41.054 v 36.681 c 0,1.58 0.358,1.95 1.93,1.95 h 5.308 c 5.065,0 8.808,-0.614 11.464,-2.547 4.469,-3.269 6.397,-8.921 6.397,-16.433 0,-7.349 -1.929,-14.328 -7.964,-17.842 -2.546,-1.451 -5.795,-1.81 -10.864,-1.81 h -6.271 z"
   id="path18" />&#10;		<path
   fill="#ffffff"
   d="m 207.019,111.055 v 1.704 h -15.574 v -1.704 l 3.859,-0.843 c 1.448,-0.37 2.538,-0.843 3.391,-1.951 l 13.04,-16.659 -13.04,-17.595 c -0.853,-1.214 -1.942,-1.824 -3.268,-2.185 l -3.611,-0.852 v -1.689 h 19.191 v 1.689 l -4.111,0.734 c -1.32,0.238 -1.199,0.597 -0.469,1.567 l 9.641,13.65 h 0.246 l 10.01,-13.408 c 0.727,-0.967 0.727,-1.451 -0.363,-1.691 l -3.855,-0.852 v -1.689 h 15.559 v 1.689 l -3.852,0.852 c -1.454,0.361 -2.545,0.848 -3.385,1.937 l -12.418,15.57 13.863,18.704 c 0.848,1.213 1.938,1.81 3.27,2.18 l 3.609,0.843 v 1.704 H 219.56 v -1.704 l 4.119,-0.72 c 1.312,-0.245 1.189,-0.614 0.48,-1.583 L 213.644,94.028 h -0.236 l -10.739,14.725 c -0.729,0.969 -0.845,1.213 0.482,1.46 z"
   id="path19" />&#10;	</g>&#10;</g>&#10;<path
   fill="#ffffff"
   d="m 91.52,54.474 c 0,0 0,19.937 0,21.509 -1.519,0 -15.645,0 -15.645,0 l -0.215,0.531 c -0.254,0.63 -0.715,1.213 -2.343,1.213 -1.627,0 -2.087,-0.583 -2.342,-1.213 l -0.214,-0.531 c 0,0 -14.093,0 -15.612,0 0,-1.572 0,-21.509 0,-21.509 h -1.7 v 0.556 l -1.192,-0.366 c -0.175,-0.529 -0.668,-0.914 -1.255,-0.914 -0.732,0 -1.329,0.595 -1.329,1.329 0,0.734 0.597,1.329 1.329,1.329 0.305,0 0.583,-0.107 0.807,-0.281 l 1.64,0.504 v 1.642 l -1.18,-0.211 c -0.203,-0.431 -0.625,-0.74 -1.133,-0.765 -0.732,-0.035 -1.356,0.53 -1.391,1.263 -0.036,0.733 0.531,1.355 1.263,1.391 0.386,0.019 0.738,-0.132 0.993,-0.383 l 1.448,0.26 v 1.679 l -1.238,-0.055 c -0.236,-0.367 -0.647,-0.612 -1.116,-0.612 -0.732,0 -1.329,0.595 -1.329,1.328 0,0.733 0.597,1.329 1.329,1.329 0.426,0 0.801,-0.205 1.044,-0.517 l 1.309,0.058 v 1.826 l -1.28,0.046 c -0.243,-0.317 -0.621,-0.525 -1.051,-0.525 -0.732,0 -1.328,0.595 -1.328,1.328 0,0.733 0.596,1.328 1.328,1.328 0.465,0 0.874,-0.24 1.11,-0.603 l 1.22,-0.044 v 1.682 l -1.414,0.243 c -0.241,-0.241 -0.573,-0.39 -0.94,-0.39 -0.732,0 -1.329,0.595 -1.329,1.328 0,0.735 0.597,1.328 1.329,1.328 0.528,0 0.981,-0.311 1.195,-0.757 l 1.158,-0.199 v 1.646 l -1.569,0.479 c -0.225,-0.173 -0.502,-0.281 -0.808,-0.281 -0.733,0 -1.329,0.594 -1.329,1.328 0,0.735 0.596,1.329 1.329,1.329 0.587,0 1.08,-0.383 1.255,-0.913 l 1.122,-0.343 v 1.584 l -1.753,0.756 c -0.217,-0.133 -0.475,-0.205 -0.748,-0.195 -0.732,0.029 -1.304,0.648 -1.275,1.381 0.029,0.734 0.65,1.305 1.381,1.275 0.62,-0.025 1.119,-0.473 1.242,-1.053 l 1.152,-0.498 v 1.561 c 0,0 15.37,0 16.264,0 0.689,1.146 1.855,1.742 3.604,1.742 1.751,0 2.915,-0.596 3.605,-1.742 0.894,0 16.298,0 16.298,0 V 54.475 H 91.52 Z"
   id="path20" />&#10;<g
   id="g21">&#10;	<ellipse
   fill="#ffffff"
   cx="62.659"
   cy="48.631001"
   rx="5.9299998"
   ry="1.137"
   id="ellipse20" />&#10;	<path
   fill="#ffffff"
   d="m 70.822,40.15 -3.423,2.405 -0.029,0.244 0.813,0.365 c 0.161,0.081 0.163,0.21 0.081,0.288 l -2.15,1.814 -0.205,-0.018 -1.522,-2.245 c -0.104,-0.146 -0.067,-0.291 0.116,-0.321 l 1.022,-0.167 V 42.257 L 62.876,38.512 H 62.44 l -2.649,3.745 v 0.258 l 1.022,0.167 c 0.183,0.031 0.222,0.176 0.116,0.321 l -1.523,2.245 -0.206,0.019 -2.007,-1.814 c -0.082,-0.078 -0.081,-0.208 0.079,-0.288 l 0.814,-0.365 -0.029,-0.244 -3.565,-2.405 -0.289,0.113 2.093,6.396 c 1.062,-0.477 3.503,-0.813 6.36,-0.827 2.857,0.013 5.299,0.35 6.36,0.827 l 2.094,-6.396 z"
   id="path21" />&#10;</g>&#10;<g
   id="g22">&#10;	<ellipse
   fill="#ffffff"
   cx="73.292999"
   cy="91.519997"
   rx="5.9299998"
   ry="1.137"
   id="ellipse21" />&#10;	<path
   fill="#ffffff"
   d="m 81.456,83.038 -3.423,2.406 -0.029,0.244 0.813,0.365 c 0.161,0.08 0.163,0.209 0.081,0.287 l -2.15,1.815 -0.205,-0.019 -1.522,-2.244 c -0.104,-0.146 -0.067,-0.291 0.117,-0.322 l 1.021,-0.166 v -0.258 l -2.65,-3.745 h -0.435 l -2.649,3.745 v 0.258 l 1.022,0.166 c 0.183,0.031 0.222,0.176 0.116,0.322 l -1.523,2.244 -0.204,0.019 -2.008,-1.815 c -0.082,-0.078 -0.08,-0.207 0.08,-0.287 l 0.814,-0.365 -0.031,-0.244 -3.564,-2.406 -0.289,0.113 2.094,6.396 c 1.062,-0.478 3.503,-0.814 6.36,-0.827 2.857,0.013 5.298,0.35 6.36,0.827 l 2.094,-6.396 z"
   id="path22" />&#10;</g>&#10;<g
   id="g23">&#10;	<ellipse
   fill="#ffffff"
   cx="83.900002"
   cy="48.631001"
   rx="5.9299998"
   ry="1.137"
   id="ellipse22" />&#10;	<path
   fill="#ffffff"
   d="m 92.064,40.15 -3.423,2.405 -0.029,0.244 0.813,0.365 c 0.161,0.081 0.163,0.21 0.081,0.288 l -2.15,1.814 -0.204,-0.018 -1.523,-2.245 c -0.104,-0.146 -0.067,-0.291 0.116,-0.321 l 1.023,-0.167 v -0.258 l -2.65,-3.745 h -0.437 l -2.649,3.745 v 0.258 l 1.022,0.167 c 0.184,0.031 0.222,0.176 0.116,0.321 l -1.523,2.245 -0.204,0.018 -2.008,-1.838 C 78.354,43.35 78.354,43.22 78.514,43.14 l 0.816,-0.342 -0.031,-0.244 -3.565,-2.405 -0.288,0.113 2.093,6.396 c 1.062,-0.477 3.503,-0.813 6.36,-0.827 2.858,0.013 5.299,0.35 6.361,0.827 l 2.093,-6.396 z"
   id="path23" />&#10;</g>&#10;<circle
   fill="#ffffff"
   cx="73.246002"
   cy="22.934"
   r="1.216"
   id="circle23" />&#10;<circle
   fill="#ffffff"
   cx="101.639"
   cy="34.206001"
   r="1.216"
   id="circle24" />&#10;<g
   id="g26">&#10;	<path
   fill="#ffffff"
   d="m 59.862,56.505 c -0.102,0 -0.159,0.014 -0.19,0.031 -0.023,0.008 -0.026,0.111 -0.026,0.221 v 1.7 c 0,0.393 0.098,0.469 0.31,0.469 0.381,0 0.767,-0.42 0.767,-1.204 -10e-4,-0.951 -0.484,-1.217 -0.861,-1.217 z"
   id="path24" />&#10;	<path
   fill="#ffffff"
   d="m 63.478,58.996 c 0.381,0 0.588,-0.368 0.588,-1.168 0,-0.889 -0.318,-1.38 -0.699,-1.38 -0.34,0 -0.623,0.389 -0.623,1.163 -10e-4,0.801 0.3,1.385 0.734,1.385 z"
   id="path25" />&#10;	<path
   fill="#ffffff"
   d="m 72.44,57.824 c 0,-1.784 -0.604,-3.222 -1.91,-3.99 -0.818,-0.481 -1.927,-0.638 -3.294,-0.638 l -9.894,-0.002 v 20.067 h 10.773 c 2.494,0 3.96,0.562 4.088,2.799 h 0.239 z m -7.299,1.164 c 0.213,-0.019 0.296,-0.062 0.323,-0.227 0.023,-0.137 0.048,-0.371 0.07,-0.774 l 0.049,-0.893 c 0.031,-0.557 -0.004,-0.606 -0.354,-0.637 v -0.173 h 1.04 l 0.774,1.753 0.677,-1.753 h 1.075 v 0.173 c -0.336,0.031 -0.353,0.049 -0.341,0.514 l 0.044,1.482 c 0.014,0.491 0.021,0.504 0.341,0.536 v 0.171 h -1.385 v -0.171 c 0.331,-0.032 0.345,-0.045 0.341,-0.536 l -0.014,-1.558 h -0.018 l -0.854,2.217 H 66.67 L 65.86,57.05 h -0.009 l -0.031,0.982 c -0.014,0.38 -0.009,0.592 0.009,0.729 0.018,0.165 0.115,0.205 0.402,0.227 v 0.171 h -1.093 v -0.171 z m 2.507,4.348 -0.066,-0.032 c -0.362,-0.168 -0.774,-0.398 -0.774,-0.871 0,-0.5 0.362,-0.907 1.058,-0.907 0.137,0 0.279,0.018 0.407,0.054 0.101,0.026 0.172,0.043 0.229,0.062 0.018,0.172 0.049,0.389 0.098,0.689 l -0.195,0.031 c -0.098,-0.292 -0.252,-0.606 -0.602,-0.606 -0.226,0 -0.385,0.172 -0.385,0.385 0,0.221 0.172,0.349 0.455,0.478 l 0.098,0.044 c 0.408,0.186 0.757,0.412 0.757,0.929 0,0.544 -0.438,0.942 -1.123,0.942 -0.177,0 -0.359,-0.035 -0.479,-0.075 -0.131,-0.045 -0.225,-0.08 -0.277,-0.107 -0.035,-0.204 -0.094,-0.442 -0.147,-0.739 l 0.195,-0.058 c 0.092,0.257 0.354,0.748 0.787,0.748 0.23,0 0.407,-0.151 0.407,-0.438 -10e-4,-0.258 -0.174,-0.404 -0.443,-0.529 z m -2.913,-1.34 c 0.08,0.247 0.43,1.12 0.594,1.553 0.137,-0.376 0.42,-1.222 0.49,-1.429 0.094,-0.271 0.066,-0.319 -0.133,-0.34 l -0.133,-0.014 v -0.173 h 1.072 v 0.173 c -0.254,0.031 -0.314,0.053 -0.488,0.456 -0.025,0.061 -0.565,1.375 -0.897,2.278 h -0.341 c -0.306,-0.796 -0.721,-1.89 -0.881,-2.306 -0.144,-0.38 -0.234,-0.402 -0.447,-0.429 v -0.173 h 1.43 v 0.173 l -0.15,0.017 c -0.164,0.019 -0.164,0.058 -0.116,0.214 z m -1.28,-5.779 c 0.81,0 1.435,0.593 1.435,1.469 0,0.947 -0.647,1.539 -1.496,1.539 -0.894,0 -1.474,-0.65 -1.474,-1.464 0,-0.717 0.478,-1.544 1.535,-1.544 z m -4.92,2.942 v -0.171 c 0.323,-0.028 0.358,-0.058 0.358,-0.536 v -1.461 c 0,-0.477 -0.035,-0.509 -0.323,-0.535 v -0.173 h 1.292 c 0.545,0 0.996,0.107 1.291,0.394 0.209,0.199 0.382,0.526 0.382,0.907 0,1.102 -0.837,1.575 -1.858,1.575 z m 2.944,7.916 c -0.305,0.026 -0.34,0.057 -0.34,0.535 v 1.46 c 0,0.478 0.035,0.509 0.34,0.536 v 0.172 h -1.433 v -0.172 c 0.305,-0.027 0.341,-0.059 0.341,-0.536 v -1.46 c 0,-0.478 -0.036,-0.508 -0.341,-0.535 v -0.173 h 1.433 z m 0.071,-2.606 h -1.102 v -0.172 c 0.195,-0.01 0.31,-0.071 0.332,-0.227 0.018,-0.137 0.035,-0.38 0.035,-0.845 v -0.814 c 0,-0.327 -0.01,-0.385 -0.098,-0.509 -0.066,-0.093 -0.177,-0.123 -0.336,-0.137 v -0.173 h 0.979 l 1.473,1.836 h 0.008 v -0.593 c 0,-0.465 -0.017,-0.708 -0.034,-0.845 -0.022,-0.154 -0.142,-0.212 -0.434,-0.226 v -0.173 h 1.128 v 0.173 c -0.221,0.009 -0.336,0.071 -0.357,0.226 -0.018,0.137 -0.037,0.38 -0.037,0.845 V 64.5 h -0.38 L 61.09,62.411 h -0.009 v 0.814 c 0,0.465 0.018,0.708 0.035,0.845 0.023,0.155 0.142,0.213 0.434,0.227 z m 2.412,5.309 h -2.193 v -0.172 c 0.336,-0.027 0.371,-0.059 0.371,-0.536 v -1.46 c 0,-0.478 -0.035,-0.508 -0.332,-0.535 v -0.173 h 1.438 v 0.173 c -0.318,0.026 -0.354,0.057 -0.354,0.535 v 1.518 c 0,0.23 0.009,0.34 0.088,0.38 0.072,0.036 0.174,0.04 0.311,0.04 0.142,0 0.332,-0.013 0.425,-0.128 0.07,-0.083 0.146,-0.203 0.217,-0.438 l 0.19,0.031 c -0.028,0.168 -0.12,0.628 -0.161,0.765 z m 2.469,0 h -2.194 v -0.172 c 0.337,-0.027 0.372,-0.059 0.372,-0.536 v -1.46 c 0,-0.478 -0.035,-0.508 -0.332,-0.535 v -0.173 h 1.438 v 0.173 c -0.319,0.026 -0.354,0.057 -0.354,0.535 v 1.518 c 0,0.23 0.01,0.34 0.09,0.38 0.07,0.036 0.172,0.04 0.309,0.04 0.142,0 0.332,-0.013 0.425,-0.128 0.071,-0.083 0.146,-0.203 0.217,-0.438 l 0.19,0.031 c -0.026,0.168 -0.12,0.628 -0.161,0.765 z m 2.77,-2.703 c -0.253,0.031 -0.314,0.053 -0.487,0.456 -0.026,0.062 -0.566,1.376 -0.898,2.278 h -0.341 c -0.307,-0.796 -0.722,-1.89 -0.881,-2.306 -0.147,-0.38 -0.234,-0.402 -0.447,-0.429 v -0.173 h 1.43 v 0.173 l -0.15,0.017 c -0.164,0.018 -0.164,0.058 -0.115,0.213 0.08,0.247 0.43,1.12 0.594,1.553 0.137,-0.376 0.42,-1.221 0.49,-1.429 0.093,-0.27 0.066,-0.319 -0.133,-0.341 L 68.13,67.074 v -0.173 h 1.071 z m 1.373,-10.619 c -0.307,0.026 -0.341,0.058 -0.341,0.535 v 1.461 c 0,0.478 0.034,0.508 0.341,0.536 v 0.171 H 69.14 v -0.171 c 0.305,-0.028 0.34,-0.058 0.34,-0.536 v -1.461 c 0,-0.477 -0.035,-0.509 -0.34,-0.535 v -0.173 h 1.434 z"
   id="path26" />&#10;</g>&#10;<g
   id="g28">&#10;	<polygon
   fill="#ffffff"
   points="85.713,58.123 86.279,58.123 86,57.278 85.986,57.278 "
   id="polygon26" />&#10;	<path
   fill="#ffffff"
   d="m 83.51,63.016 c 0,0.801 0.301,1.386 0.734,1.386 0.381,0 0.589,-0.368 0.589,-1.169 0,-0.89 -0.317,-1.38 -0.699,-1.38 -0.341,0 -0.624,0.389 -0.624,1.163 z"
   id="path27" />&#10;	<polygon
   fill="#ffffff"
   points="84.674,68.742 85.24,68.742 84.961,67.897 84.947,67.897 "
   id="polygon27" />&#10;	<path
   fill="#ffffff"
   d="m 79.367,53.196 c -1.365,0 -2.475,0.157 -3.293,0.638 -1.307,0.768 -1.91,2.206 -1.91,3.99 l -0.001,18.237 h 0.238 c 0.128,-2.237 1.595,-2.799 4.088,-2.799 H 89.332 V 53.195 Z m 2.333,3.183 h 0.978 l 1.473,1.836 h 0.008 v -0.593 c 0,-0.465 -0.017,-0.708 -0.034,-0.845 -0.023,-0.154 -0.142,-0.212 -0.434,-0.225 v -0.173 h 1.128 v 0.173 c -0.221,0.008 -0.336,0.071 -0.358,0.225 -0.017,0.137 -0.036,0.38 -0.036,0.845 v 1.664 h -0.379 l -1.638,-2.089 h -0.009 v 0.814 c 0,0.464 0.018,0.708 0.035,0.845 0.023,0.155 0.142,0.212 0.434,0.227 v 0.172 h -1.101 v -0.172 c 0.194,-0.01 0.309,-0.071 0.33,-0.227 0.019,-0.137 0.036,-0.381 0.036,-0.845 v -0.814 c 0,-0.327 -0.01,-0.385 -0.098,-0.508 -0.066,-0.093 -0.178,-0.124 -0.335,-0.137 z m 3.956,6.713 c 0,0.947 -0.646,1.539 -1.496,1.539 -0.893,0 -1.473,-0.65 -1.473,-1.464 0,-0.717 0.477,-1.544 1.534,-1.544 0.811,0 1.435,0.593 1.435,1.469 z m -3.338,1.301 v 0.172 h -1.434 v -0.172 c 0.305,-0.027 0.34,-0.059 0.34,-0.536 v -1.46 c 0,-0.478 -0.035,-0.509 -0.34,-0.535 v -0.173 h 1.434 v 0.173 c -0.307,0.026 -0.341,0.057 -0.341,0.535 v 1.46 c 10e-4,0.478 0.035,0.509 0.341,0.536 z M 80.04,59.084 c 0.306,-0.027 0.341,-0.058 0.341,-0.536 v -1.461 c 0,-0.477 -0.035,-0.509 -0.341,-0.535 v -0.173 h 1.433 v 0.173 c -0.305,0.026 -0.34,0.057 -0.34,0.535 v 1.461 c 0,0.478 0.035,0.509 0.34,0.536 v 0.172 H 80.04 Z m 0.026,5.309 v 0.172 H 78.52 v -0.172 c 0.354,-0.027 0.389,-0.059 0.389,-0.536 v -1.938 h -0.075 c -0.296,0 -0.417,0.054 -0.487,0.134 -0.053,0.065 -0.105,0.181 -0.164,0.429 h -0.186 c 0.019,-0.372 0.045,-0.677 0.053,-0.902 h 0.138 c 0.067,0.101 0.11,0.11 0.229,0.11 h 1.766 c 0.115,0 0.137,-0.026 0.209,-0.11 h 0.137 c 0.004,0.186 0.026,0.562 0.048,0.889 l -0.194,0.014 C 80.317,62.218 80.269,62.102 80.202,62.027 80.127,61.947 79.98,61.921 79.768,61.921 H 79.66 v 1.938 c 0,0.476 0.036,0.507 0.406,0.534 z m -2.933,-5.137 h -1.092 v -0.172 c 0.212,-0.018 0.296,-0.062 0.322,-0.227 0.022,-0.137 0.049,-0.372 0.07,-0.774 l 0.049,-0.893 c 0.031,-0.557 -0.004,-0.606 -0.354,-0.637 V 56.38 h 1.039 l 0.775,1.753 0.678,-1.753 h 1.075 v 0.173 c -0.337,0.031 -0.355,0.048 -0.342,0.513 l 0.044,1.482 c 0.014,0.491 0.022,0.504 0.341,0.536 v 0.172 h -1.384 v -0.172 c 0.33,-0.032 0.345,-0.045 0.34,-0.536 L 78.68,56.99 h -0.018 l -0.854,2.217 h -0.239 l -0.81,-2.062 H 76.75 l -0.03,0.983 c -0.015,0.38 -0.01,0.592 0.008,0.729 0.018,0.164 0.115,0.204 0.402,0.227 v 0.172 z m 3.877,10.619 h -1.385 v -0.172 c 0.332,-0.031 0.346,-0.045 0.34,-0.536 l -0.012,-1.558 h -0.018 l -0.855,2.217 h -0.237 l -0.81,-2.062 h -0.01 l -0.03,0.982 c -0.014,0.38 -0.009,0.592 0.009,0.729 0.018,0.164 0.113,0.204 0.402,0.227 v 0.172 H 77.31 v -0.172 c 0.213,-0.019 0.297,-0.062 0.324,-0.227 0.021,-0.137 0.048,-0.372 0.069,-0.774 l 0.05,-0.894 c 0.031,-0.558 -0.005,-0.606 -0.354,-0.637 v -0.173 h 1.04 l 0.774,1.752 0.677,-1.752 h 1.076 v 0.173 c -0.336,0.031 -0.353,0.049 -0.342,0.513 l 0.045,1.482 c 0.013,0.491 0.021,0.504 0.34,0.536 v 0.174 z m 2.517,0 h -2.252 v -0.172 c 0.34,-0.027 0.375,-0.059 0.375,-0.536 v -1.461 c 0,-0.478 -0.035,-0.508 -0.33,-0.535 v -0.173 h 2.096 c 0.005,0.076 0.027,0.399 0.049,0.73 l -0.194,0.014 c -0.045,-0.217 -0.093,-0.34 -0.164,-0.412 -0.069,-0.075 -0.216,-0.102 -0.45,-0.102 h -0.075 c -0.169,0 -0.177,0 -0.177,0.155 v 0.854 h 0.221 c 0.38,0 0.393,-0.026 0.438,-0.363 h 0.195 v 1.044 h -0.195 c -0.045,-0.389 -0.058,-0.415 -0.438,-0.415 h -0.221 v 0.721 c 0,0.231 0.008,0.34 0.088,0.38 0.071,0.036 0.172,0.04 0.31,0.04 0.177,0 0.372,-0.026 0.469,-0.132 0.075,-0.08 0.15,-0.243 0.218,-0.456 l 0.193,0.031 c -0.023,0.217 -0.115,0.668 -0.156,0.788 z m 3.098,0 h -1.39 v -0.172 l 0.134,-0.019 c 0.162,-0.022 0.171,-0.066 0.114,-0.226 l -0.159,-0.451 h -0.726 l -0.134,0.425 c -0.057,0.19 -0.057,0.234 0.147,0.256 l 0.129,0.014 v 0.172 h -1.031 v -0.172 c 0.226,-0.031 0.292,-0.05 0.438,-0.421 l 0.886,-2.287 0.306,-0.062 0.301,0.836 c 0.19,0.527 0.379,1.049 0.547,1.5 0.143,0.384 0.223,0.406 0.439,0.434 v 0.173 z m 1.039,-10.619 h -1.391 v -0.172 l 0.135,-0.018 c 0.162,-0.022 0.171,-0.067 0.113,-0.226 l -0.158,-0.451 h -0.727 l -0.133,0.425 c -0.057,0.191 -0.057,0.234 0.146,0.256 l 0.128,0.014 v 0.172 h -1.029 v -0.172 c 0.225,-0.032 0.293,-0.05 0.439,-0.421 l 0.885,-2.287 0.305,-0.062 0.3,0.836 c 0.191,0.526 0.382,1.049 0.549,1.5 0.143,0.384 0.223,0.407 0.44,0.434 v 0.172 z"
   id="path28" />&#10;</g>&#10;<circle
   fill="#ffffff"
   cx="68.040001"
   cy="106.303"
   r="1.216"
   id="circle28" />&#10;<circle
   fill="#ffffff"
   cx="80.014999"
   cy="108.266"
   r="1.216"
   id="circle29" />&#10;<path
   fill="#ffffff"
   d="M 35.311,41.913 Z"
   id="path29" />&#10;<path
   fill="#ffffff"
   d="M 82.646,28.586 Z"
   id="path30" />&#10;<path
   fill="#ffffff"
   d="M 84.926,20.573 Z"
   id="path31" />&#10;<path
   fill="#ffffff"
   d="M 103.98,44.035 Z"
   id="path32" />&#10;<path
   fill="#ffffff"
   d="M 117.328,70.429 Z"
   id="path33" />&#10;<path
   fill="#ffffff"
   d="M 113.16,82.436 Z"
   id="path34" />&#10;<path
   fill="#ffffff"
   d="m 40.732,83.395 c 0.416,0.002 1.593,0.115 2.59,1.533 0.41,0.582 0.701,1.27 0.699,1.989 -0.002,1.19 -0.582,1.879 -1.979,2.861 l -3.706,2.615 -1.008,-1.435 4.15,-2.928 c 0.384,-0.27 0.896,-0.713 0.897,-1.282 0,-0.313 -0.042,-0.568 -0.326,-0.973 -0.44,-0.626 -0.901,-0.679 -1.193,-0.68 -0.44,-0.001 -0.856,0.265 -1.749,0.893 l -3.596,2.345 -0.98,-1.394 3.818,-2.499 c 1.009,-0.708 1.66,-1.049 2.383,-1.045 z"
   id="path35" />&#10;<path
   fill="#ffffff"
   d="m 34.133,80.006 5.073,-1.99 0.547,1.422 -7.658,2.969 -0.542,-1.483 3.962,-5.046 -5.109,1.785 -0.545,-1.495 7.728,-2.702 0.513,1.402 z"
   id="path36" />&#10;<path
   fill="#ffffff"
   d="m 28.629,69.819 8.135,-1.238 0.264,1.732 -8.136,1.237 z"
   id="path37" />&#10;<path
   fill="#ffffff"
   d="m 36.473,63.18 -8.342,2.5 0.074,-1.764 6.258,-1.686 -6.092,-2.245 0.072,-1.714 8.101,3.207 z"
   id="path38" />&#10;<path
   fill="#ffffff"
   d="m 29.316,53.817 1.364,-4.794 1.353,0.385 -0.891,3.133 1.839,0.524 0.837,-2.942 1.329,0.377 -0.838,2.943 2.017,0.574 0.918,-3.228 1.377,0.391 -1.391,4.889 z"
   id="path39" />&#10;<path
   fill="#ffffff"
   d="m 41.882,44.586 -2.438,-0.215 c -1.154,-0.107 -1.266,0.169 -1.591,0.752 l -0.097,0.171 2.893,1.538 -0.859,1.522 -7.235,-3.96 1.186,-2.083 c 0.535,-0.959 1.105,-1.979 2.553,-1.979 0.909,0 2.174,0.764 2.174,2.138 0,0.244 -0.059,0.501 -0.161,0.771 0.326,-0.469 0.915,-0.539 1.45,-0.533 0.298,0.002 0.589,0.047 0.83,0.067 l 2.196,0.193 z m -6.075,-2.491 c -0.419,0.118 -0.637,0.442 -0.95,1.002 l -0.271,0.466 1.996,1.076 0.336,-0.604 c 0.283,-0.506 0.345,-0.796 0.245,-1.148 -0.076,-0.269 -0.329,-0.551 -0.576,-0.689 -0.29,-0.162 -0.578,-0.161 -0.78,-0.103 z"
   id="path40" />&#10;<path
   fill="#ffffff"
   d="m 45.526,28.384 1.399,-1.054 4.952,6.571 -1.398,1.055 z"
   id="path41" />&#10;<path
   fill="#ffffff"
   d="m 54.761,24.304 3.127,6.064 -1.557,0.803 -3.127,-6.064 -2.006,1.035 -0.645,-1.25 5.56,-2.867 0.644,1.25 z"
   id="path42" />&#10;<path
   fill="#ffffff"
   d="m 64.392,24.744 0.793,3.184 -1.627,0.406 -0.794,-3.185 -3.71,-4.174 1.724,-0.43 2.454,2.871 0.825,-3.694 1.653,-0.405 z"
   id="path43" />&#10;<path
   fill="#ffffff"
   d="m 94.178,27.7 2.598,1.546 -0.707,1.188 -2.597,-1.546 -1.806,3.031 -1.484,-0.883 4.211,-7.071 4.218,2.512 -0.719,1.208 -2.734,-1.628 z"
   id="path44" />&#10;<path
   fill="#ffffff"
   d="m 108.967,54.435 2.25,-2.476 -3.267,-0.773 -0.538,-1.719 4.857,1.27 3.046,-3.565 0.564,1.801 -2.09,2.283 3.035,0.731 0.525,1.684 -4.516,-1.209 -3.307,3.764 z"
   id="path45" />&#10;<path
   fill="#ffffff"
   d="m 116.839,60.3 -1.909,0.154 0.203,3.04 -1.379,0.092 -0.203,-3.016 -3.519,0.237 -0.119,-1.653 8.215,-0.672 0.328,4.948 -1.404,0.094 z"
   id="path46" />&#10;<path
   fill="#ffffff"
   d="M 122.622,64.337 C 122.843,37.191 100.898,14.926 73.705,14.706 60.998,14.603 48.892,19.317 39.617,27.979 c -9.967,9.31 -15.518,21.939 -15.628,35.56 -0.132,16.242 7.747,31.446 21.082,40.76 1.266,5.275 6.028,9.213 11.708,9.213 1.625,0 3.199,-0.317 4.684,-0.94 1.581,0.501 3.202,0.925 4.819,1.264 -0.525,1.445 -1.27,2.807 -1.995,4.04 l 1.181,1.18 c 0.282,-0.188 0.613,-0.279 0.946,-0.281 0.903,0 1.768,0.618 1.761,1.732 0,0.906 -0.611,1.756 -1.881,1.754 -0.688,0 -1.58,-0.363 -2.061,-1.395 0,0 -0.32,1.004 -0.32,2.213 0,3.66 3.979,7.69 9.302,9.377 5.354,-1.674 9.316,-5.717 9.316,-9.377 0,-1.209 -0.32,-2.213 -0.32,-2.213 -0.48,1.031 -1.373,1.395 -2.062,1.395 -1.269,0.002 -1.88,-0.848 -1.88,-1.754 -0.007,-1.114 0.857,-1.732 1.76,-1.732 0.332,0.002 0.664,0.094 0.947,0.281 l 1.084,-1.078 0.027,-0.016 0.045,-0.057 c 0.006,0.004 0.012,0.004 0.016,0.008 l 0.002,-0.029 0.006,-0.008 -0.004,-0.01 v -0.002 c -0.533,-1.275 -0.922,-2.439 -1.195,-3.549 8.83,-1.21 16.283,-4.959 22.217,-11.195 l -0.01,-0.012 c 12.244,-9.309 19.332,-23.392 19.458,-38.771 z m -65.844,47.519 c -5.682,0 -10.303,-4.639 -10.303,-10.34 0,-1.783 0.451,-3.461 1.245,-4.926 0.527,0.479 1.09,0.976 1.675,1.478 -0.502,1.06 -0.791,2.237 -0.791,3.483 0,3.096 1.561,5.652 4.512,7.393 1.712,1.011 3.655,1.92 5.713,2.709 -0.67,0.135 -1.355,0.203 -2.051,0.203 z M 73.305,96.758 c -1.928,0 -3.826,-0.175 -5.692,-0.502 -2.011,-4.096 -6.252,-6.738 -10.834,-6.738 -1.174,0 -2.307,0.176 -3.381,0.489 -8.083,-6.193 -12.896,-15.87 -12.896,-26.069 0,-18.096 14.716,-32.819 32.803,-32.819 18.088,0 32.803,14.723 32.803,32.819 0,18.098 -14.715,32.82 -32.803,32.82 z m 7,0.945 c -0.85,1.37 -1.371,3.151 -1.551,4.954 -3.004,-0.787 -5.735,-1.826 -8.131,-2.912 0.332,-0.693 1.109,-1.336 2.434,-1.336 0.084,0 0.165,0.006 0.248,0.006 2.397,0 4.738,-0.246 7,-0.712 z m -10.491,0.539 c -0.271,0.239 -0.498,0.509 -0.683,0.799 -1.054,-0.446 -3.085,-1.396 -3.744,-1.792 1.042,0.336 3.371,0.888 4.427,0.993 z M 56.778,91.174 c 3.451,0 6.683,1.771 8.578,4.61 -1.666,-0.415 -3.303,-0.959 -4.897,-1.639 l -0.005,0.01 -0.047,-0.026 c -1.111,-0.525 -2.303,-0.791 -3.539,-0.791 -2.749,0 -5.182,1.346 -6.685,3.404 -0.629,-0.35 -1.257,-0.717 -1.875,-1.102 1.862,-2.694 4.963,-4.466 8.47,-4.466 z m 23.106,26.075 c -1.891,0 -3.294,1.474 -3.294,3.295 0,2.124 1.486,3.402 3.402,3.402 0.238,0 0.471,-0.027 0.695,-0.074 -0.571,2.648 -3.701,5.516 -7.473,6.799 -3.706,-1.283 -6.888,-4.15 -7.458,-6.799 0.225,0.047 0.457,0.074 0.695,0.074 1.915,0 3.401,-1.278 3.401,-3.402 0,-1.821 -1.402,-3.295 -3.294,-3.295 0.477,-0.877 1.018,-1.957 1.418,-3.09 2.226,0.383 4.417,0.592 6.458,0.592 1.646,0 3.248,-0.086 4.812,-0.24 0.211,0.806 0.719,2.35 0.854,2.752 -0.067,-0.009 -0.137,-0.014 -0.216,-0.014 z m -5.448,-4.156 c -6.567,0 -14.766,-2.233 -20.399,-5.556 -1.682,-0.992 -3.688,-2.837 -3.688,-5.986 0,-0.818 0.157,-1.6 0.43,-2.322 2.128,1.752 4.309,3.379 5.686,4.135 0.324,0.178 0.512,0.265 0.889,0.265 0.904,0 1.639,-0.736 1.639,-1.645 0,-0.694 -0.377,-1.257 -1,-1.528 -1.181,-0.518 -3.629,-1.531 -6.283,-2.896 1.193,-1.556 3.058,-2.562 5.158,-2.562 0.965,0 1.895,0.207 2.763,0.616 l 1.793,1.046 c 5.7,3.482 20.27,12.377 37.925,7.757 -6.669,5.823 -14.85,8.676 -24.913,8.676 z m 27.588,-11.24 c -7.891,2.782 -15.26,2.604 -21.562,1.215 0.201,-2.698 1.206,-5.688 2.869,-6.139 14.175,-4.298 24.522,-17.46 24.522,-32.991 0,-19.01 -15.499,-34.476 -34.548,-34.476 -19.05,0 -34.549,15.466 -34.549,34.476 0,10.383 4.757,20.262 12.801,26.781 -1.885,0.907 -3.493,2.291 -4.678,3.988 -0.566,-0.394 -1.112,-0.801 -1.621,-1.219 l -0.322,0.323 c 0.35,0.423 0.87,0.966 1.501,1.577 -1.08,1.794 -1.708,3.887 -1.708,6.127 0,0.154 0.018,0.304 0.023,0.456 C 32.692,92.906 25.61,78.7 25.733,63.551 25.84,50.372 31.205,38.158 40.84,29.159 49.782,20.807 61.449,16.263 73.69,16.362 c 26.23,0.212 47.398,21.728 47.186,47.962 -0.12,14.898 -6.989,28.536 -18.852,37.529 z"
   id="path47" />&#10;<path
   fill="#ffffff"
   d="m 47.021,37.218 c 0,0.705 -0.308,1.449 -0.924,2.122 -1.183,1.293 -2.444,1.411 -2.574,1.408 l -0.358,-1.364 c 0.198,-0.053 1.125,-0.242 1.782,-0.962 0.297,-0.325 0.451,-0.671 0.451,-0.977 0,-0.325 -0.214,-0.889 -0.884,-0.889 -0.715,0 -1.911,1.036 -3.137,1.036 -0.471,0 -0.994,-0.066 -1.539,-0.566 -0.526,-0.481 -0.77,-1.096 -0.77,-1.72 0,-0.682 0.312,-1.399 0.89,-2.032 1.099,-1.201 2.308,-1.299 2.413,-1.303 l 0.295,1.339 c -0.139,0.024 -1.038,0.221 -1.596,0.831 -0.287,0.313 -0.439,0.654 -0.439,0.953 0,0.324 0.206,0.721 0.741,0.729 0.588,0.007 2.068,-1.075 3.271,-1.075 0.558,0 0.964,0.099 1.528,0.616 0.567,0.517 0.85,1.168 0.85,1.854 z"
   id="path48" />&#10;<path
   fill="#ffffff"
   d="m 84.93,28.944 c -2.1,0 -4.004,-1.599 -4.004,-4.003 0,-2.147 1.439,-4.638 4.053,-4.638 2.127,0 4.096,1.503 4.096,3.921 -0.001,1.82 -1.229,4.72 -4.145,4.72 z m 2.39,-4.742 c 0,-0.568 -0.129,-1.163 -0.474,-1.624 -0.356,-0.479 -0.942,-0.814 -1.638,-0.814 -1.475,0 -2.555,1.83 -2.555,3.34 0,1.402 0.947,2.355 2.219,2.355 1.669,0.001 2.448,-2.167 2.448,-3.257 z"
   id="path49" />&#10;<path
   fill="#ffffff"
   d="m 107.758,46.526 c -2.505,0 -3.885,-2.413 -3.885,-4.032 0,-2.455 2.642,-4.331 4.706,-4.331 2.25,0 3.901,2.14 3.901,4.079 10e-4,2.204 -2.302,4.284 -4.722,4.284 z m -0.293,-1.669 c 1.445,0 3.449,-1.25 3.449,-2.933 0,-1.159 -0.9,-2.063 -2.055,-2.063 -1.352,0 -3.413,1.202 -3.413,2.899 0,0.905 0.692,2.097 2.019,2.097 z"
   id="path50" />&#10;<path
   fill="#ffffff"
   d="m 109.377,70.768 c 0,-2.032 1.376,-4.029 4.111,-4.029 2.3,0 4.523,1.418 4.523,3.964 0,2.091 -1.34,4.101 -4.057,4.101 -2.323,0 -4.577,-1.468 -4.577,-4.036 z m 4.668,2.278 c 1.459,0 2.528,-0.893 2.528,-2.203 0,-1.564 -1.812,-2.36 -3.209,-2.36 -1.79,0 -2.517,1.164 -2.517,2.258 0.001,1.713 2.1,2.305 3.198,2.305 z"
   id="path51" />&#10;<path
   fill="#ffffff"
   d="m 106.247,80.469 2.447,0.01 c 1.16,0.01 1.249,-0.274 1.524,-0.881 l 0.081,-0.18 -2.944,-1.367 0.706,-1.562 7.449,3.438 -0.955,2.144 c -0.653,1.442 -1.212,2.17 -2.577,2.17 -0.877,0 -2.164,-0.729 -2.154,-2.07 0.002,-0.206 0.03,-0.427 0.097,-0.662 -0.438,0.761 -1.541,0.655 -2.231,0.655 l -2.204,-0.01 z m 4.773,0.916 c 0,0.629 0.528,1.129 1.116,1.129 0.526,0 0.855,-0.289 1.163,-0.973 l 0.259,-0.615 -2.034,-0.955 -0.339,0.759 c -0.113,0.249 -0.165,0.468 -0.165,0.655 z"
   id="path52" />&#10;<path
   fill="#ffffff"
   d="m 101.238,89.569 c 0,-1.684 0.78,-2.6 1.768,-3.816 l 1.068,-1.31 6.383,5.194 -1.434,1.76 c -0.809,0.994 -1.762,2.218 -3.594,2.218 -1.042,0 -1.957,-0.483 -2.605,-1.011 -0.81,-0.659 -1.586,-1.777 -1.586,-3.035 z m 4.384,2.414 c 0.869,0 1.372,-0.261 2.37,-1.487 l 0.312,-0.383 -4.24,-3.45 -0.521,0.641 c -0.51,0.629 -0.775,1.246 -0.775,1.842 0,0.791 0.392,1.488 1.193,2.143 0.578,0.467 1.109,0.694 1.661,0.694 z"
   id="path53" />&#10;</svg>
