<?xml version="1.0" encoding="UTF-8" standalone="no"?>
<!-- Created with Inkscape (http://www.inkscape.org/) -->

<svg
   version="1.1"
   id="svg1"
   width="71.570282"
   height="71.570282"
   viewBox="0 0 71.570282 71.570282"
   sodipodi:docname="2307.05431.pdf"
   xmlns:inkscape="http://www.inkscape.org/namespaces/inkscape"
   xmlns:sodipodi="http://sodipodi.sourceforge.net/DTD/sodipodi-0.dtd"
   xmlns="http://www.w3.org/2000/svg"
   xmlns:svg="http://www.w3.org/2000/svg">
  <defs
     id="defs1">
    <clipPath
       clipPathUnits="userSpaceOnUse"
       id="clipPath298-1">
      <path
         d="M 0,0 H 158.43082 V 63.372326 H 0 Z"
         transform="translate(2.2225581e-6)"
         id="path298-2" />
    </clipPath>
    <clipPath
       clipPathUnits="userSpaceOnUse"
       id="clipPath299-7">
      <path
         d="M 3.5,0.86190646 H 51.220733 V 48.58264 H 3.5 Z"
         transform="translate(2.2225581e-6)"
         id="path299-0" />
    </clipPath>
    <clipPath
       clipPathUnits="userSpaceOnUse"
       id="clipPath300-9">
      <path
         d="M 3.5,0.86190646 H 51.220733 V 48.58264 H 3.5 Z"
         transform="translate(2.2225581e-6)"
         id="path300-3" />
    </clipPath>
    <clipPath
       clipPathUnits="userSpaceOnUse"
       id="clipPath301-6">
      <path
         d="M 3.5,0.86190646 H 51.220733 V 48.58264 H 3.5 Z"
         transform="translate(2.2225581e-6)"
         id="path301-0" />
    </clipPath>
    <clipPath
       clipPathUnits="userSpaceOnUse"
       id="clipPath302-6">
      <path
         d="M 3.5,0.86190646 H 51.220733 V 48.58264 H 3.5 Z"
         transform="translate(2.2225581e-6)"
         id="path302-2" />
    </clipPath>
    <clipPath
       clipPathUnits="userSpaceOnUse"
       id="clipPath303-6">
      <path
         d="M 3.5,0.86190646 H 51.220733 V 48.58264 H 3.5 Z"
         transform="translate(2.2225581e-6)"
         id="path303-1" />
    </clipPath>
    <clipPath
       clipPathUnits="userSpaceOnUse"
       id="clipPath304-8">
      <path
         d="M 3.5,0.86190646 H 51.220733 V 48.58264 H 3.5 Z"
         transform="translate(2.2225581e-6)"
         id="path304-7" />
    </clipPath>
    <clipPath
       clipPathUnits="userSpaceOnUse"
       id="clipPath305-9">
      <path
         d="M 3.5,0.86190646 H 51.220733 V 48.58264 H 3.5 Z"
         transform="translate(2.2225581e-6)"
         id="path305-2" />
    </clipPath>
    <clipPath
       clipPathUnits="userSpaceOnUse"
       id="clipPath306-0">
      <path
         d="M 3.5,0.86190646 H 51.220733 V 48.58264 H 3.5 Z"
         transform="translate(2.2225581e-6)"
         id="path306-2" />
    </clipPath>
    <clipPath
       clipPathUnits="userSpaceOnUse"
       id="clipPath307-3">
      <path
         d="M 3.5,0.86190646 H 51.220733 V 48.58264 H 3.5 Z"
         transform="translate(2.2225581e-6)"
         id="path307-7" />
    </clipPath>
    <clipPath
       clipPathUnits="userSpaceOnUse"
       id="clipPath308-5">
      <path
         d="M 3.5,0.86190646 H 51.220733 V 48.58264 H 3.5 Z"
         transform="translate(2.2225581e-6)"
         id="path308-9" />
    </clipPath>
    <clipPath
       clipPathUnits="userSpaceOnUse"
       id="clipPath309-2">
      <path
         d="M 3.5,0.86190646 H 51.220733 V 48.58264 H 3.5 Z"
         transform="translate(2.2225581e-6)"
         id="path309-2" />
    </clipPath>
    <clipPath
       clipPathUnits="userSpaceOnUse"
       id="clipPath310-8">
      <path
         d="M 3.5,0.86190646 H 51.220733 V 48.58264 H 3.5 Z"
         transform="translate(2.2225581e-6)"
         id="path310-9" />
    </clipPath>
    <clipPath
       clipPathUnits="userSpaceOnUse"
       id="clipPath311-7">
      <path
         d="M 3.5,0.86190646 H 51.220733 V 48.58264 H 3.5 Z"
         transform="translate(2.2225581e-6)"
         id="path311-3" />
    </clipPath>
    <clipPath
       clipPathUnits="userSpaceOnUse"
       id="clipPath312-6">
      <path
         d="M 3.5,0.86190646 H 51.220733 V 48.58264 H 3.5 Z"
         transform="translate(2.2225581e-6)"
         id="path312-1" />
    </clipPath>
    <clipPath
       clipPathUnits="userSpaceOnUse"
       id="clipPath313-2">
      <path
         d="M 3.5,0.86190646 H 51.220733 V 48.58264 H 3.5 Z"
         transform="translate(2.2225581e-6)"
         id="path313-9" />
    </clipPath>
    <clipPath
       clipPathUnits="userSpaceOnUse"
       id="clipPath314-3">
      <path
         d="M 3.5,0.86190646 H 51.220733 V 48.58264 H 3.5 Z"
         transform="translate(2.2225581e-6)"
         id="path314-1" />
    </clipPath>
    <clipPath
       clipPathUnits="userSpaceOnUse"
       id="clipPath315-9">
      <path
         d="M 3.5,0.86190646 H 51.220733 V 48.58264 H 3.5 Z"
         transform="translate(2.2225581e-6)"
         id="path315-4" />
    </clipPath>
    <clipPath
       clipPathUnits="userSpaceOnUse"
       id="clipPath316-7">
      <path
         d="M 3.5,0.86190646 H 51.220733 V 48.58264 H 3.5 Z"
         transform="translate(2.2225581e-6)"
         id="path316-8" />
    </clipPath>
    <clipPath
       clipPathUnits="userSpaceOnUse"
       id="clipPath317-4">
      <path
         d="M 3.5,0.86190646 H 51.220733 V 48.58264 H 3.5 Z"
         transform="translate(2.2225581e-6)"
         id="path317-5" />
    </clipPath>
    <clipPath
       clipPathUnits="userSpaceOnUse"
       id="clipPath318-0">
      <path
         d="M 3.5,0.86190646 H 51.220733 V 48.58264 H 3.5 Z"
         transform="translate(2.2225581e-6)"
         id="path318-3" />
    </clipPath>
    <clipPath
       clipPathUnits="userSpaceOnUse"
       id="clipPath319-6">
      <path
         d="M 3.5,0.86190646 H 51.220733 V 48.58264 H 3.5 Z"
         transform="translate(2.2225581e-6)"
         id="path319-1" />
    </clipPath>
    <clipPath
       clipPathUnits="userSpaceOnUse"
       id="clipPath320-0">
      <path
         d="M 3.5,0.86190646 H 51.220733 V 48.58264 H 3.5 Z"
         transform="translate(2.2225581e-6)"
         id="path320-6" />
    </clipPath>
    <clipPath
       clipPathUnits="userSpaceOnUse"
       id="clipPath321-3">
      <path
         d="M 3.5,0.86190646 H 51.220733 V 48.58264 H 3.5 Z"
         transform="translate(2.2225581e-6)"
         id="path321-2" />
    </clipPath>
    <clipPath
       clipPathUnits="userSpaceOnUse"
       id="clipPath322-0">
      <path
         d="M 3.5,0.86190646 H 51.220733 V 48.58264 H 3.5 Z"
         transform="translate(2.2225581e-6)"
         id="path322-6" />
    </clipPath>
    <clipPath
       clipPathUnits="userSpaceOnUse"
       id="clipPath323-1">
      <path
         d="M 3.5,0.86190646 H 51.220733 V 48.58264 H 3.5 Z"
         transform="translate(2.2225581e-6)"
         id="path323-5" />
    </clipPath>
    <clipPath
       clipPathUnits="userSpaceOnUse"
       id="clipPath324-5">
      <path
         d="M 3.5,0.86190646 H 51.220733 V 48.58264 H 3.5 Z"
         transform="translate(2.2225581e-6)"
         id="path324-4" />
    </clipPath>
    <clipPath
       clipPathUnits="userSpaceOnUse"
       id="clipPath325-7">
      <path
         d="M 3.5,0.86190646 H 51.220733 V 48.58264 H 3.5 Z"
         transform="translate(2.2225581e-6)"
         id="path325-6" />
    </clipPath>
    <clipPath
       clipPathUnits="userSpaceOnUse"
       id="clipPath326-5">
      <path
         d="M 3.5,0.86190646 H 51.220733 V 48.58264 H 3.5 Z"
         transform="translate(2.2225581e-6)"
         id="path326-6" />
    </clipPath>
    <clipPath
       clipPathUnits="userSpaceOnUse"
       id="clipPath327-9">
      <path
         d="M 3.5,0.86190646 H 51.220733 V 48.58264 H 3.5 Z"
         transform="translate(2.2225581e-6)"
         id="path327-3" />
    </clipPath>
    <clipPath
       clipPathUnits="userSpaceOnUse"
       id="clipPath328-7">
      <path
         d="M 3.5,0.86190646 H 51.220733 V 48.58264 H 3.5 Z"
         transform="translate(2.2225581e-6)"
         id="path328-4" />
    </clipPath>
    <clipPath
       clipPathUnits="userSpaceOnUse"
       id="clipPath329-5">
      <path
         d="M 3.5,0.86190646 H 51.220733 V 48.58264 H 3.5 Z"
         transform="translate(2.2225581e-6)"
         id="path329-2" />
    </clipPath>
    <clipPath
       clipPathUnits="userSpaceOnUse"
       id="clipPath330-5">
      <path
         d="M 3.5,0.86190646 H 51.220733 V 48.58264 H 3.5 Z"
         transform="translate(2.2225581e-6)"
         id="path330-4" />
    </clipPath>
    <clipPath
       clipPathUnits="userSpaceOnUse"
       id="clipPath331-7">
      <path
         d="M 3.5,0.86190646 H 51.220733 V 48.58264 H 3.5 Z"
         transform="translate(2.2225581e-6)"
         id="path331-4" />
    </clipPath>
    <clipPath
       clipPathUnits="userSpaceOnUse"
       id="clipPath332-4">
      <path
         d="M 3.5,0.86190646 H 51.220733 V 48.58264 H 3.5 Z"
         transform="translate(2.2225581e-6)"
         id="path332-3" />
    </clipPath>
    <clipPath
       clipPathUnits="userSpaceOnUse"
       id="clipPath333-0">
      <path
         d="M 3.5,0.86190646 H 51.220733 V 48.58264 H 3.5 Z"
         transform="translate(2.2225581e-6)"
         id="path333-7" />
    </clipPath>
    <clipPath
       clipPathUnits="userSpaceOnUse"
       id="clipPath334-8">
      <path
         d="M 3.5,0.86190646 H 51.220733 V 48.58264 H 3.5 Z"
         transform="translate(2.2225581e-6)"
         id="path334-6" />
    </clipPath>
    <clipPath
       clipPathUnits="userSpaceOnUse"
       id="clipPath335-8">
      <path
         d="M 3.5,0.86190646 H 51.220733 V 48.58264 H 3.5 Z"
         transform="translate(2.2225581e-6)"
         id="path335-8" />
    </clipPath>
    <clipPath
       clipPathUnits="userSpaceOnUse"
       id="clipPath336-4">
      <path
         d="M 3.5,0.86190646 H 51.220733 V 48.58264 H 3.5 Z"
         transform="translate(2.2225581e-6)"
         id="path336-3" />
    </clipPath>
    <clipPath
       clipPathUnits="userSpaceOnUse"
       id="clipPath337-1">
      <path
         d="M 3.5,0.86190646 H 51.220733 V 48.58264 H 3.5 Z"
         transform="translate(2.2225581e-6)"
         id="path337-4" />
    </clipPath>
    <clipPath
       clipPathUnits="userSpaceOnUse"
       id="clipPath338-9">
      <path
         d="M 3.5,0.86190646 H 51.220733 V 48.58264 H 3.5 Z"
         transform="translate(2.2225581e-6)"
         id="path338-2" />
    </clipPath>
    <clipPath
       clipPathUnits="userSpaceOnUse"
       id="clipPath339-0">
      <path
         d="M 3.5,0.86190646 H 51.220733 V 48.58264 H 3.5 Z"
         transform="translate(2.2225581e-6)"
         id="path339-6" />
    </clipPath>
    <clipPath
       clipPathUnits="userSpaceOnUse"
       id="clipPath340-8">
      <path
         d="M 3.5,0.86190646 H 51.220733 V 48.58264 H 3.5 Z"
         transform="translate(2.2225581e-6)"
         id="path340-9" />
    </clipPath>
    <clipPath
       clipPathUnits="userSpaceOnUse"
       id="clipPath341-2">
      <path
         d="M 3.5,0.86190646 H 51.220733 V 48.58264 H 3.5 Z"
         transform="translate(2.2225581e-6)"
         id="path341-6" />
    </clipPath>
    <clipPath
       clipPathUnits="userSpaceOnUse"
       id="clipPath342-6">
      <path
         d="M 3.5,0.86190646 H 51.220733 V 48.58264 H 3.5 Z"
         transform="translate(2.2225581e-6)"
         id="path342-4" />
    </clipPath>
    <clipPath
       clipPathUnits="userSpaceOnUse"
       id="clipPath343-9">
      <path
         d="M 3.5,0.86190646 H 51.220733 V 48.58264 H 3.5 Z"
         transform="translate(2.2225581e-6)"
         id="path343-5" />
    </clipPath>
    <clipPath
       clipPathUnits="userSpaceOnUse"
       id="clipPath344-0">
      <path
         d="M 3.5,0.86190646 H 51.220733 V 48.58264 H 3.5 Z"
         transform="translate(2.2225581e-6)"
         id="path344-4" />
    </clipPath>
    <clipPath
       clipPathUnits="userSpaceOnUse"
       id="clipPath345-8">
      <path
         d="M 3.5,0.86190646 H 51.220733 V 48.58264 H 3.5 Z"
         transform="translate(2.2225581e-6)"
         id="path345-7" />
    </clipPath>
    <clipPath
       clipPathUnits="userSpaceOnUse"
       id="clipPath346-1">
      <path
         d="M 3.5,0.86190646 H 51.220733 V 48.58264 H 3.5 Z"
         transform="translate(2.2225581e-6)"
         id="path346-7" />
    </clipPath>
    <clipPath
       clipPathUnits="userSpaceOnUse"
       id="clipPath347-2">
      <path
         d="M 3.5,0.86190646 H 51.220733 V 48.58264 H 3.5 Z"
         transform="translate(2.2225581e-6)"
         id="path347-7" />
    </clipPath>
    <clipPath
       clipPathUnits="userSpaceOnUse"
       id="clipPath348-2">
      <path
         d="M 3.5,0.86190646 H 51.220733 V 48.58264 H 3.5 Z"
         transform="translate(2.2225581e-6)"
         id="path348-2" />
    </clipPath>
    <clipPath
       clipPathUnits="userSpaceOnUse"
       id="clipPath349-6">
      <path
         d="M 3.5,0.86190646 H 51.220733 V 48.58264 H 3.5 Z"
         transform="translate(2.2225581e-6)"
         id="path349-1" />
    </clipPath>
    <clipPath
       clipPathUnits="userSpaceOnUse"
       id="clipPath350-0">
      <path
         d="M 3.5,0.86190646 H 51.220733 V 48.58264 H 3.5 Z"
         transform="translate(2.2225581e-6)"
         id="path350-6" />
    </clipPath>
    <clipPath
       clipPathUnits="userSpaceOnUse"
       id="clipPath351-1">
      <path
         d="M 3.5,0.86190646 H 51.220733 V 48.58264 H 3.5 Z"
         transform="translate(2.2225581e-6)"
         id="path351-5" />
    </clipPath>
    <clipPath
       clipPathUnits="userSpaceOnUse"
       id="clipPath352-9">
      <path
         d="M 3.5,0.86190646 H 51.220733 V 48.58264 H 3.5 Z"
         transform="translate(2.2225581e-6)"
         id="path352-4" />
    </clipPath>
    <clipPath
       clipPathUnits="userSpaceOnUse"
       id="clipPath353-9">
      <path
         d="M 3.5,0.86190646 H 51.220733 V 48.58264 H 3.5 Z"
         transform="translate(2.2225581e-6)"
         id="path353-0" />
    </clipPath>
    <clipPath
       clipPathUnits="userSpaceOnUse"
       id="clipPath354-9">
      <path
         d="M 3.5,0.86190646 H 51.220733 V 48.58264 H 3.5 Z"
         transform="translate(2.2225581e-6)"
         id="path354-1" />
    </clipPath>
    <clipPath
       clipPathUnits="userSpaceOnUse"
       id="clipPath355-7">
      <path
         d="M 3.5,0.86190646 H 51.220733 V 48.58264 H 3.5 Z"
         transform="translate(2.2225581e-6)"
         id="path355-7" />
    </clipPath>
    <clipPath
       clipPathUnits="userSpaceOnUse"
       id="clipPath356-1">
      <path
         d="M 3.5,0.86190646 H 51.220733 V 48.58264 H 3.5 Z"
         transform="translate(2.2225581e-6)"
         id="path356-1" />
    </clipPath>
    <clipPath
       clipPathUnits="userSpaceOnUse"
       id="clipPath357-5">
      <path
         d="M 3.5,0.86190646 H 51.220733 V 48.58264 H 3.5 Z"
         transform="translate(2.2225581e-6)"
         id="path357-9" />
    </clipPath>
    <clipPath
       clipPathUnits="userSpaceOnUse"
       id="clipPath358-7">
      <path
         d="M 3.5,0.86190646 H 51.220733 V 48.58264 H 3.5 Z"
         transform="translate(2.2225581e-6)"
         id="path358-7" />
    </clipPath>
    <clipPath
       clipPathUnits="userSpaceOnUse"
       id="clipPath359-6">
      <path
         d="M 3.5,0.86190646 H 51.220733 V 48.58264 H 3.5 Z"
         transform="translate(2.2225581e-6)"
         id="path359-7" />
    </clipPath>
    <clipPath
       clipPathUnits="userSpaceOnUse"
       id="clipPath360-3">
      <path
         d="M 3.5,0.86190646 H 51.220733 V 48.58264 H 3.5 Z"
         transform="translate(2.2225581e-6)"
         id="path360-6" />
    </clipPath>
    <clipPath
       clipPathUnits="userSpaceOnUse"
       id="clipPath361-5">
      <path
         d="M 3.5,0.86190646 H 51.220733 V 48.58264 H 3.5 Z"
         transform="translate(2.2225581e-6)"
         id="path361-6" />
    </clipPath>
    <clipPath
       clipPathUnits="userSpaceOnUse"
       id="clipPath362-3">
      <path
         d="M 3.5,0.86190646 H 51.220733 V 48.58264 H 3.5 Z"
         transform="translate(2.2225581e-6)"
         id="path362-9" />
    </clipPath>
    <clipPath
       clipPathUnits="userSpaceOnUse"
       id="clipPath363-4">
      <path
         d="M 3.5,0.86190646 H 51.220733 V 48.58264 H 3.5 Z"
         transform="translate(2.2225581e-6)"
         id="path363-8" />
    </clipPath>
    <clipPath
       clipPathUnits="userSpaceOnUse"
       id="clipPath364-1">
      <path
         d="M 3.5,0.86190646 H 51.220733 V 48.58264 H 3.5 Z"
         transform="translate(2.2225581e-6)"
         id="path364-2" />
    </clipPath>
    <clipPath
       clipPathUnits="userSpaceOnUse"
       id="clipPath365-9">
      <path
         d="M 3.5,0.86190646 H 51.220733 V 48.58264 H 3.5 Z"
         transform="translate(2.2225581e-6)"
         id="path365-3" />
    </clipPath>
    <clipPath
       clipPathUnits="userSpaceOnUse"
       id="clipPath366-9">
      <path
         d="M 3.5,0.86190646 H 51.220733 V 48.58264 H 3.5 Z"
         transform="translate(2.2225581e-6)"
         id="path366-0" />
    </clipPath>
    <clipPath
       clipPathUnits="userSpaceOnUse"
       id="clipPath367-8">
      <path
         d="M 3.5,0.86190646 H 51.220733 V 48.58264 H 3.5 Z"
         transform="translate(2.2225581e-6)"
         id="path367-8" />
    </clipPath>
    <clipPath
       clipPathUnits="userSpaceOnUse"
       id="clipPath368-5">
      <path
         d="M 3.5,0.86190646 H 51.220733 V 48.58264 H 3.5 Z"
         transform="translate(2.2225581e-6)"
         id="path368-0" />
    </clipPath>
    <clipPath
       clipPathUnits="userSpaceOnUse"
       id="clipPath369-9">
      <path
         d="M 3.5,0.86190646 H 51.220733 V 48.58264 H 3.5 Z"
         transform="translate(2.2225581e-6)"
         id="path369-6" />
    </clipPath>
    <clipPath
       clipPathUnits="userSpaceOnUse"
       id="clipPath370-3">
      <path
         d="M 3.5,0.86190646 H 51.220733 V 48.58264 H 3.5 Z"
         transform="translate(2.2225581e-6)"
         id="path370-8" />
    </clipPath>
    <clipPath
       clipPathUnits="userSpaceOnUse"
       id="clipPath371-5">
      <path
         d="M 3.5,0.86190646 H 51.220733 V 48.58264 H 3.5 Z"
         transform="translate(2.2225581e-6)"
         id="path371-6" />
    </clipPath>
  </defs>
  <sodipodi:namedview
     id="namedview1"
     pagecolor="#ffffff"
     bordercolor="#666666"
     borderopacity="1.0"
     inkscape:showpageshadow="2"
     inkscape:pageopacity="0.0"
     inkscape:pagecheckerboard="0"
     inkscape:deskcolor="#d1d1d1" />
  <g
     id="g1"
     inkscape:groupmode="layer"
     inkscape:label="2"
     transform="translate(-409.24921,-842.18117)">
    <g
       id="g875">
      <path
         d="M 3.5,0.861906 H 51.220733 V 48.58264 H 3.5 Z"
         style="fill:#ffffff;fill-opacity:1;fill-rule:nonzero;stroke:none"
         transform="matrix(1.4997733,0,0,-1.4997733,404,915.04412)"
         clip-path="url(#clipPath298-1)"
         id="path536" />
      <path
         d="m 20.157999,2.401283 0.275165,0.558982 0.552849,0.980398 0.986528,1.008254 0.70666,0.531126 0.832718,0.47864 1.539379,0.570229 1.539379,0.265893 h 1.539378 L 29.669433,6.528913 31.208812,5.958684 32.041533,5.480043 32.748191,4.948919 33.73472,3.940663 34.287569,2.960266 34.562734,2.401283 34.816731,0.861906 h -0.529162 -1.539378 -1.539379 -1.539379 -1.539378 -1.539378 -1.539379 -1.539379 -1.539378 -1.539377 -0.529162 z"
         style="fill:#32294e;fill-opacity:1;fill-rule:nonzero;stroke:#32294e;stroke-width:1;stroke-linecap:butt;stroke-linejoin:round;stroke-miterlimit:10;stroke-dasharray:none;stroke-opacity:1"
         transform="matrix(1.4997733,0,0,-1.4997733,404,915.04412)"
         clip-path="url(#clipPath299-7)"
         id="path537" />
      <path
         d="m 12.572419,2.401283 0.163852,0.673064 0.217211,0.866316 0.659899,1.53938 0.66227,1.070247 0.316062,0.46913 1.223315,1.384579 0.155518,0.154798 1.383859,1.136935 0.585037,0.402445 0.954342,0.575829 1.53938,0.749688 0.562808,0.213863 0.976569,0.346409 1.539378,0.402309 1.539379,0.261365 1.539379,0.128494 h 1.539378 l 1.539378,-0.128493 1.539379,-0.261366 1.539379,-0.402309 0.976571,-0.346409 0.562807,-0.213862 1.539378,-0.749687 0.954345,-0.575831 L 37.366326,9.695734 38.750188,8.558797 38.905705,8.404 40.12902,7.01942 40.445083,6.55029 41.107352,5.480043 41.767251,3.940663 41.98446,3.074356 42.148314,2.401283 42.273095,0.861906 H 41.98446 40.445083 38.905705 37.366326 35.826947 34.816731 L 34.562734,2.401283 34.287569,2.960266 33.73472,3.940663 32.748191,4.948919 32.041533,5.480043 31.208812,5.958684 29.669433,6.528913 28.130055,6.794805 H 26.590677 L 25.051298,6.528912 23.511919,5.958683 22.679201,5.480043 21.972541,4.948917 20.986013,3.940663 20.433164,2.960265 20.157999,2.401283 19.904002,0.861906 h -1.010218 -1.539379 -1.539377 -1.539377 -1.53938 -0.288633 z"
         style="fill:#394169;fill-opacity:1;fill-rule:nonzero;stroke:#394169;stroke-width:1;stroke-linecap:butt;stroke-linejoin:round;stroke-miterlimit:10;stroke-dasharray:none;stroke-opacity:1"
         transform="matrix(1.4997733,0,0,-1.4997733,404,915.04412)"
         clip-path="url(#clipPath300-9)"
         id="path538" />
      <path
         d="m 5.039377,1.756344 0.034823,0.644939 0.250861,1.53938 0.424819,1.53938 0.608077,1.539377 0.2208,0.432817 0.589898,1.10656 0.949482,1.421414 0.083753,0.117966 1.301461,1.53938 0.154163,0.157765 1.474349,1.381612 0.06503,0.05413 1.53938,1.16578 0.476514,0.31947 1.062866,0.653188 1.539377,0.818982 0.1454,0.06721 1.393977,0.607866 1.539379,0.560319 1.252691,0.371194 0.286689,0.08209 1.539377,0.352401 1.539378,0.260297 1.539379,0.171544 1.539379,0.08516 h 1.539378 l 1.539378,-0.08516 1.539379,-0.171544 1.539379,-0.260297 1.539378,-0.352401 0.286689,-0.08209 1.252689,-0.371194 1.539379,-0.560318 1.393978,-0.607867 0.145401,-0.06721 1.539378,-0.818982 1.062866,-0.653188 0.476511,-0.319468 1.53938,-1.165779 0.06503,-0.05413 1.474348,-1.381612 0.154164,-0.157765 1.30146,-1.53938 0.08375,-0.117966 0.949482,-1.421414 0.589895,-1.106555 0.220803,-0.432822 0.608077,-1.539377 0.424821,-1.53938 0.250861,-1.53938 0.03482,-0.644856 0.04811,-0.894521 h -0.04811 -1.53938 -1.539377 -1.539377 -1.539379 -1.250745 l -0.124781,1.539377 -0.163854,0.673073 -0.217209,0.866307 -0.659899,1.53938 -0.662269,1.070247 -0.316063,0.46913 -1.223315,1.38458 -0.155517,0.154797 -1.383862,1.136937 -0.585034,0.402443 -0.954345,0.575831 -1.539378,0.749687 -0.562807,0.213862 -0.976571,0.346409 -1.539379,0.402309 -1.539379,0.261366 -1.539378,0.128493 H 26.590677 L 25.051298,12.64764 23.511919,12.386275 21.972541,11.983966 20.995972,11.637557 20.433164,11.423694 18.893784,10.674006 17.939442,10.098177 17.354405,9.695732 15.970546,8.558797 15.815028,8.403999 14.591713,7.01942 14.275651,6.55029 13.613381,5.480043 12.953482,3.940663 12.736271,3.074347 12.572419,2.401283 12.447638,0.861906 H 11.196891 9.657514 8.118137 6.578757 5.039377 4.991275 Z"
         style="fill:#3f5e7e;fill-opacity:1;fill-rule:nonzero;stroke:#3f5e7e;stroke-width:1;stroke-linecap:butt;stroke-linejoin:round;stroke-miterlimit:10;stroke-dasharray:none;stroke-opacity:1"
         transform="matrix(1.4997733,0,0,-1.4997733,404,915.04412)"
         clip-path="url(#clipPath301-6)"
         id="path539" />
      <path
         d="m 3.5,2.401283 v 1.53938 1.53938 1.539377 1.539377 1.53938 1.53938 1.539377 1.539378 0.451002 l 1.076815,1.088377 0.462562,0.423677 1.311648,1.115702 0.227732,0.178326 1.53938,1.115178 0.371246,0.245874 1.168131,0.724835 1.4629,0.814543 0.07648,0.04039 1.53938,0.739549 1.53938,0.649012 0.296567,0.110429 1.24281,0.447267 1.539377,0.477554 1.539379,0.40217 0.986226,0.212388 0.553154,0.117023 1.539377,0.259826 1.539378,0.193184 1.539379,0.127967 1.539379,0.06373 h 1.539378 l 1.539378,-0.06373 1.539379,-0.127965 1.539379,-0.193184 1.539378,-0.259828 0.553153,-0.117023 0.986225,-0.212388 1.539379,-0.402169 1.539379,-0.477554 1.24281,-0.447268 0.296568,-0.110429 1.539377,-0.649011 1.53938,-0.739547 0.07648,-0.04039 1.462899,-0.814543 1.168131,-0.724835 0.371246,-0.245874 1.539377,-1.115177 0.227733,-0.178327 1.311647,-1.115699 0.462565,-0.42368 1.076815,-1.088377 V 14.716315 13.176937 11.63756 10.09818 8.5588 7.019423 5.480046 3.940666 2.401286 0.861909 h -1.491273 l -0.04811,0.894521 -0.03482,0.644856 -0.250861,1.53938 -0.424821,1.53938 -0.608077,1.539377 -0.220803,0.432822 -0.589895,1.106555 -0.949482,1.421414 -0.08375,0.117966 -1.30146,1.53938 -0.154164,0.157765 -1.474348,1.381612 -0.06503,0.05413 -1.53938,1.165779 -0.476511,0.319468 -1.062866,0.653188 -1.539378,0.818982 -0.145401,0.06721 -1.393978,0.607867 -1.539379,0.560318 -1.252689,0.371194 -0.286689,0.08209 -1.539378,0.352401 -1.539379,0.260297 -1.539379,0.171544 -1.539378,0.08516 h -1.539378 l -1.539379,-0.08516 -1.539379,-0.171544 -1.539378,-0.260297 -1.539377,-0.352401 -0.286689,-0.08209 -1.252691,-0.371194 -1.539379,-0.560319 -1.393977,-0.607866 -0.1454,-0.06721 -1.539377,-0.818982 -1.062866,-0.653188 -0.476514,-0.31947 -1.53938,-1.16578 -0.06503,-0.05413 L 9.657514,11.795322 9.503351,11.637557 8.20189,10.098177 8.118137,9.980211 7.168655,8.558797 6.578757,7.452237 6.357957,7.01942 5.74988,5.480043 5.325061,3.940663 5.0742,2.401283 5.039377,1.756344 4.991275,0.861906 H 3.5 Z"
         style="fill:#457988;fill-opacity:1;fill-rule:nonzero;stroke:#457988;stroke-width:1;stroke-linecap:butt;stroke-linejoin:round;stroke-miterlimit:10;stroke-dasharray:none;stroke-opacity:1"
         transform="matrix(1.4997733,0,0,-1.4997733,404,915.04412)"
         clip-path="url(#clipPath302-6)"
         id="path540" />
      <path
         d="m 3.5,16.255691 v 1.539379 1.539378 1.539378 1.539379 1.363623 l 0.267274,0.175756 1.272103,0.794051 1.300724,0.745327 0.238656,0.130851 1.53938,0.781912 1.362347,0.626614 0.17703,0.07867 1.539377,0.62647 1.53938,0.559524 0.848203,0.274715 0.691177,0.218759 1.539377,0.430747 1.539377,0.372203 1.539379,0.315415 1.194135,0.202256 0.345245,0.05785 1.539377,0.206207 1.539378,0.153798 1.539379,0.102118 1.539379,0.05093 h 1.539378 l 1.539378,-0.05093 1.539379,-0.102118 1.539379,-0.153798 1.539378,-0.206207 0.345244,-0.05785 1.194134,-0.202256 1.539379,-0.315415 1.539379,-0.372203 1.539378,-0.430747 0.691175,-0.218759 0.848202,-0.274715 1.53938,-0.559523 1.539379,-0.626471 0.177031,-0.07867 1.362346,-0.626614 1.539377,-0.781912 0.238657,-0.130851 1.300723,-0.745322 1.272107,-0.794056 0.267273,-0.175756 V 22.413205 20.873826 19.334448 17.79507 16.255691 15.167314 l -1.076815,1.088377 -0.462565,0.42368 -1.311647,1.115699 -0.227733,0.178327 -1.539377,1.115177 -0.371246,0.245874 -1.168131,0.724835 -1.462899,0.814543 -0.07648,0.04039 -1.53938,0.739547 -1.539377,0.649011 -0.296568,0.110429 -1.24281,0.447268 -1.539379,0.477554 -1.539379,0.402169 -0.986225,0.212388 -0.553153,0.117023 -1.539378,0.259828 -1.539379,0.193184 -1.539379,0.127965 -1.539378,0.06373 h -1.539378 l -1.539379,-0.06373 -1.539379,-0.127967 -1.539378,-0.193184 -1.539377,-0.259826 -0.553154,-0.117023 -0.986226,-0.212388 -1.539379,-0.40217 -1.539377,-0.477554 -1.24281,-0.447267 -0.296567,-0.110429 -1.53938,-0.649012 -1.53938,-0.739549 -0.07648,-0.04039 L 9.657511,20.05928 8.489383,19.334448 8.118137,19.088574 6.578757,17.973396 6.351025,17.79507 5.039377,16.679368 4.576815,16.255691 3.5,15.167314 Z"
         style="fill:#53958d;fill-opacity:1;fill-rule:nonzero;stroke:#53958d;stroke-width:1;stroke-linecap:butt;stroke-linejoin:round;stroke-miterlimit:10;stroke-dasharray:none;stroke-opacity:1"
         transform="matrix(1.4997733,0,0,-1.4997733,404,915.04412)"
         clip-path="url(#clipPath303-6)"
         id="path541" />
      <path
         d="m 3.5,23.952584 v 1.539378 1.539377 1.539379 1.53938 1.02471 l 1.055196,0.514667 0.484181,0.228968 1.53938,0.676342 1.53938,0.617961 0.043527,0.01611 1.49585,0.541116 1.539377,0.503931 1.53938,0.452309 0.159247,0.04202 1.380133,0.358718 1.539377,0.352629 1.539377,0.305848 1.539379,0.260099 1.53938,0.21526 0.419467,0.04683 1.11991,0.124318 1.539378,0.127826 1.539379,0.08498 1.539379,0.04242 h 1.539378 l 1.539378,-0.04242 1.539379,-0.08498 1.539379,-0.127826 1.11991,-0.124318 0.419468,-0.04683 1.539378,-0.21526 1.539379,-0.260099 1.539379,-0.305848 1.539378,-0.352629 1.38013,-0.358718 0.159247,-0.04202 1.53938,-0.452309 1.539379,-0.503931 1.49585,-0.541116 0.04353,-0.01611 1.539377,-0.617961 1.53938,-0.676339 0.484188,-0.228971 1.055192,-0.514667 v -1.02471 -1.53938 -1.539379 -1.539377 -1.539378 -0.175756 l -0.267273,0.175756 -1.272107,0.794056 -1.300723,0.745322 -0.238657,0.130851 -1.539377,0.781912 -1.362346,0.626614 -0.177031,0.07867 -1.539379,0.626471 -1.53938,0.559523 -0.848202,0.274715 -0.691175,0.218759 -1.539378,0.430747 -1.539379,0.372203 -1.539379,0.315415 -1.194134,0.202256 -0.345244,0.05785 -1.539378,0.206207 -1.539379,0.153798 -1.539379,0.102118 -1.539378,0.05093 H 26.59068 l -1.539379,-0.05093 -1.539379,-0.102118 -1.539378,-0.153798 -1.539377,-0.206207 -0.345245,-0.05785 -1.194135,-0.202256 -1.539379,-0.315415 -1.539377,-0.372203 -1.539377,-0.430747 -0.691177,-0.218759 -0.848203,-0.274715 -1.53938,-0.559524 -1.539377,-0.62647 -0.17703,-0.07867 L 8.118137,26.404725 6.578757,25.622813 6.340101,25.491962 5.039377,24.746635 3.767274,23.952584 3.5,23.776828 Z"
         style="fill:#68ab8e;fill-opacity:1;fill-rule:nonzero;stroke:#68ab8e;stroke-width:1;stroke-linecap:butt;stroke-linejoin:round;stroke-miterlimit:10;stroke-dasharray:none;stroke-opacity:1"
         transform="matrix(1.4997733,0,0,-1.4997733,404,915.04412)"
         clip-path="url(#clipPath304-8)"
         id="path542" />
      <path
         d="m 3.5,31.649475 v 1.539378 1.539379 1.539379 1.539378 0.191395 l 1.539377,0.606865 1.53938,0.55931 0.541445,0.181807 0.997935,0.329351 1.539377,0.465892 1.539377,0.422817 1.297297,0.32132 0.242083,0.05925 1.53938,0.338829 1.539377,0.299042 1.539377,0.259974 1.539379,0.22156 1.53938,0.183717 1.539377,0.14637 0.430267,0.03064 1.109111,0.07876 1.539379,0.07278 1.539379,0.03634 h 1.539378 l 1.539378,-0.03634 1.539379,-0.07278 1.109112,-0.07876 0.430267,-0.03064 1.539378,-0.14637 1.539378,-0.183717 1.539379,-0.22156 1.539379,-0.259974 1.539378,-0.299042 1.539377,-0.338829 0.242082,-0.05925 1.297298,-0.32132 1.539379,-0.422817 1.539377,-0.465892 0.997933,-0.329351 0.541444,-0.181807 1.53938,-0.559306 1.53938,-0.606869 v -0.191395 -1.539378 -1.539379 -1.539379 -1.539378 -0.514667 l -1.055192,0.514667 -0.484188,0.228971 -1.53938,0.676339 -1.539377,0.617961 -0.04353,0.01611 -1.49585,0.541116 -1.539379,0.503931 -1.53938,0.452309 -0.159247,0.04202 -1.38013,0.358718 -1.539378,0.352629 -1.539379,0.305848 -1.539379,0.260099 -1.539378,0.21526 -0.419468,0.04683 -1.11991,0.124318 -1.539379,0.127826 -1.539379,0.08498 -1.539378,0.04242 h -1.539378 l -1.539379,-0.04242 -1.539379,-0.08498 -1.539378,-0.127826 -1.11991,-0.124318 -0.419467,-0.04683 -1.53938,-0.21526 L 17.354405,35.745427 15.815028,35.439579 14.275651,35.08695 12.895518,34.728232 12.736271,34.686209 11.196891,34.2339 9.657514,33.729969 8.161664,33.188853 8.118137,33.172746 6.578757,32.554785 5.039377,31.878443 4.555196,31.649475 3.5,31.134808 Z"
         style="fill:#84bd92;fill-opacity:1;fill-rule:nonzero;stroke:#84bd92;stroke-width:1;stroke-linecap:butt;stroke-linejoin:round;stroke-miterlimit:10;stroke-dasharray:none;stroke-opacity:1"
         transform="matrix(1.4997733,0,0,-1.4997733,404,915.04412)"
         clip-path="url(#clipPath305-9)"
         id="path543" />
      <path
         d="m 3.5,39.346366 v 1.53938 1.53938 1.539377 0.633134 l 1.539377,0.517403 1.249649,0.38884 0.289731,0.08892 1.53938,0.438174 1.539377,0.401183 1.539377,0.364914 1.148755,0.246188 0.390625,0.08298 1.53938,0.293951 1.539377,0.259861 1.539377,0.226258 1.539379,0.193095 1.53938,0.160309 1.539377,0.127852 1.539378,0.09565 1.539379,0.06366 1.539379,0.0318 h 1.539378 l 1.539378,-0.0318 1.539379,-0.06366 1.539379,-0.09565 1.539378,-0.127852 1.539378,-0.160309 1.539379,-0.193095 1.539379,-0.226258 1.539378,-0.259861 1.539377,-0.293947 0.390637,-0.08298 1.148743,-0.246188 1.539379,-0.364914 1.539377,-0.401183 1.539377,-0.438174 0.289734,-0.08892 1.249646,-0.388837 1.53938,-0.517406 V 43.964507 42.42513 40.88575 39.34637 37.998388 l -1.53938,0.606869 -1.53938,0.559306 -0.541444,0.181807 -0.997933,0.329351 -1.539377,0.465892 -1.539379,0.422817 -1.297298,0.32132 -0.242082,0.05925 -1.539377,0.338829 -1.539378,0.299042 -1.539379,0.259974 -1.539379,0.22156 -1.539378,0.183717 -1.539378,0.14637 -0.430267,0.03064 -1.109112,0.07876 -1.539379,0.07278 -1.539378,0.03634 h -1.539378 l -1.539379,-0.03634 -1.539379,-0.07278 -1.109111,-0.07876 -0.430267,-0.03064 -1.539377,-0.14637 -1.53938,-0.183717 -1.539379,-0.22156 L 15.815028,41.582871 14.275651,41.283829 12.736271,40.945 12.494188,40.88575 11.196891,40.56443 9.657514,40.141609 8.118137,39.675717 7.120202,39.346366 6.578757,39.164559 5.039377,38.605249 3.5,37.998384 Z"
         style="fill:#a7cc9f;fill-opacity:1;fill-rule:nonzero;stroke:#a7cc9f;stroke-width:1;stroke-linecap:butt;stroke-linejoin:round;stroke-miterlimit:10;stroke-dasharray:none;stroke-opacity:1"
         transform="matrix(1.4997733,0,0,-1.4997733,404,915.04412)"
         clip-path="url(#clipPath306-0)"
         id="path544" />
      <path
         d="m 3.5,45.50388 v 1.53938 1.53938 h 1.539377 1.53938 1.53938 1.539377 1.539377 1.53938 1.53938 1.539377 1.539377 1.539379 1.53938 1.539377 1.539378 1.539379 1.539379 1.539378 1.539378 1.539379 1.539379 1.539378 1.539378 1.539379 1.539379 1.539378 1.539377 1.53938 1.539379 1.539377 1.539377 1.53938 1.53938 v -1.53938 -1.53938 -0.906243 l -1.53938,0.517406 -1.249646,0.388837 -0.289734,0.08892 -1.539377,0.438174 -1.539377,0.401183 -1.539379,0.364914 -1.148743,0.246188 -0.390637,0.08298 -1.539377,0.293947 -1.539378,0.259861 -1.539379,0.226258 -1.539379,0.193095 -1.539378,0.160309 -1.539378,0.127852 -1.539379,0.09565 -1.539379,0.06366 -1.539378,0.0318 h -1.539378 l -1.539379,-0.0318 -1.539379,-0.06366 -1.539378,-0.09565 L 20.433164,48.259709 18.893784,48.0994 17.354405,47.906305 15.815028,47.680047 14.275651,47.420186 12.736271,47.126235 12.345646,47.04326 11.196891,46.797072 9.657514,46.432158 8.118137,46.030975 6.578757,45.592801 6.289026,45.50388 5.039377,45.11504 3.5,44.597637 Z"
         style="fill:#c7d8b2;fill-opacity:1;fill-rule:nonzero;stroke:#c7d8b2;stroke-width:1;stroke-linecap:butt;stroke-linejoin:round;stroke-miterlimit:10;stroke-dasharray:none;stroke-opacity:1"
         transform="matrix(1.4997733,0,0,-1.4997733,404,915.04412)"
         clip-path="url(#clipPath307-3)"
         id="path545" />
      <path
         d="M 4.518042,0.682954 H 4.092532 L 4.271485,0.325048 2.481958,0.861907 4.271485,1.398765 4.092532,1.040859 h 0.42551 V 0.682954"
         style="fill:#000000;fill-opacity:1;fill-rule:nonzero;stroke:none"
         transform="matrix(1.4997733,0,0,-1.4997733,404,915.04412)"
         clip-path="url(#clipPath308-5)"
         id="path546" />
      <path
         d="M 4.457854,7.14704 3.938515,7.332518 3.986666,6.935275 2.481958,8.04274 4.347796,7.946439 4.058892,7.669573 4.578231,7.484094 4.457854,7.14704"
         style="fill:#000000;fill-opacity:1;fill-rule:nonzero;stroke:none"
         transform="matrix(1.4997733,0,0,-1.4997733,404,915.04412)"
         clip-path="url(#clipPath309-2)"
         id="path547" />
      <path
         d="M 4.414028,13.623609 3.688522,14.141827 3.626114,13.746573 2.481958,15.223575 4.250199,14.620293 3.89655,14.433067 4.622057,13.914848 4.414028,13.623609"
         style="fill:#000000;fill-opacity:1;fill-rule:nonzero;stroke:none"
         transform="matrix(1.4997733,0,0,-1.4997733,404,915.04412)"
         clip-path="url(#clipPath310-8)"
         id="path548" />
      <path
         d="m 4.387218,20.100788 -0.93716,1.004101 -0.139546,-0.37503 -0.828554,1.674552 1.6135,-0.941936 -0.383752,-0.113381 0.937161,-1.0041 -0.261649,-0.244206"
         style="fill:#000000;fill-opacity:1;fill-rule:nonzero;stroke:none"
         transform="matrix(1.4997733,0,0,-1.4997733,404,915.04412)"
         clip-path="url(#clipPath311-7)"
         id="path549" />
      <path
         d="M 4.371439,26.573929 3.258958,28.163188 3.068373,27.811338 2.481957,29.585244 3.947996,28.427074 3.552165,28.368433 4.664646,26.779174 4.371439,26.573929"
         style="fill:#000000;fill-opacity:1;fill-rule:nonzero;stroke:none"
         transform="matrix(1.4997733,0,0,-1.4997733,404,915.04412)"
         clip-path="url(#clipPath312-6)"
         id="path550" />
      <path
         d="M 4.361905,33.042776 3.112752,35.273405 2.887915,34.942394 2.481957,36.766078 3.824739,35.467015 3.425027,35.448279 4.67418,33.217649 4.361905,33.042776"
         style="fill:#000000;fill-opacity:1;fill-rule:nonzero;stroke:none"
         transform="matrix(1.4997733,0,0,-1.4997733,404,915.04412)"
         clip-path="url(#clipPath313-2)"
         id="path551" />
      <path
         d="M 4.355878,39.508199 3.000882,42.411763 2.752231,42.098246 2.481958,43.946915 3.725215,42.552305 3.32521,42.563116 4.680206,39.659552 4.355878,39.508199"
         style="fill:#000000;fill-opacity:1;fill-rule:nonzero;stroke:none"
         transform="matrix(1.4997733,0,0,-1.4997733,404,915.04412)"
         clip-path="url(#clipPath314-3)"
         id="path552" />
      <path
         d="M 4.351889,45.971072 2.913957,49.565903 2.648111,49.266827 2.481957,51.127746 3.645032,49.665595 3.246263,49.698826 4.684196,46.103995 4.351889,45.971072"
         style="fill:#000000;fill-opacity:1;fill-rule:nonzero;stroke:none"
         transform="matrix(1.4997733,0,0,-1.4997733,404,915.04412)"
         clip-path="url(#clipPath315-9)"
         id="path553" />
      <path
         d="M 11.04442,0.716472 H 10.898986 L 11.04442,0.425602 9.590074,0.861907 11.04442,1.29821 10.898986,1.007341 H 11.04442 V 0.716472"
         style="fill:#000000;fill-opacity:1;fill-rule:nonzero;stroke:none"
         transform="matrix(1.4997733,0,0,-1.4997733,404,915.04412)"
         clip-path="url(#clipPath316-7)"
         id="path554" />
      <path
         d="M 10.971703,7.170133 10.826268,7.24285 V 6.879263 L 9.590074,8.04274 11.262572,7.751871 10.971703,7.533719 11.117138,7.461002 10.971703,7.170133"
         style="fill:#000000;fill-opacity:1;fill-rule:nonzero;stroke:none"
         transform="matrix(1.4997733,0,0,-1.4997733,404,915.04412)"
         clip-path="url(#clipPath317-4)"
         id="path555" />
      <path
         d="m 10.917882,13.64269 -0.315498,0.315498 -0.126539,-0.379616 -0.885771,1.645003 1.645003,-0.885771 -0.379616,-0.126539 0.315498,-0.315498 -0.253077,-0.253077"
         style="fill:#000000;fill-opacity:1;fill-rule:nonzero;stroke:none"
         transform="matrix(1.4997733,0,0,-1.4997733,404,915.04412)"
         clip-path="url(#clipPath318-0)"
         id="path556" />
      <path
         d="m 10.895523,20.123626 -0.560961,0.84144 -0.19853,-0.347428 -0.545958,1.786773 1.439344,-1.191182 -0.39706,-0.04963 0.56096,-0.841441 -0.297795,-0.19853"
         style="fill:#000000;fill-opacity:1;fill-rule:nonzero;stroke:none"
         transform="matrix(1.4997733,0,0,-1.4997733,404,915.04412)"
         clip-path="url(#clipPath319-6)"
         id="path557" />
      <path
         d="m 10.88436,26.596522 -0.734075,1.46815 -0.240091,-0.32012 -0.32012,1.840692 1.280482,-1.360511 h -0.400151 l 0.734075,-1.468151 -0.32012,-0.16006"
         style="fill:#000000;fill-opacity:1;fill-rule:nonzero;stroke:none"
         transform="matrix(1.4997733,0,0,-1.4997733,404,915.04412)"
         clip-path="url(#clipPath320-0)"
         id="path558" />
      <path
         d="m 10.878267,33.063751 -0.856194,2.140485 -0.265846,-0.299076 -0.166153,1.860918 1.163074,-1.46215 -0.398768,0.03323 0.856194,-2.140485 -0.332307,-0.132923"
         style="fill:#000000;fill-opacity:1;fill-rule:nonzero;stroke:none"
         transform="matrix(1.4997733,0,0,-1.4997733,404,915.04412)"
         clip-path="url(#clipPath321-3)"
         id="path559" />
      <path
         d="M 10.874651,39.527286 9.929613,42.3624 9.646664,42.07945 l -0.05659,1.867465 1.075207,-1.527926 -0.396129,0.05659 0.945038,-2.835113 -0.339539,-0.11318"
         style="fill:#000000;fill-opacity:1;fill-rule:nonzero;stroke:none"
         transform="matrix(1.4997733,0,0,-1.4997733,404,915.04412)"
         clip-path="url(#clipPath322-0)"
         id="path560" />
      <path
         d="m 10.872353,45.988372 -1.011887,3.541605 -0.294973,-0.270391 0.024581,1.86816 1.007823,-1.573188 -0.393297,0.07374 1.011888,-3.541606 -0.344135,-0.09832"
         style="fill:#000000;fill-opacity:1;fill-rule:nonzero;stroke:none"
         transform="matrix(1.4997733,0,0,-1.4997733,404,915.04412)"
         clip-path="url(#clipPath323-1)"
         id="path561" />
      <path
         d="m 17.570799,0.774646 h -0.08726 l 0.08726,-0.174522 -0.872608,0.261783 0.872608,0.261782 -0.08726,-0.174522 h 0.08726 V 0.774646"
         style="fill:#000000;fill-opacity:1;fill-rule:nonzero;stroke:none"
         transform="matrix(1.4997733,0,0,-1.4997733,404,915.04412)"
         clip-path="url(#clipPath324-5)"
         id="path562" />
      <path
         d="M 17.498082,7.228306 17.410821,7.301024 17.352647,7.053785 16.698191,8.04274 17.788951,7.577349 17.556256,7.475545 17.643516,7.402828 17.498082,7.228306"
         style="fill:#000000;fill-opacity:1;fill-rule:nonzero;stroke:none"
         transform="matrix(1.4997733,0,0,-1.4997733,404,915.04412)"
         clip-path="url(#clipPath325-7)"
         id="path563" />
      <path
         d="m 17.425364,13.681968 -0.08726,0.145434 -0.203609,-0.319956 -0.436304,1.716129 1.308912,-1.192564 -0.37813,-0.02909 0.08726,-0.145435 -0.29087,-0.174521"
         style="fill:#000000;fill-opacity:1;fill-rule:nonzero;stroke:none"
         transform="matrix(1.4997733,0,0,-1.4997733,404,915.04412)"
         clip-path="url(#clipPath326-5)"
         id="path564" />
      <path
         d="m 17.404645,20.15643 -0.274455,0.686138 -0.265845,-0.299076 -0.166154,1.860919 1.163074,-1.462151 -0.398768,0.03323 0.274455,-0.686138 -0.332307,-0.132923"
         style="fill:#000000;fill-opacity:1;fill-rule:nonzero;stroke:none"
         transform="matrix(1.4997733,0,0,-1.4997733,404,915.04412)"
         clip-path="url(#clipPath327-9)"
         id="path565" />
      <path
         d="m 17.399393,26.62513 -0.409812,1.366042 -0.29139,-0.274249 v 1.868321 l 1.028434,-1.559791 -0.394233,0.06856 0.409813,-1.366042 -0.342812,-0.102843"
         style="fill:#000000;fill-opacity:1;fill-rule:nonzero;stroke:none"
         transform="matrix(1.4997733,0,0,-1.4997733,404,915.04412)"
         clip-path="url(#clipPath328-7)"
         id="path566" />
      <path
         d="m 17.396788,33.08845 -0.496744,2.069763 -0.30626,-0.257537 0.104407,1.865402 0.939662,-1.614825 -0.389786,0.09049 0.496743,-2.069764 -0.348022,-0.08353"
         style="fill:#000000;fill-opacity:1;fill-rule:nonzero;stroke:none"
         transform="matrix(1.4997733,0,0,-1.4997733,404,915.04412)"
         clip-path="url(#clipPath329-5)"
         id="path567" />
      <path
         d="m 17.395322,39.54878 -0.556749,2.783741 -0.315859,-0.245669 0.175477,1.860063 0.877388,-1.649489 -0.386051,0.105286 0.556749,-2.783741 -0.350955,-0.07019"
         style="fill:#000000;fill-opacity:1;fill-rule:nonzero;stroke:none"
         transform="matrix(1.4997733,0,0,-1.4997733,404,915.04412)"
         clip-path="url(#clipPath330-5)"
         id="path568" />
      <path
         d="m 17.394419,46.007297 -0.600479,3.502794 -0.322523,-0.236853 0.226774,1.854508 0.831505,-1.673089 -0.382996,0.115907 0.600479,-3.502794 -0.35276,-0.06047"
         style="fill:#000000;fill-opacity:1;fill-rule:nonzero;stroke:none"
         transform="matrix(1.4997733,0,0,-1.4997733,404,915.04412)"
         clip-path="url(#clipPath331-7)"
         id="path569" />
      <path
         d="m 23.772792,0.861906 0.08948,-0.154977 h 0.178953 l 0.08948,0.154977 -0.08948,0.154978 h -0.178953 l -0.08948,-0.154978 0.08948,-0.154977"
         style="fill:#000000;fill-opacity:1;fill-rule:nonzero;stroke:none"
         transform="matrix(1.4997733,0,0,-1.4997733,404,915.04412)"
         clip-path="url(#clipPath332-4)"
         id="path570" />
      <path
         d="M 24.024462,7.28648 23.995375,7.359197 23.879027,7.228306 23.80631,8.04274 24.315331,7.402828 24.140809,7.417371 24.169896,7.344654 24.024462,7.28648"
         style="fill:#000000;fill-opacity:1;fill-rule:nonzero;stroke:none"
         transform="matrix(1.4997733,0,0,-1.4997733,404,915.04412)"
         clip-path="url(#clipPath333-0)"
         id="path571" />
      <path
         d="m 23.951744,13.740142 -0.02909,0.145434 -0.261782,-0.203608 0.145435,1.541607 0.727173,-1.367086 -0.319956,0.08726 0.02909,-0.145435 -0.29087,-0.05817"
         style="fill:#000000;fill-opacity:1;fill-rule:nonzero;stroke:none"
         transform="matrix(1.4997733,0,0,-1.4997733,404,915.04412)"
         clip-path="url(#clipPath334-8)"
         id="path572" />
      <path
         d="m 23.919796,20.19924 -0.07801,0.585073 -0.331115,-0.224685 0.295639,1.844783 0.768659,-1.702877 -0.378417,0.130081 0.07801,-0.585073 -0.354766,-0.0473"
         style="fill:#000000;fill-opacity:1;fill-rule:nonzero;stroke:none"
         transform="matrix(1.4997733,0,0,-1.4997733,404,915.04412)"
         clip-path="url(#clipPath335-8)"
         id="path573" />
      <path
         d="m 23.919114,26.658745 -0.130611,1.306111 -0.338323,-0.213677 0.35613,1.834065 0.712258,-1.727227 -0.373935,0.142452 0.130611,-1.306111 -0.35613,-0.03561"
         style="fill:#000000;fill-opacity:1;fill-rule:nonzero;stroke:none"
         transform="matrix(1.4997733,0,0,-1.4997733,404,915.04412)"
         clip-path="url(#clipPath336-4)"
         id="path574" />
      <path
         d="m 23.918796,33.115942 -0.162433,2.03042 -0.342495,-0.206924 0.392442,1.82664 0.677855,-1.741016 -0.371037,0.149841 0.162434,-2.03042 -0.356766,-0.02854"
         style="fill:#000000;fill-opacity:1;fill-rule:nonzero;stroke:none"
         transform="matrix(1.4997733,0,0,-1.4997733,404,915.04412)"
         clip-path="url(#clipPath337-1)"
         id="path575" />
      <path
         d="M 23.918623,39.571972 23.734887,42.328004 23.389678,42.12564 23.80631,43.946915 24.461017,42.197062 24.092,42.351811 24.275736,39.59578 23.918623,39.57197"
         style="fill:#000000;fill-opacity:1;fill-rule:nonzero;stroke:none"
         transform="matrix(1.4997733,0,0,-1.4997733,404,915.04412)"
         clip-path="url(#clipPath338-9)"
         id="path576" />
      <path
         d="m 23.918518,46.027324 -0.198987,3.482261 -0.347113,-0.19908 0.433892,1.817241 0.638076,-1.755986 -0.367532,0.158243 0.198986,-3.48226 -0.357322,-0.02042"
         style="fill:#000000;fill-opacity:1;fill-rule:nonzero;stroke:none"
         transform="matrix(1.4997733,0,0,-1.4997733,404,915.04412)"
         clip-path="url(#clipPath339-0)"
         id="path577" />
      <path
         d="m 30.947944,0.861906 -0.08948,0.154978 h -0.178953 l -0.08948,-0.154978 0.08948,-0.154977 h 0.178953 l 0.08948,0.154977 -0.08948,0.154978"
         style="fill:#000000;fill-opacity:1;fill-rule:nonzero;stroke:none"
         transform="matrix(1.4997733,0,0,-1.4997733,404,915.04412)"
         clip-path="url(#clipPath340-8)"
         id="path578" />
      <path
         d="M 30.55084,7.344654 30.579927,7.417371 30.405405,7.402828 30.914426,8.04274 30.841709,7.228306 30.725361,7.359197 30.696274,7.28648 30.55084,7.344654"
         style="fill:#000000;fill-opacity:1;fill-rule:nonzero;stroke:none"
         transform="matrix(1.4997733,0,0,-1.4997733,404,915.04412)"
         clip-path="url(#clipPath341-2)"
         id="path579" />
      <path
         d="m 30.478122,13.798315 0.02909,0.145435 -0.319956,-0.08726 0.727173,1.367086 0.145435,-1.541607 -0.261782,0.203608 -0.02909,-0.145434 -0.29087,0.05817"
         style="fill:#000000;fill-opacity:1;fill-rule:nonzero;stroke:none"
         transform="matrix(1.4997733,0,0,-1.4997733,404,915.04412)"
         clip-path="url(#clipPath342-6)"
         id="path580" />
      <path
         d="m 30.446174,20.246542 0.07801,0.585073 -0.378417,-0.130081 0.768659,1.702877 0.295638,-1.844783 -0.331114,0.224685 -0.07801,-0.585073 -0.354766,0.0473"
         style="fill:#000000;fill-opacity:1;fill-rule:nonzero;stroke:none"
         transform="matrix(1.4997733,0,0,-1.4997733,404,915.04412)"
         clip-path="url(#clipPath343-9)"
         id="path581" />
      <path
         d="m 30.445492,26.694358 0.130611,1.306111 -0.373935,-0.142452 0.712258,1.727227 0.35613,-1.834065 -0.338323,0.213677 -0.130611,-1.306111 -0.35613,0.03561"
         style="fill:#000000;fill-opacity:1;fill-rule:nonzero;stroke:none"
         transform="matrix(1.4997733,0,0,-1.4997733,404,915.04412)"
         clip-path="url(#clipPath344-0)"
         id="path582" />
      <path
         d="m 30.445174,33.144483 0.162434,2.03042 -0.371037,-0.149841 0.677855,1.741016 0.392442,-1.82664 -0.342495,0.206924 -0.162433,-2.03042 -0.356766,0.02854"
         style="fill:#000000;fill-opacity:1;fill-rule:nonzero;stroke:none"
         transform="matrix(1.4997733,0,0,-1.4997733,404,915.04412)"
         clip-path="url(#clipPath345-8)"
         id="path583" />
      <path
         d="m 30.445,39.59578 0.183736,2.756031 -0.369016,-0.154749 0.654706,1.749853 0.416632,-1.821275 -0.345209,0.202364 -0.183736,-2.756032 -0.357113,0.02381"
         style="fill:#000000;fill-opacity:1;fill-rule:nonzero;stroke:none"
         transform="matrix(1.4997733,0,0,-1.4997733,404,915.04412)"
         clip-path="url(#clipPath346-1)"
         id="path584" />
      <path
         d="m 30.444896,46.047743 0.198986,3.48226 -0.367532,-0.158243 0.638076,1.755986 0.433892,-1.817241 -0.347113,0.19908 -0.198987,-3.48226 -0.357322,0.02042"
         style="fill:#000000;fill-opacity:1;fill-rule:nonzero;stroke:none"
         transform="matrix(1.4997733,0,0,-1.4997733,404,915.04412)"
         clip-path="url(#clipPath347-2)"
         id="path585" />
      <path
         d="m 37.149935,0.949167 h 0.08726 l -0.08726,0.174522 0.872608,-0.261783 -0.872608,-0.261782 0.08726,0.174522 h -0.08726 v 0.174521"
         style="fill:#000000;fill-opacity:1;fill-rule:nonzero;stroke:none"
         transform="matrix(1.4997733,0,0,-1.4997733,404,915.04412)"
         clip-path="url(#clipPath348-2)"
         id="path586" />
      <path
         d="m 37.077218,7.402828 0.08726,0.072717 -0.232695,0.101805 1.09076,0.46539 -0.654456,-0.988955 -0.05817,0.247239 -0.08726,-0.072718 -0.145434,0.174522"
         style="fill:#000000;fill-opacity:1;fill-rule:nonzero;stroke:none"
         transform="matrix(1.4997733,0,0,-1.4997733,404,915.04412)"
         clip-path="url(#clipPath349-6)"
         id="path587" />
      <path
         d="m 37.0045,13.856489 0.08726,0.145435 -0.37813,0.02909 1.308912,1.192564 -0.436304,-1.716129 -0.203609,0.319956 -0.08726,-0.145434 -0.290869,0.174521"
         style="fill:#000000;fill-opacity:1;fill-rule:nonzero;stroke:none"
         transform="matrix(1.4997733,0,0,-1.4997733,404,915.04412)"
         clip-path="url(#clipPath350-0)"
         id="path588" />
      <path
         d="m 36.983782,20.289353 0.274455,0.686138 -0.398768,-0.03323 1.163074,1.462151 -0.166154,-1.860919 -0.265845,0.299076 -0.274456,-0.686138 -0.332306,0.132923"
         style="fill:#000000;fill-opacity:1;fill-rule:nonzero;stroke:none"
         transform="matrix(1.4997733,0,0,-1.4997733,404,915.04412)"
         clip-path="url(#clipPath351-1)"
         id="path589" />
      <path
         d="m 36.978529,26.727973 0.409813,1.366042 -0.394233,-0.06856 1.028434,1.559791 v -1.868321 l -0.29139,0.274249 -0.409812,-1.366042 -0.342812,0.102843"
         style="fill:#000000;fill-opacity:1;fill-rule:nonzero;stroke:none"
         transform="matrix(1.4997733,0,0,-1.4997733,404,915.04412)"
         clip-path="url(#clipPath352-9)"
         id="path590" />
      <path
         d="m 36.975923,33.171975 0.496744,2.069764 -0.389786,-0.09049 0.939662,1.614825 0.104407,-1.865402 -0.30626,0.257537 -0.496744,-2.069763 -0.348023,0.08353"
         style="fill:#000000;fill-opacity:1;fill-rule:nonzero;stroke:none"
         transform="matrix(1.4997733,0,0,-1.4997733,404,915.04412)"
         clip-path="url(#clipPath353-9)"
         id="path591" />
      <path
         d="m 36.974457,39.618971 0.556748,2.783741 -0.38605,-0.105286 0.877388,1.649489 0.175477,-1.860063 -0.315859,0.245669 -0.556748,-2.783741 -0.350956,0.07019"
         style="fill:#000000;fill-opacity:1;fill-rule:nonzero;stroke:none"
         transform="matrix(1.4997733,0,0,-1.4997733,404,915.04412)"
         clip-path="url(#clipPath354-9)"
         id="path592" />
      <path
         d="m 36.973555,46.06777 0.600479,3.502794 -0.382996,-0.115907 0.831505,1.673089 0.226774,-1.854508 -0.322523,0.236853 -0.600479,-3.502794 -0.35276,0.06047"
         style="fill:#000000;fill-opacity:1;fill-rule:nonzero;stroke:none"
         transform="matrix(1.4997733,0,0,-1.4997733,404,915.04412)"
         clip-path="url(#clipPath355-7)"
         id="path593" />
      <path
         d="M 43.676316,1.007341 H 43.82175 L 43.676316,1.29821 45.130662,0.861906 43.676316,0.425602 43.82175,0.716472 h -0.145434 v 0.290869"
         style="fill:#000000;fill-opacity:1;fill-rule:nonzero;stroke:none"
         transform="matrix(1.4997733,0,0,-1.4997733,404,915.04412)"
         clip-path="url(#clipPath356-1)"
         id="path594" />
      <path
         d="M 43.603598,7.461002 43.749033,7.533719 43.458164,7.751871 45.130662,8.04274 43.894468,6.879263 V 7.24285 l -0.145435,-0.072718 -0.145435,0.29087"
         style="fill:#000000;fill-opacity:1;fill-rule:nonzero;stroke:none"
         transform="matrix(1.4997733,0,0,-1.4997733,404,915.04412)"
         clip-path="url(#clipPath357-5)"
         id="path595" />
      <path
         d="m 43.549777,13.895767 0.315498,0.315498 -0.379616,0.126539 1.645003,0.885771 -0.885771,-1.645003 -0.126539,0.379616 -0.315498,-0.315498 -0.253077,0.253077"
         style="fill:#000000;fill-opacity:1;fill-rule:nonzero;stroke:none"
         transform="matrix(1.4997733,0,0,-1.4997733,404,915.04412)"
         clip-path="url(#clipPath358-7)"
         id="path596" />
      <path
         d="m 43.527418,20.322156 0.56096,0.841441 -0.39706,0.04963 1.439344,1.191182 -0.545958,-1.786773 -0.19853,0.347428 -0.560961,-0.84144 -0.297795,0.19853"
         style="fill:#000000;fill-opacity:1;fill-rule:nonzero;stroke:none"
         transform="matrix(1.4997733,0,0,-1.4997733,404,915.04412)"
         clip-path="url(#clipPath359-6)"
         id="path597" />
      <path
         d="m 43.516255,26.756582 0.734076,1.468151 H 43.85018 l 1.280482,1.360511 -0.32012,-1.840692 -0.240091,0.32012 -0.734075,-1.46815 -0.320121,0.16006"
         style="fill:#000000;fill-opacity:1;fill-rule:nonzero;stroke:none"
         transform="matrix(1.4997733,0,0,-1.4997733,404,915.04412)"
         clip-path="url(#clipPath360-3)"
         id="path598" />
      <path
         d="m 43.510162,33.196674 0.856194,2.140485 -0.398768,-0.03323 1.163074,1.46215 -0.166153,-1.860918 -0.265846,0.299076 -0.856194,-2.140485 -0.332307,0.132923"
         style="fill:#000000;fill-opacity:1;fill-rule:nonzero;stroke:none"
         transform="matrix(1.4997733,0,0,-1.4997733,404,915.04412)"
         clip-path="url(#clipPath361-5)"
         id="path599" />
      <path
         d="m 43.506546,39.640466 0.945038,2.835113 -0.396129,-0.05659 1.075207,1.527926 -0.05659,-1.867465 -0.282949,0.28295 -0.945038,-2.835114 -0.339539,0.11318"
         style="fill:#000000;fill-opacity:1;fill-rule:nonzero;stroke:none"
         transform="matrix(1.4997733,0,0,-1.4997733,404,915.04412)"
         clip-path="url(#clipPath362-3)"
         id="path600" />
      <path
         d="m 43.504248,46.086696 1.011888,3.541606 -0.393297,-0.07374 1.007823,1.573187 0.02458,-1.86816 -0.294972,0.270391 -1.011888,-3.541605 -0.344135,0.09832"
         style="fill:#000000;fill-opacity:1;fill-rule:nonzero;stroke:none"
         transform="matrix(1.4997733,0,0,-1.4997733,404,915.04412)"
         clip-path="url(#clipPath363-4)"
         id="path601" />
      <path
         d="m 50.202691,1.040859 h 0.42551 l -0.178953,0.357906 1.789528,-0.536859 -1.789528,-0.536858 0.178953,0.357906 h -0.42551 v 0.357905"
         style="fill:#000000;fill-opacity:1;fill-rule:nonzero;stroke:none"
         transform="matrix(1.4997733,0,0,-1.4997733,404,915.04412)"
         clip-path="url(#clipPath364-1)"
         id="path602" />
      <path
         d="m 50.142502,7.484094 0.51934,0.185479 -0.288904,0.276866 1.865838,0.096301 -1.504708,-1.107465 0.04815,0.397243 -0.519339,-0.185478 -0.120377,0.337054"
         style="fill:#000000;fill-opacity:1;fill-rule:nonzero;stroke:none"
         transform="matrix(1.4997733,0,0,-1.4997733,404,915.04412)"
         clip-path="url(#clipPath365-9)"
         id="path603" />
      <path
         d="m 50.098677,13.914848 0.725506,0.518219 -0.353648,0.187226 1.768241,0.603282 -1.144156,-1.477002 -0.06241,0.395254 -0.725506,-0.518218 -0.208028,0.291239"
         style="fill:#000000;fill-opacity:1;fill-rule:nonzero;stroke:none"
         transform="matrix(1.4997733,0,0,-1.4997733,404,915.04412)"
         clip-path="url(#clipPath366-9)"
         id="path604" />
      <path
         d="m 50.071866,20.344994 0.937161,1.0041 -0.383752,0.113381 1.613501,0.941936 -0.828555,-1.674552 -0.139545,0.37503 -0.937161,-1.004101 -0.261649,0.244206"
         style="fill:#000000;fill-opacity:1;fill-rule:nonzero;stroke:none"
         transform="matrix(1.4997733,0,0,-1.4997733,404,915.04412)"
         clip-path="url(#clipPath367-8)"
         id="path605" />
      <path
         d="m 50.056087,26.779174 1.112481,1.589259 -0.39583,0.05864 1.466038,1.15817 -0.586416,-1.773906 -0.190584,0.35185 -1.112481,-1.589259 -0.293208,0.205245"
         style="fill:#000000;fill-opacity:1;fill-rule:nonzero;stroke:none"
         transform="matrix(1.4997733,0,0,-1.4997733,404,915.04412)"
         clip-path="url(#clipPath368-5)"
         id="path606" />
      <path
         d="m 50.046553,33.217649 1.249153,2.23063 -0.399712,0.01874 1.342782,1.299063 -0.405957,-1.823684 -0.224838,0.331011 -1.249153,-2.23063 -0.312275,0.174874"
         style="fill:#000000;fill-opacity:1;fill-rule:nonzero;stroke:none"
         transform="matrix(1.4997733,0,0,-1.4997733,404,915.04412)"
         clip-path="url(#clipPath369-9)"
         id="path607" />
      <path
         d="m 50.040527,39.659552 1.354996,2.903564 -0.400004,-0.01081 1.243257,1.39461 -0.270274,-1.848669 -0.248651,0.313517 -1.354996,-2.903564 -0.324328,0.151353"
         style="fill:#000000;fill-opacity:1;fill-rule:nonzero;stroke:none"
         transform="matrix(1.4997733,0,0,-1.4997733,404,915.04412)"
         clip-path="url(#clipPath370-3)"
         id="path608" />
      <path
         d="m 50.036537,46.103995 1.437933,3.594831 -0.398769,-0.03323 1.163075,1.462151 -0.166154,-1.860919 -0.265845,0.299076 -1.437933,-3.594831 -0.332307,0.132923"
         style="fill:#000000;fill-opacity:1;fill-rule:nonzero;stroke:none"
         transform="matrix(1.4997733,0,0,-1.4997733,404,915.04412)"
         clip-path="url(#clipPath371-5)"
         id="path609" />
    </g>
  </g>
</svg>
